<svg width="24" height="24" viewBox="0 0 24 24" fill="none" xmlns="http://www.w3.org/2000/svg">
<path d="M12 23.999C18.65 23.999 24 18.6491 24 11.999C24 5.34898 18.65 -0.000976562 12 -0.000976562C5.34996 -0.000976562 0 5.34898 0 11.999C0 18.6491 5.34996 23.999 12 23.999Z" fill="#222E42"/>
<g clip-path="url(#clip0_156_11431)">
<path d="M17.9783 10.976C17.7455 9.43114 16.9018 8.0749 15.7945 7.10098C15.4449 6.78538 15.1145 6.45562 14.7191 6.20386C13.9228 6.54538 13.0667 6.76738 12.1787 6.81298C11.1245 6.91162 9.25266 6.8641 8.53575 6.00514C8.50632 5.9917 8.48122 5.99866 8.44905 6.01522C7.92997 6.23098 7.45058 6.55306 7.06931 6.97618C6.80578 7.3081 6.36793 7.46458 5.95608 7.39642C5.08425 7.31218 3.80332 7.18978 3.0045 7.11274C2.88745 7.08658 5.08516 7.61074 6.00354 7.83082C8.51978 8.4145 11.1113 9.06754 13.2248 10.5925C14.2726 11.3123 14.9719 12.5912 14.9708 13.9787C14.9518 14.8304 14.297 15.5562 13.4758 15.6056C10.4759 15.6152 8.51567 12.1503 9.89039 9.38146C9.91959 9.31858 9.86346 9.43162 9.84361 9.46978C9.50957 10.1384 9.29738 10.8486 9.20908 11.6017C8.82781 14.5285 10.7583 18.0786 13.8213 17.9963C15.9455 17.9871 17.7841 16.0722 17.8094 13.832C17.8366 13.4636 17.735 13.1058 17.7537 12.7357C17.7647 12.5315 17.8192 12.3433 17.8845 12.1554C17.9915 11.7927 18.0259 11.3759 17.981 10.9935L17.9785 10.9755L17.9783 10.976ZM17.0229 9.15634L17.0236 9.15658C17.0236 9.15682 17.0238 9.1573 17.0238 9.15754C17.0236 9.1573 17.0232 9.15682 17.0229 9.15634Z" fill="#2964CC"/>
</g>
<defs>
<clipPath id="clip0_156_11431">
<rect width="15" height="12" fill="white" transform="translate(3 5.99902)"/>
</clipPath>
</defs>
</svg>
