<svg width="25" height="24" viewBox="0 0 25 24" fill="none" xmlns="http://www.w3.org/2000/svg">
<path d="M12.5 24C19.15 24 24.5 18.65 24.5 12C24.5 5.34996 19.15 0 12.5 0C5.84996 0 0.5 5.34996 0.5 12C0.5 18.65 5.84996 24 12.5 24Z" fill="#2775CA"/>
<path d="M15.8001 13.8999C15.8001 12.15 14.7501 11.55 12.6501 11.3C11.1501 11.1 10.8501 10.7 10.8501 9.99995C10.8501 9.29987 11.3501 8.84999 12.3501 8.84999C13.2501 8.84999 13.7501 9.14999 14.0001 9.89999C14.0501 10.05 14.2001 10.1499 14.3501 10.1499H15.15C15.3501 10.1499 15.5001 9.99995 15.5001 9.80003V9.74999C15.3 8.64995 14.4 7.79999 13.2501 7.70003V6.50003C13.2501 6.29999 13.1001 6.14999 12.8501 6.09995H12.1001C11.9001 6.09995 11.7501 6.24995 11.7 6.50003V7.64999C10.2 7.85003 9.2501 8.84999 9.2501 10.1C9.2501 11.75 10.2501 12.3999 12.3501 12.65C13.7501 12.9 14.2001 13.2 14.2001 14C14.2001 14.8001 13.5 15.35 12.5501 15.35C11.25 15.35 10.8 14.7999 10.65 14.0499C10.6001 13.85 10.4501 13.7499 10.3001 13.7499H9.45002C9.2501 13.7499 9.1001 13.8999 9.1001 14.1V14.15C9.30002 15.3999 10.1001 16.2999 11.7501 16.55V17.75C11.7501 17.9499 11.9001 18.0999 12.15 18.15H12.9C13.1001 18.15 13.2501 18 13.3001 17.75V16.55C14.8001 16.2999 15.8001 15.2499 15.8001 13.8999V13.8999Z" fill="white"/>
<path fill-rule="evenodd" clip-rule="evenodd" d="M5.50004 9.54995C4.04996 13.4 6.05 17.75 9.95 19.15C10.1 19.25 10.25 19.45 10.25 19.6V20.3C10.25 20.4 10.25 20.45 10.2 20.5C10.15 20.7 9.95 20.8 9.74996 20.7C6.95 19.8 4.79996 17.65 3.89996 14.85C2.39996 10.1 5 5.04995 9.74996 3.54995C9.8 3.50003 9.89996 3.50003 9.95 3.50003C10.15 3.54995 10.25 3.69995 10.25 3.89999V4.59995C10.25 4.85003 10.15 5.00003 9.95 5.09999C7.90004 5.84999 6.25004 7.44995 5.50004 9.54995ZM14.8 3.75C14.85 3.54996 15.05 3.45 15.25 3.54996C18 4.44996 20.2 6.6 21.1 9.45C22.6 14.2 20 19.25 15.25 20.75C15.2 20.8 15.1 20.8 15.05 20.8C14.85 20.75 14.75 20.6 14.75 20.4V19.7C14.75 19.45 14.85 19.3 15.05 19.2C17.1 18.45 18.75 16.85 19.5 14.75C20.95 10.9 18.95 6.54996 15.05 5.15004C14.9 5.04996 14.75 4.85004 14.75 4.65V3.95004C14.75 3.84996 14.75 3.80004 14.8 3.75Z" fill="white"/>
</svg>
