<svg width="146" height="56" viewBox="0 0 146 56" fill="none" xmlns="http://www.w3.org/2000/svg">
<g clip-path="url(#clip0_183_1416)">
<path d="M54.8655 46.094H0V49.0485H54.8655V46.094Z" fill="#141BEB"/>
<mask id="mask0_183_1416" style="mask-type:luminance" maskUnits="userSpaceOnUse" x="61" y="39" width="18" height="17">
<path d="M78.6286 39.1426H61.1794V56H78.6286V39.1426Z" fill="white"/>
</mask>
<g mask="url(#mask0_183_1416)">
<path d="M69.9061 39.1425C68.2063 39.1636 66.5529 39.6743 65.1484 40.6155C63.7438 41.5525 62.6598 42.8778 62.0229 44.4183C61.3861 45.9589 61.23 47.6514 61.5759 49.2805C61.9217 50.9097 62.7484 52.3996 63.9589 53.5688C65.1694 54.7379 66.7047 55.5314 68.3708 55.8479C70.041 56.1645 71.7661 55.9914 73.3351 55.3499C74.9042 54.7083 76.2412 53.6278 77.186 52.2435C78.1266 50.8591 78.6327 49.2341 78.6327 47.5712C78.6201 45.3215 77.6922 43.169 76.0556 41.5905C74.4191 40.0119 72.209 39.1298 69.9103 39.1425H69.9061Z" fill="#00EDBE"/>
<path d="M73.3521 44.4522C73.3268 44.0301 73.4323 43.6122 73.6558 43.2493H66.6247C66.5614 43.2493 66.4982 43.2619 66.4391 43.283C66.3801 43.3084 66.3294 43.3421 66.2831 43.3843C66.2367 43.4265 66.2029 43.4814 66.1776 43.5363C66.1523 43.5911 66.1396 43.6545 66.1396 43.7178V45.1866C66.1396 45.2499 66.1523 45.309 66.1776 45.368C66.2029 45.4229 66.2367 45.4778 66.2831 45.52C66.3294 45.5622 66.3801 45.596 66.4391 45.6213C66.4982 45.6466 66.5614 45.6551 66.6247 45.6551H73.6558C73.4365 45.2921 73.331 44.8742 73.3521 44.4522Z" fill="#141BEB"/>
<path d="M65.0429 47.5923C65.064 48.0144 64.9586 48.4322 64.7393 48.7952H71.7704C71.8336 48.7952 71.8969 48.7825 71.956 48.7614C72.015 48.7361 72.0656 48.7023 72.112 48.6601C72.1584 48.6179 72.1922 48.5631 72.2175 48.5082C72.2428 48.4533 72.2554 48.39 72.2554 48.3267V46.8579C72.2554 46.7946 72.2428 46.7355 72.2175 46.6764C72.1922 46.6215 72.1584 46.5667 72.112 46.5245C72.0656 46.4823 72.015 46.4485 71.956 46.4232C71.8969 46.3978 71.8336 46.3894 71.7704 46.3894H64.7393C64.9586 46.7524 65.064 47.1702 65.0429 47.5923Z" fill="#141BEB"/>
<path d="M73.3521 50.7324C73.3268 50.3104 73.4323 49.8925 73.6558 49.5295H66.6247C66.5614 49.5295 66.4982 49.5422 66.4391 49.5633C66.3801 49.5886 66.3294 49.6224 66.2831 49.6646C66.2367 49.7068 66.2029 49.7617 66.1776 49.8165C66.1523 49.8714 66.1396 49.9347 66.1396 49.998V51.4668C66.1396 51.5301 66.1523 51.5892 66.1776 51.6483C66.2029 51.7032 66.2367 51.7581 66.2831 51.8003C66.3294 51.8425 66.3801 51.8762 66.4391 51.9016C66.4982 51.9269 66.5614 51.9353 66.6247 51.9353H73.6558C73.4365 51.5724 73.331 51.1545 73.3521 50.7324Z" fill="#141BEB"/>
</g>
<path d="M88.2915 44.1062C90.3498 44.1062 91.6911 45.4906 91.6911 47.774C91.6911 49.5087 90.662 51.2856 88.3211 51.2856C86.2332 51.2856 84.9299 49.8041 84.9299 47.6178C84.9299 45.8451 86.0477 44.1062 88.2915 44.1062ZM89.8184 47.6474C89.8184 46.3347 89.1899 45.7058 88.3211 45.7058C87.313 45.7058 86.7436 46.4993 86.7436 47.7149C86.7436 48.8123 87.3425 49.6775 88.2831 49.6775C89.3333 49.6775 89.8226 48.8756 89.8226 47.6474H89.8184ZM95.5209 46.2165C96.6766 46.2165 97.6678 47.0776 97.6678 48.7067C97.6678 50.3359 96.6091 51.1463 95.4028 51.159C94.7575 51.159 94.2176 50.8551 94.1374 50.7285C94.1374 51.0534 94.1754 53.13 94.0868 53.1891C93.9983 53.2566 92.657 53.3157 92.4714 53.2187C92.4419 53.2102 92.5009 46.4065 92.5895 46.187C92.5979 46.1575 94.0573 46.2376 94.0573 46.2376C94.0573 46.2967 94.0489 46.7104 94.0489 46.7652C94.1164 46.6471 94.6351 46.2165 95.5167 46.2165H95.5209ZM96.0102 48.7278C96.0102 48.061 95.6095 47.7064 95.078 47.7064C94.4116 47.7064 94.0995 48.1285 94.0995 48.7152C94.0995 49.3609 94.5508 49.7535 95.0401 49.7535C95.6559 49.7535 96.0102 49.3314 96.0102 48.7236V48.7278ZM99.7261 49.0993C99.7261 49.6184 100.097 49.9434 100.776 49.9434C101.304 49.9434 101.666 49.7577 101.924 49.6015C102.021 49.6986 102.421 50.5132 102.434 50.6609C102.168 50.9057 101.493 51.218 100.7 51.218C98.9289 51.218 98.2119 50.032 98.2119 48.7785C98.2119 47.4532 99.0343 46.2208 100.574 46.2208C101.877 46.2208 102.67 47.2 102.67 48.2973C102.67 48.6012 102.641 48.8545 102.582 49.0528C102.092 49.1204 100.317 49.1204 99.7303 49.1035L99.7261 49.0993ZM99.7176 48.196L101.257 48.1665C101.278 47.6853 101.034 47.3139 100.561 47.3139C100.051 47.3139 99.7176 47.698 99.7176 48.196ZM103.391 46.3811C103.48 46.2545 104.851 46.1954 104.939 46.2841C104.931 46.4909 104.918 46.8117 104.91 46.8707C105.125 46.5458 105.606 46.1828 106.399 46.1828C107.466 46.1828 108.132 47.0354 108.132 48.3016C108.132 48.96 108.094 50.6145 108.052 51.0956C108.044 51.1927 106.572 51.1758 106.542 51.1547C106.504 51.1336 106.55 48.8207 106.55 48.4704C106.55 47.9428 106.314 47.5672 105.804 47.5672C105.264 47.5672 104.944 47.9892 104.944 48.3691C104.944 48.7025 104.935 51.0534 104.906 51.0956C104.876 51.1336 103.446 51.1168 103.417 51.0577C103.396 51.0197 103.358 48.4577 103.387 46.3811H103.391ZM112.654 47.6853C112.654 49.0866 113.514 49.648 114.349 49.648C115.184 49.648 115.682 49.2259 115.897 49.0697C116.121 49.2259 116.555 50.0194 116.711 50.3528C116.289 50.834 115.298 51.3025 114.172 51.3025C111.878 51.3025 110.811 49.6648 110.811 47.6178C110.811 45.5708 112.202 44.1273 114.425 44.1273C115.551 44.1273 116.365 44.4818 116.669 44.7731C116.669 44.9672 116.256 46.0266 116.011 46.2334C115.657 46.0266 115.062 45.7607 114.442 45.7607C113.434 45.7607 112.649 46.5626 112.649 47.6811L112.654 47.6853ZM117.184 47.2548C117.192 47.0902 117.842 46.1659 119.153 46.1659C120.368 46.1659 121.309 46.8834 121.309 48.3142C121.309 49.3652 121.258 50.9901 121.229 51.0492C121.199 51.1083 119.963 51.0492 119.963 51.0492L119.875 50.6272C119.807 50.6947 119.394 51.1674 118.622 51.1674C117.555 51.1674 117.104 50.5385 117.104 49.6859C117.104 48.8334 117.88 48.2467 118.858 48.2467C119.309 48.2467 119.584 48.3733 119.769 48.5126C119.778 48.0905 119.799 47.5123 118.917 47.5123C118.31 47.5123 118.027 47.9428 117.939 47.9555C117.85 47.9555 117.175 47.3688 117.184 47.2591V47.2548ZM118.419 49.6564C118.419 49.9814 118.694 50.2051 119.056 50.2051C119.487 50.2051 119.702 49.9518 119.702 49.6564C119.702 49.3145 119.419 49.0993 119.056 49.0993C118.673 49.0993 118.419 49.3441 118.419 49.6564ZM122.27 46.3221C122.359 46.1743 123.73 46.263 123.818 46.3516C123.81 46.5584 123.797 46.8243 123.789 46.8792C124.004 46.5542 124.375 46.2123 125.172 46.2123C125.721 46.2123 126.163 46.4867 126.425 46.9172C126.758 46.3305 127.505 46.2123 127.905 46.2123C129.141 46.2123 129.689 47.0269 129.689 48.2805C129.689 48.9473 129.652 50.644 129.622 51.1041C129.614 51.1927 128.125 51.1927 128.095 51.1632C128.066 51.1421 128.116 48.8967 128.116 48.4366C128.116 47.9766 127.99 47.5925 127.471 47.5925C126.952 47.5925 126.775 48.1201 126.775 48.424C126.775 49.1288 126.745 50.5807 126.716 51.0703C126.707 51.159 125.227 51.0999 125.206 51.0788C125.168 51.0577 125.214 48.7658 125.214 48.4324C125.214 47.9512 125.075 47.5883 124.569 47.5883C124.063 47.5883 123.844 48.0188 123.844 48.3353C123.844 48.6181 123.822 51.0999 123.793 51.1379C123.763 51.1758 122.334 51.159 122.304 51.0999C122.283 51.0619 122.245 48.3944 122.275 46.3136L122.27 46.3221ZM133.688 46.2123C134.844 46.2123 135.835 47.0733 135.835 48.7025C135.835 50.3317 134.776 51.1421 133.57 51.1547C132.925 51.1547 132.385 50.8509 132.305 50.7242C132.305 51.0492 132.342 53.1258 132.254 53.1849C132.165 53.2524 130.824 53.3115 130.639 53.2144C130.609 53.206 130.668 46.4023 130.757 46.1828C130.765 46.1532 132.224 46.2334 132.224 46.2334C132.224 46.2925 132.216 46.7061 132.216 46.761C132.283 46.6428 132.802 46.2123 133.684 46.2123H133.688ZM134.177 48.7236C134.177 48.0568 133.777 47.7022 133.245 47.7022C132.579 47.7022 132.267 48.1243 132.267 48.711C132.267 49.3567 132.718 49.7493 133.207 49.7493C133.823 49.7493 134.177 49.3272 134.177 48.7194V48.7236ZM141.196 51.0788C141.107 51.2054 139.833 51.1674 139.736 51.0788C139.745 50.872 139.736 50.5892 139.745 50.5216C139.53 50.834 139.028 51.2476 138.294 51.2476C137.109 51.2476 136.539 50.5216 136.539 49.1499C136.539 48.4451 136.636 46.7695 136.666 46.3052C136.687 46.2081 138.155 46.225 138.184 46.2545C138.205 46.3643 138.104 48.597 138.104 48.9811C138.104 49.5298 138.34 49.8632 138.851 49.8632C139.39 49.8632 139.673 49.4496 139.682 49.0191C139.682 48.7363 139.719 46.3221 139.762 46.2841C139.791 46.2461 141.213 46.263 141.251 46.3221C141.259 46.36 141.229 48.9895 141.191 51.0788H141.196ZM144.039 51.2645C143.06 51.2645 142.166 50.872 142.031 50.7242C141.951 50.6272 142.402 49.5593 142.482 49.5973C142.638 49.6775 143.246 50.1165 143.874 50.1165C144.266 50.1165 144.46 49.9772 144.46 49.7619C144.46 49.5467 144.304 49.4285 143.667 49.3103C142.571 49.1246 142.06 48.6645 142.06 47.8415C142.06 46.7906 142.777 46.1828 143.979 46.1828C144.882 46.1828 145.675 46.4867 145.802 46.6133C145.89 46.7019 145.439 47.7318 145.371 47.7402C145.321 47.7402 144.697 47.3561 144.127 47.3561C143.743 47.3561 143.579 47.5418 143.579 47.7402C143.579 47.9555 143.743 48.0525 144.313 48.1327C145.477 48.2973 146 48.7025 146 49.6142C146 50.4752 145.414 51.2603 144.039 51.2603V51.2645Z" fill="#141BEB"/>
<path d="M0 35.517H15.0281V30.4691H5.0403V20.1326H13.7417V15.3843H5.0403V5.04368H15.0281V0.29541H0V35.517Z" fill="black"/>
<path d="M24.5183 0.29541H17.0527V35.517H24.0712C27.0701 35.517 29.3688 34.7362 30.9673 33.1661C32.5659 31.6002 33.3631 29.1691 33.3631 25.8685V9.39942C33.3631 6.49981 32.6123 4.25441 31.115 2.67165C29.6134 1.0889 27.4159 0.29541 24.5141 0.29541H24.5183ZM28.3228 26.3623C28.3228 27.8776 28.0275 28.9918 27.4328 29.7009C26.8381 30.41 25.8342 30.7645 24.4171 30.7645H22.093V5.04368H24.4171C25.9017 5.04368 26.9224 5.42354 27.4834 6.18326C28.0444 6.94298 28.3228 8.01504 28.3228 9.39942V26.3666V26.3623Z" fill="black"/>
<path d="M75.2544 2.3256C73.7697 0.776605 71.8422 0 69.4717 0C68.2528 0 67.1393 0.206813 66.1354 0.61622C65.1316 1.02985 64.2627 1.59964 63.5415 2.32137C62.816 3.04733 62.255 3.90413 61.8628 4.89177C61.4663 5.87941 61.2681 6.95146 61.2681 8.10793V14.0633L60.9517 14.2448L57.4046 16.2918L53.8574 14.2448L53.1867 13.8565V0.295448H48.1464V27.1052C48.1464 28.3588 47.8512 29.2831 47.2565 29.874C46.6617 30.4691 45.9236 30.7645 45.0337 30.7645C44.1437 30.7645 43.4014 30.4691 42.8109 29.874C42.2162 29.2789 41.9209 28.3588 41.9209 27.1052V0.295448H36.8806V27.6033C36.8806 28.7597 37.0957 29.8233 37.5217 30.7941C37.9477 31.7691 38.5424 32.6343 39.3016 33.3898C40.0609 34.1495 40.9255 34.7404 41.8956 35.1709C42.8657 35.5972 43.9117 35.8125 45.0337 35.8125C46.1556 35.8125 47.2101 35.5972 48.197 35.1709C49.184 34.7447 50.0571 34.1495 50.8163 33.3898C51.5755 32.6301 52.1576 31.7648 52.5709 30.7941C52.9843 29.8233 53.1909 28.7597 53.1909 27.6033V19.7781L53.8616 19.3898L57.4088 17.3428L60.956 19.3898L61.2723 19.5713V27.502C61.2723 29.1185 61.5254 30.4438 62.0399 31.4821C62.5503 32.5203 63.1998 33.3687 63.9928 34.0314C64.7857 34.6898 65.6757 35.1541 66.6627 35.4157C67.6496 35.6774 68.624 35.8125 69.5772 35.8125C70.6991 35.8125 71.7452 35.5888 72.7152 35.1456C73.6853 34.7024 74.5374 34.0989 75.2628 33.3392C75.9883 32.5794 76.5577 31.7142 76.9668 30.7434C77.3802 29.7727 77.5868 28.7386 77.5868 27.6539V25.476H72.5465V27.2065C72.5465 27.8987 72.4495 28.4769 72.2513 28.937C72.0531 29.397 71.8042 29.76 71.509 30.0259C71.18 30.2918 70.8257 30.4818 70.4461 30.5957C70.0665 30.7097 69.7122 30.7688 69.3832 30.7688C68.2275 30.7688 67.4303 30.4227 66.9874 29.7305C66.5446 29.0383 66.321 28.1815 66.321 27.1601V9.15044C66.321 7.96443 66.5277 6.98101 66.9368 6.20862C67.3502 5.43624 68.1811 5.04794 69.4338 5.04794C70.3912 5.04794 71.1462 5.41091 71.7072 6.13687C72.2682 6.86283 72.5465 7.71963 72.5465 8.70727V10.3913H77.5868V8.41182C77.5868 7.19204 77.3802 6.0609 76.9668 5.02261C76.5535 3.98432 75.9841 3.08532 75.2628 2.3256H75.2544Z" fill="black"/>
<path d="M91.7166 15.3843H85.4868V0.29541H80.4465V35.517H85.4868V19.8372H91.7166V35.517H96.7569V0.29541H91.7166V15.3843Z" fill="black"/>
<path d="M105.855 0.29541L97.9968 35.5128H103.037L104.522 27.9451H111.393L112.877 35.5128H117.918L110.056 0.29541H105.855ZM105.412 23.1968L107.883 10.4335H107.98L110.452 23.1968H105.412Z" fill="black"/>
<path d="M124.337 0.29541H119.297V35.5128H124.337V0.29541Z" fill="black"/>
<path d="M140.357 0.29541V21.517H140.26L132.646 0.29541H127.8V35.517H132.845V14.3461H132.942L140.652 35.517H145.397V0.29541H140.357Z" fill="black"/>
</g>
<defs>
<clipPath id="clip0_183_1416">
<rect width="146" height="56" fill="white"/>
</clipPath>
</defs>
</svg>
