<svg width="146" height="56" viewBox="0 0 146 56" fill="none" xmlns="http://www.w3.org/2000/svg">
<g clip-path="url(#clip0_183_1372)">
<path d="M54.8655 46.094H0V49.0485H54.8655V46.094Z" fill="white"/>
<path d="M88.2918 44.1062C90.3501 44.1062 91.6913 45.4906 91.6913 47.774C91.6913 49.5087 90.6622 51.2856 88.3213 51.2856C86.2335 51.2856 84.9302 49.8041 84.9302 47.6178C84.9302 45.8451 86.0479 44.1062 88.2918 44.1062ZM89.8186 47.6474C89.8186 46.3347 89.1902 45.7058 88.3213 45.7058C87.3132 45.7058 86.7438 46.4993 86.7438 47.7149C86.7438 48.8123 87.3428 49.6775 88.2833 49.6775C89.3336 49.6775 89.8229 48.8756 89.8229 47.6474H89.8186ZM95.5211 46.2165C96.6768 46.2165 97.668 47.0776 97.668 48.7067C97.668 50.3359 96.6093 51.1463 95.403 51.159C94.7577 51.159 94.2178 50.8551 94.1377 50.7285C94.1377 51.0534 94.1757 53.13 94.0871 53.1891C93.9985 53.2566 92.6572 53.3157 92.4716 53.2187C92.4421 53.2102 92.5012 46.4065 92.5897 46.187C92.5982 46.1575 94.0575 46.2376 94.0575 46.2376C94.0575 46.2967 94.0491 46.7104 94.0491 46.7652C94.1166 46.6471 94.6354 46.2165 95.5169 46.2165H95.5211ZM96.0104 48.7278C96.0104 48.061 95.6097 47.7064 95.0783 47.7064C94.4118 47.7064 94.0997 48.1285 94.0997 48.7152C94.0997 49.3609 94.551 49.7535 95.0403 49.7535C95.6561 49.7535 96.0104 49.3314 96.0104 48.7236V48.7278ZM99.7263 49.0993C99.7263 49.6184 100.097 49.9434 100.777 49.9434C101.304 49.9434 101.667 49.7577 101.924 49.6015C102.021 49.6986 102.421 50.5132 102.434 50.6609C102.168 50.9057 101.494 51.218 100.701 51.218C98.9291 51.218 98.2121 50.032 98.2121 48.7785C98.2121 47.4532 99.0346 46.2208 100.574 46.2208C101.877 46.2208 102.67 47.2 102.67 48.2973C102.67 48.6012 102.641 48.8545 102.582 49.0528C102.093 49.1204 100.317 49.1204 99.7305 49.1035L99.7263 49.0993ZM99.7179 48.196L101.257 48.1665C101.278 47.6853 101.034 47.3139 100.561 47.3139C100.051 47.3139 99.7179 47.698 99.7179 48.196ZM103.392 46.3811C103.48 46.2545 104.851 46.1954 104.94 46.2841C104.931 46.4909 104.918 46.8117 104.91 46.8707C105.125 46.5458 105.606 46.1828 106.399 46.1828C107.466 46.1828 108.132 47.0354 108.132 48.3016C108.132 48.96 108.094 50.6145 108.052 51.0956C108.044 51.1927 106.572 51.1758 106.542 51.1547C106.504 51.1336 106.551 48.8207 106.551 48.4704C106.551 47.9428 106.315 47.5672 105.804 47.5672C105.264 47.5672 104.944 47.9892 104.944 48.3691C104.944 48.7025 104.935 51.0534 104.906 51.0956C104.876 51.1336 103.446 51.1168 103.417 51.0577C103.396 51.0197 103.358 48.4577 103.387 46.3811H103.392ZM112.654 47.6853C112.654 49.0866 113.514 49.648 114.349 49.648C115.185 49.648 115.682 49.2259 115.897 49.0697C116.121 49.2259 116.555 50.0194 116.711 50.3528C116.29 50.834 115.299 51.3025 114.172 51.3025C111.878 51.3025 110.811 49.6648 110.811 47.6178C110.811 45.5708 112.203 44.1273 114.425 44.1273C115.552 44.1273 116.366 44.4818 116.669 44.7731C116.669 44.9672 116.256 46.0266 116.011 46.2334C115.657 46.0266 115.062 45.7607 114.442 45.7607C113.434 45.7607 112.65 46.5626 112.65 47.6811L112.654 47.6853ZM117.184 47.2548C117.192 47.0902 117.842 46.1659 119.154 46.1659C120.368 46.1659 121.309 46.8834 121.309 48.3142C121.309 49.3652 121.258 50.9901 121.229 51.0492C121.199 51.1083 119.963 51.0492 119.963 51.0492L119.875 50.6272C119.807 50.6947 119.394 51.1674 118.622 51.1674C117.555 51.1674 117.104 50.5385 117.104 49.6859C117.104 48.8334 117.88 48.2467 118.858 48.2467C119.31 48.2467 119.584 48.3733 119.769 48.5126C119.778 48.0905 119.799 47.5123 118.917 47.5123C118.31 47.5123 118.027 47.9428 117.939 47.9555C117.85 47.9555 117.175 47.3688 117.184 47.2591V47.2548ZM118.42 49.6564C118.42 49.9814 118.694 50.2051 119.057 50.2051C119.487 50.2051 119.702 49.9518 119.702 49.6564C119.702 49.3145 119.419 49.0993 119.057 49.0993C118.673 49.0993 118.42 49.3441 118.42 49.6564ZM122.271 46.3221C122.359 46.1743 123.73 46.263 123.819 46.3516C123.81 46.5584 123.797 46.8243 123.789 46.8792C124.004 46.5542 124.375 46.2123 125.172 46.2123C125.721 46.2123 126.164 46.4867 126.425 46.9172C126.758 46.3305 127.505 46.2123 127.906 46.2123C129.141 46.2123 129.69 47.0269 129.69 48.2805C129.69 48.9473 129.652 50.644 129.622 51.1041C129.614 51.1927 128.125 51.1927 128.095 51.1632C128.066 51.1421 128.116 48.8967 128.116 48.4366C128.116 47.9766 127.99 47.5925 127.471 47.5925C126.952 47.5925 126.775 48.1201 126.775 48.424C126.775 49.1288 126.746 50.5807 126.716 51.0703C126.708 51.159 125.227 51.0999 125.206 51.0788C125.168 51.0577 125.215 48.7658 125.215 48.4324C125.215 47.9512 125.075 47.5883 124.569 47.5883C124.063 47.5883 123.844 48.0188 123.844 48.3353C123.844 48.6181 123.823 51.0999 123.793 51.1379C123.764 51.1758 122.334 51.159 122.304 51.0999C122.283 51.0619 122.245 48.3944 122.275 46.3136L122.271 46.3221ZM133.688 46.2123C134.844 46.2123 135.835 47.0733 135.835 48.7025C135.835 50.3317 134.776 51.1421 133.57 51.1547C132.925 51.1547 132.385 50.8509 132.305 50.7242C132.305 51.0492 132.343 53.1258 132.254 53.1849C132.166 53.2524 130.824 53.3115 130.639 53.2144C130.609 53.206 130.668 46.4023 130.757 46.1828C130.765 46.1532 132.225 46.2334 132.225 46.2334C132.225 46.2925 132.216 46.7061 132.216 46.761C132.284 46.6428 132.802 46.2123 133.684 46.2123H133.688ZM134.177 48.7236C134.177 48.0568 133.777 47.7022 133.245 47.7022C132.579 47.7022 132.267 48.1243 132.267 48.711C132.267 49.3567 132.718 49.7493 133.207 49.7493C133.823 49.7493 134.177 49.3272 134.177 48.7194V48.7236ZM141.196 51.0788C141.107 51.2054 139.834 51.1674 139.737 51.0788C139.745 50.872 139.737 50.5892 139.745 50.5216C139.53 50.834 139.028 51.2476 138.294 51.2476C137.109 51.2476 136.539 50.5216 136.539 49.1499C136.539 48.4451 136.636 46.7695 136.666 46.3052C136.687 46.2081 138.155 46.225 138.184 46.2545C138.206 46.3643 138.104 48.597 138.104 48.9811C138.104 49.5298 138.34 49.8632 138.851 49.8632C139.391 49.8632 139.673 49.4496 139.682 49.0191C139.682 48.7363 139.72 46.3221 139.762 46.2841C139.791 46.2461 141.213 46.263 141.251 46.3221C141.259 46.36 141.23 48.9895 141.192 51.0788H141.196ZM144.039 51.2645C143.06 51.2645 142.166 50.872 142.031 50.7242C141.951 50.6272 142.402 49.5593 142.482 49.5973C142.638 49.6775 143.246 50.1165 143.874 50.1165C144.267 50.1165 144.461 49.9772 144.461 49.7619C144.461 49.5467 144.304 49.4285 143.668 49.3103C142.571 49.1246 142.061 48.6645 142.061 47.8415C142.061 46.7906 142.778 46.1828 143.98 46.1828C144.882 46.1828 145.675 46.4867 145.802 46.6133C145.89 46.7019 145.439 47.7318 145.372 47.7402C145.321 47.7402 144.697 47.3561 144.127 47.3561C143.744 47.3561 143.579 47.5418 143.579 47.7402C143.579 47.9555 143.744 48.0525 144.313 48.1327C145.477 48.2973 146 48.7025 146 49.6142C146 50.4752 145.414 51.2603 144.039 51.2603V51.2645Z" fill="white"/>
<path d="M69.9063 39.1427C68.2065 39.1638 66.5531 39.6745 65.1486 40.6157C63.7441 41.5527 62.6601 42.878 62.0232 44.4186C61.3863 45.9591 61.2302 47.6516 61.5761 49.2808C61.922 50.91 62.7487 52.3999 63.9592 53.569C65.1697 54.7381 66.705 55.5316 68.371 55.8482C70.0413 56.1647 71.7664 55.9917 73.3354 55.3501C74.9044 54.7086 76.2415 53.6281 77.1863 52.2437C78.1268 50.8593 78.633 49.2344 78.633 47.5714C78.6203 45.3218 77.6924 43.1692 76.0559 41.5907C74.4194 40.0122 72.2092 39.1301 69.9105 39.1427H69.9063Z" fill="#00EDBE"/>
<path d="M73.3524 44.4524C73.3271 44.0303 73.4325 43.6125 73.6561 43.2495H66.6249C66.5617 43.2495 66.4984 43.2622 66.4394 43.2833C66.3803 43.3086 66.3297 43.3424 66.2833 43.3846C66.2369 43.4268 66.2032 43.4816 66.1779 43.5365C66.1525 43.5914 66.1399 43.6547 66.1399 43.718V45.1868C66.1399 45.2501 66.1525 45.3092 66.1779 45.3683C66.2032 45.4232 66.2369 45.478 66.2833 45.5202C66.3297 45.5624 66.3803 45.5962 66.4394 45.6215C66.4984 45.6469 66.5617 45.6553 66.6249 45.6553H73.6561C73.4367 45.2923 73.3313 44.8745 73.3524 44.4524Z" fill="#141BEB"/>
<path d="M65.0432 47.5925C65.0643 48.0146 64.9588 48.4325 64.7395 48.7954H71.7706C71.8339 48.7954 71.8972 48.7828 71.9562 48.7617C72.0153 48.7363 72.0659 48.7026 72.1123 48.6604C72.1587 48.6182 72.1924 48.5633 72.2177 48.5084C72.243 48.4536 72.2557 48.3902 72.2557 48.3269V46.8581C72.2557 46.7948 72.243 46.7357 72.2177 46.6767C72.1924 46.6218 72.1587 46.5669 72.1123 46.5247C72.0659 46.4825 72.0153 46.4487 71.9562 46.4234C71.8972 46.3981 71.8339 46.3896 71.7706 46.3896H64.7395C64.9588 46.7526 65.0643 47.1705 65.0432 47.5925Z" fill="#141BEB"/>
<path d="M73.3524 50.7327C73.3271 50.3106 73.4325 49.8928 73.6561 49.5298H66.6249C66.5617 49.5298 66.4984 49.5424 66.4394 49.5636C66.3803 49.5889 66.3297 49.6226 66.2833 49.6648C66.2369 49.7071 66.2032 49.7619 66.1779 49.8168C66.1525 49.8717 66.1399 49.935 66.1399 49.9983V51.4671C66.1399 51.5304 66.1525 51.5895 66.1779 51.6486C66.2032 51.7034 66.2369 51.7583 66.2833 51.8005C66.3297 51.8427 66.3803 51.8765 66.4394 51.9018C66.4984 51.9271 66.5617 51.9356 66.6249 51.9356H73.6561C73.4367 51.5726 73.3313 51.1547 73.3524 50.7327Z" fill="#141BEB"/>
<path d="M0 35.517H15.0281V30.4691H5.0403V20.1326H13.7417V15.3843H5.0403V5.04368H15.0281V0.29541H0V35.517Z" fill="white"/>
<path d="M24.5183 0.29541H17.0527V35.517H24.0712C27.0701 35.517 29.3688 34.7362 30.9673 33.1661C32.5659 31.6002 33.3631 29.1691 33.3631 25.8685V9.39942C33.3631 6.49981 32.6123 4.25441 31.115 2.67165C29.6134 1.0889 27.4159 0.29541 24.5141 0.29541H24.5183ZM28.3228 26.3623C28.3228 27.8776 28.0275 28.9918 27.4328 29.7009C26.8381 30.41 25.8342 30.7645 24.4171 30.7645H22.093V5.04368H24.4171C25.9017 5.04368 26.9224 5.42354 27.4834 6.18326C28.0444 6.94298 28.3228 8.01504 28.3228 9.39942V26.3666V26.3623Z" fill="white"/>
<path d="M75.2544 2.3256C73.7697 0.776605 71.8422 0 69.4717 0C68.2528 0 67.1393 0.206813 66.1354 0.61622C65.1316 1.02985 64.2627 1.59964 63.5415 2.32137C62.816 3.04733 62.255 3.90413 61.8628 4.89177C61.4663 5.87941 61.2681 6.95146 61.2681 8.10793V14.0633L60.9517 14.2448L57.4046 16.2918L53.8574 14.2448L53.1867 13.8565V0.295448H48.1464V27.1052C48.1464 28.3588 47.8512 29.2831 47.2565 29.874C46.6617 30.4691 45.9236 30.7645 45.0337 30.7645C44.1437 30.7645 43.4014 30.4691 42.8109 29.874C42.2162 29.2789 41.9209 28.3588 41.9209 27.1052V0.295448H36.8806V27.6033C36.8806 28.7597 37.0957 29.8233 37.5217 30.7941C37.9477 31.7691 38.5424 32.6343 39.3016 33.3898C40.0609 34.1495 40.9255 34.7404 41.8956 35.1709C42.8657 35.5972 43.9117 35.8125 45.0337 35.8125C46.1556 35.8125 47.2101 35.5972 48.197 35.1709C49.184 34.7447 50.0571 34.1495 50.8163 33.3898C51.5755 32.6301 52.1576 31.7648 52.5709 30.7941C52.9843 29.8233 53.1909 28.7597 53.1909 27.6033V19.7781L53.8616 19.3898L57.4088 17.3428L60.956 19.3898L61.2723 19.5713V27.502C61.2723 29.1185 61.5254 30.4438 62.0399 31.4821C62.5503 32.5203 63.1998 33.3687 63.9928 34.0314C64.7857 34.6898 65.6757 35.1541 66.6627 35.4157C67.6496 35.6774 68.624 35.8125 69.5772 35.8125C70.6991 35.8125 71.7452 35.5888 72.7152 35.1456C73.6853 34.7024 74.5374 34.0989 75.2628 33.3392C75.9883 32.5794 76.5577 31.7142 76.9668 30.7434C77.3802 29.7727 77.5868 28.7386 77.5868 27.6539V25.476H72.5465V27.2065C72.5465 27.8987 72.4495 28.4769 72.2513 28.937C72.0531 29.397 71.8042 29.76 71.509 30.0259C71.18 30.2918 70.8257 30.4818 70.4461 30.5957C70.0665 30.7097 69.7122 30.7688 69.3832 30.7688C68.2275 30.7688 67.4303 30.4227 66.9874 29.7305C66.5446 29.0383 66.321 28.1815 66.321 27.1601V9.15044C66.321 7.96443 66.5277 6.98101 66.9368 6.20862C67.3502 5.43624 68.1811 5.04794 69.4338 5.04794C70.3912 5.04794 71.1462 5.41091 71.7072 6.13687C72.2682 6.86283 72.5465 7.71963 72.5465 8.70727V10.3913H77.5868V8.41182C77.5868 7.19204 77.3802 6.0609 76.9668 5.02261C76.5535 3.98432 75.9841 3.08532 75.2628 2.3256H75.2544Z" fill="white"/>
<path d="M91.7166 15.3843H85.4868V0.29541H80.4465V35.517H85.4868V19.8372H91.7166V35.517H96.7569V0.29541H91.7166V15.3843Z" fill="white"/>
<path d="M105.855 0.29541L97.9968 35.5128H103.037L104.522 27.9451H111.393L112.877 35.5128H117.918L110.056 0.29541H105.855ZM105.412 23.1968L107.883 10.4335H107.98L110.452 23.1968H105.412Z" fill="white"/>
<path d="M124.337 0.29541H119.297V35.5128H124.337V0.29541Z" fill="white"/>
<path d="M140.357 0.29541V21.517H140.26L132.646 0.29541H127.8V35.517H132.845V14.3461H132.942L140.652 35.517H145.397V0.29541H140.357Z" fill="white"/>
</g>
<defs>
<clipPath id="clip0_183_1372">
<rect width="146" height="56" fill="white"/>
</clipPath>
</defs>
</svg>
