<svg width="793" height="680" viewBox="0 0 793 680" fill="none" xmlns="http://www.w3.org/2000/svg">
<path d="M229.909 405.621L454.193 535.73" stroke="#333333" stroke-width="1.86957" stroke-linecap="round"/>
<path d="M113.996 474.795L338.279 604.904" stroke="#333333" stroke-width="1.86957" stroke-linecap="round"/>
<path d="M342.084 349.533L566.367 479.642" stroke="#333333" stroke-width="1.86957" stroke-linecap="round"/>
<path d="M446.78 280.359L671.063 410.468" stroke="#333333" stroke-width="1.86957" stroke-linecap="round"/>
<path d="M416.996 602.056L686.351 446.496" stroke="#333333" stroke-width="1.86957" stroke-linecap="round"/>
<path d="M258.388 515.663L527.743 360.104" stroke="#333333" stroke-width="1.86957" stroke-linecap="round"/>
<path d="M116.187 433.208L431.09 251.06" stroke="#333333" stroke-width="1.86957" stroke-linecap="round"/>
<path d="M415.758 308.899C414.989 309.345 414.039 309.345 413.269 308.898L341.383 267.155C339.738 266.2 339.738 263.824 341.383 262.869L413.269 221.126C414.039 220.679 414.989 220.679 415.758 221.126L487.654 262.869C489.299 263.824 489.299 266.2 487.654 267.155L415.758 308.899Z" fill="url(#paint0_linear_2_621)"/>
<g style="mix-blend-mode:multiply">
<path d="M414.524 290.595L369.172 264.409L414.524 238.224L459.881 264.409L414.524 290.595Z" fill="#2B2B2B" fill-opacity="0.15"/>
</g>
<path d="M414.52 225.043L370.529 199.64L414.52 174.244L458.517 199.64L414.52 225.043Z" fill="#7075FF"/>
<g style="mix-blend-mode:soft-light">
<path d="M397.908 206.848C398.131 206.998 398.365 207.146 398.594 207.289L398.594 207.289L398.6 207.293C398.663 207.331 398.727 207.368 398.786 207.402L398.791 207.405C398.849 207.439 398.902 207.469 398.955 207.501L398.955 207.501L398.963 207.506C398.968 207.509 398.974 207.512 398.979 207.515C399.04 207.551 399.122 207.598 399.213 207.642C403.102 209.805 408.097 210.871 413.061 210.871C418.024 210.871 423.019 209.805 426.908 207.642C426.999 207.598 427.081 207.551 427.142 207.515C427.147 207.512 427.152 207.509 427.157 207.507C427.176 207.496 427.196 207.484 427.215 207.473C427.313 207.417 427.419 207.356 427.525 207.291C427.761 207.145 427.991 206.997 428.212 206.849C428.595 206.594 428.958 206.324 429.294 206.052C429.426 205.95 429.556 205.841 429.671 205.744C429.695 205.724 429.718 205.704 429.741 205.685L429.741 205.685L429.749 205.678C430.494 205.028 431.123 204.337 431.629 203.619C431.761 203.436 431.88 203.25 431.987 203.076L431.988 203.073C432.772 201.785 433.175 200.423 433.175 199.044C433.175 195.87 431.07 192.831 427.155 190.581L427.012 190.498H427.007C423.104 188.3 418.064 187.219 413.057 187.219C407.989 187.219 402.886 188.327 398.963 190.58L398.963 190.58C395.042 192.834 392.948 195.875 392.943 199.044V199.044V199.044V199.044V199.044V199.044V199.044V199.044V199.044V199.044V199.044V199.044V199.044V199.044V199.044V199.044V199.045V199.045V199.045V199.045V199.045V199.045V199.045V199.045V199.045V199.045V199.045V199.045V199.045V199.045V199.045V199.045V199.045V199.045V199.045V199.045V199.045V199.045V199.045V199.045V199.045V199.045V199.045V199.046V199.046V199.046V199.046V199.046V199.046V199.046V199.046V199.046V199.046V199.046V199.046V199.046V199.046V199.046V199.046V199.046V199.046V199.046V199.046V199.046V199.046V199.046V199.046V199.046V199.046V199.046V199.047V199.047V199.047V199.047V199.047V199.047V199.047V199.047V199.047V199.047V199.047V199.047V199.047V199.047V199.047V199.047V199.047V199.047V199.047V199.047V199.047V199.047V199.047V199.047V199.047V199.047V199.047V199.048V199.048V199.048V199.048V199.048V199.048V199.048V199.048V199.048V199.048V199.048V199.048V199.048V199.048C392.943 199.053 392.943 199.058 392.943 199.063V199.317C392.943 199.381 392.951 199.437 392.954 199.461L392.958 199.488C392.968 199.661 392.985 199.83 393.009 200.001L393.009 200.001L393.01 200.008C393.022 200.092 393.036 200.196 393.058 200.304C393.09 200.488 393.131 200.667 393.172 200.836L393.172 200.836L393.176 200.849L393.177 200.855C393.198 200.931 393.222 201.022 393.251 201.113C393.307 201.297 393.368 201.486 393.44 201.678L393.44 201.678L393.442 201.685C393.456 201.72 393.471 201.754 393.482 201.781L393.483 201.783C393.495 201.812 393.504 201.834 393.512 201.854L393.512 201.854L393.514 201.86C393.602 202.079 393.701 202.3 393.814 202.522L393.814 202.522L393.82 202.533C393.829 202.549 393.837 202.565 393.846 202.582C393.912 202.705 393.985 202.841 394.069 202.98L394.074 202.99L394.08 202.999C394.095 203.022 394.11 203.046 394.131 203.08L394.132 203.083C394.15 203.112 394.173 203.149 394.197 203.186C394.283 203.322 394.382 203.474 394.489 203.623C395.315 204.789 396.459 205.876 397.908 206.848ZM397.908 206.848C397.908 206.848 397.908 206.848 397.908 206.847L398.254 206.334L397.909 206.848C397.909 206.848 397.908 206.848 397.908 206.848Z" fill="#00FFCC" stroke="#00EABB" stroke-width="1.23913"/>
<path d="M423.582 198.365C424.143 197.886 424.899 197.525 425.752 197.326L414.911 191.05C414.815 190.994 414.701 190.951 414.578 190.924C414.455 190.898 414.325 190.888 414.194 190.895C414.064 190.902 413.936 190.927 413.818 190.967C413.7 191.007 413.594 191.062 413.506 191.129L411.423 192.728C411.336 192.796 411.269 192.873 411.225 192.957C411.182 193.04 411.164 193.128 411.171 193.215C411.179 193.302 411.212 193.387 411.269 193.465C411.325 193.542 411.405 193.611 411.502 193.667L422.343 199.943C422.518 199.352 422.949 198.803 423.582 198.365" fill="#141BEB"/>
<path d="M406.328 194.367C405.766 194.845 405.011 195.207 404.156 195.404L414.997 201.681C415.094 201.737 415.207 201.78 415.331 201.806C415.454 201.833 415.584 201.843 415.715 201.836C415.845 201.828 415.973 201.804 416.091 201.764C416.209 201.724 416.315 201.669 416.403 201.602L418.486 200.002C418.573 199.935 418.64 199.858 418.683 199.774C418.726 199.69 418.745 199.603 418.737 199.515C418.73 199.428 418.697 199.343 418.64 199.266C418.584 199.188 418.504 199.12 418.407 199.064L407.566 192.787C407.391 193.379 406.96 193.928 406.326 194.366" fill="#141BEB"/>
<path d="M414.678 205.199C415.24 204.719 415.995 204.358 416.849 204.16L406.008 197.883C405.911 197.827 405.798 197.784 405.675 197.757C405.552 197.731 405.421 197.721 405.291 197.728C405.16 197.735 405.032 197.76 404.914 197.8C404.796 197.84 404.69 197.895 404.602 197.962L402.519 199.561C402.432 199.629 402.365 199.706 402.322 199.79C402.279 199.873 402.26 199.961 402.268 200.048C402.275 200.136 402.308 200.22 402.365 200.298C402.422 200.375 402.501 200.444 402.598 200.5L413.439 206.776C413.614 206.185 414.046 205.636 414.679 205.198" fill="#141BEB"/>
</g>
<path d="M414.521 225.963C414.36 225.963 414.205 225.919 414.062 225.838L370.065 200.436C369.779 200.268 369.605 199.963 369.605 199.634C369.605 199.305 369.779 199.001 370.065 198.833L414.062 173.442C414.347 173.275 414.702 173.275 414.987 173.442L458.984 198.845C459.27 199.013 459.444 199.317 459.444 199.647C459.444 199.976 459.27 200.28 458.984 200.448L414.987 225.851C414.844 225.932 414.683 225.975 414.528 225.975L414.521 225.963ZM372.376 199.64L414.521 223.975L456.667 199.64L414.521 175.306L372.376 199.64Z" fill="#0D129E"/>
<path d="M414.519 224.801L370.522 199.64V250.197L414.519 275.6L458.516 250.197V199.64L414.519 224.801Z" fill="#464CFF"/>
<path d="M458.786 250.818L414.026 276.265V225.377L458.786 200.173V250.818Z" fill="#141BEB"/>
<path d="M414.522 276.52C414.36 276.52 414.205 276.477 414.062 276.396L370.065 250.993C369.779 250.825 369.605 250.521 369.605 250.192V199.64C369.605 199.311 369.779 199.007 370.065 198.839C370.351 198.671 370.699 198.671 370.984 198.839L414.522 223.733L458.059 198.839C458.344 198.678 458.692 198.678 458.978 198.839C459.264 199.007 459.438 199.311 459.438 199.64V250.198C459.438 250.527 459.264 250.831 458.978 250.999L414.981 276.402C414.838 276.483 414.677 276.526 414.522 276.526V276.52ZM371.45 249.663L414.522 274.532L457.593 249.663V201.237L414.981 225.602C414.696 225.764 414.348 225.764 414.062 225.602L371.45 201.237V249.67V249.663Z" fill="#0D129E"/>
<path d="M414.522 276.52C414.013 276.52 413.597 276.104 413.597 275.594V224.795C413.597 224.285 414.013 223.869 414.522 223.869C415.032 223.869 415.448 224.285 415.448 224.795V275.594C415.448 276.104 415.032 276.52 414.522 276.52Z" fill="#0D129E"/>
<path d="M559.499 391.931C558.731 392.372 557.787 392.369 557.021 391.925L485.235 350.242C483.565 349.273 483.596 346.851 485.29 345.924L559.475 305.352C560.252 304.927 561.198 304.949 561.955 305.411L630.271 347.092C631.879 348.074 631.848 350.42 630.213 351.357L559.499 391.931Z" fill="url(#paint1_linear_2_621)"/>
<g style="mix-blend-mode:multiply">
<path d="M558.263 374.855L512.912 348.67L558.263 322.484L603.62 348.67L558.263 374.855Z" fill="#2B2B2B" fill-opacity="0.15"/>
</g>
<path d="M558.259 275.173L514.269 249.77L558.259 224.373L602.256 249.77L558.259 275.173Z" fill="#00EDBE"/>
<path d="M558.261 276.093C558.099 276.093 557.944 276.05 557.801 275.969L513.804 250.566C513.519 250.398 513.345 250.094 513.345 249.764C513.345 249.435 513.519 249.131 513.804 248.963L557.801 223.573C558.087 223.405 558.441 223.405 558.727 223.573L602.724 248.975C603.01 249.143 603.183 249.448 603.183 249.777C603.183 250.106 603.01 250.411 602.724 250.578L558.727 275.981C558.584 276.062 558.422 276.105 558.267 276.105L558.261 276.093ZM516.115 249.771L558.261 274.105L600.406 249.771L558.261 225.436L516.115 249.771Z" fill="#0D129E"/>
<path d="M558.258 274.931L514.261 249.771V300.328L558.258 325.731L602.255 300.328V249.771L558.258 274.931Z" fill="#464CFF"/>
<path d="M602.526 300.948L557.765 326.395V275.507L602.526 250.303V300.948Z" fill="#141BEB"/>
<path d="M558.261 326.651C558.099 326.651 557.944 326.607 557.801 326.526L513.804 301.123C513.519 300.956 513.345 300.651 513.345 300.322V249.771C513.345 249.442 513.519 249.137 513.804 248.97C514.09 248.802 514.438 248.802 514.724 248.97L558.261 273.863L601.798 248.97C602.084 248.808 602.432 248.808 602.718 248.97C603.003 249.137 603.177 249.442 603.177 249.771V300.328C603.177 300.657 603.003 300.962 602.718 301.13L558.721 326.533C558.578 326.613 558.416 326.657 558.261 326.657V326.651ZM515.19 299.794L558.261 324.663L601.332 299.794V251.368L558.721 275.733C558.435 275.894 558.087 275.894 557.801 275.733L515.19 251.368V299.8V299.794Z" fill="#0D129E"/>
<path d="M558.262 326.65C557.752 326.65 557.336 326.234 557.336 325.725V274.925C557.336 274.416 557.752 273.999 558.262 273.999C558.771 273.999 559.187 274.416 559.187 274.925V325.725C559.187 326.234 558.771 326.65 558.262 326.65Z" fill="#0D129E"/>
<path d="M542.776 257.327C542.999 257.477 543.232 257.625 543.462 257.768L543.462 257.768L543.467 257.771C543.531 257.81 543.595 257.847 543.654 257.881L543.658 257.884C543.717 257.917 543.77 257.948 543.822 257.98L543.822 257.98L543.831 257.985C543.836 257.988 543.841 257.991 543.847 257.994C543.908 258.03 543.99 258.077 544.081 258.12C547.97 260.284 552.965 261.35 557.928 261.35C562.892 261.35 567.887 260.284 571.776 258.12C571.867 258.077 571.948 258.03 572.01 257.994C572.015 257.991 572.02 257.988 572.025 257.985C572.044 257.974 572.063 257.963 572.083 257.952C572.181 257.896 572.287 257.835 572.392 257.769C572.629 257.624 572.859 257.476 573.08 257.327C573.463 257.073 573.825 256.803 574.161 256.531C574.294 256.429 574.423 256.32 574.538 256.223C574.562 256.202 574.586 256.183 574.608 256.164L574.608 256.164L574.617 256.156C575.361 255.507 575.99 254.816 576.497 254.098C576.629 253.915 576.748 253.729 576.855 253.554L576.856 253.552C577.64 252.264 578.042 250.902 578.042 249.523C578.042 246.349 575.938 243.31 572.023 241.059L571.88 240.977H571.875C567.971 238.779 562.932 237.697 557.925 237.697C552.856 237.697 547.754 238.806 543.83 241.059L543.83 241.059C539.909 243.312 537.816 246.353 537.811 249.523V249.523V249.523V249.523V249.523V249.523V249.523V249.523V249.523V249.523V249.523V249.523V249.523V249.523V249.523V249.523V249.523V249.523V249.523V249.523V249.523V249.523V249.524V249.524V249.524V249.524V249.524V249.524V249.524V249.524V249.524V249.524V249.524V249.524V249.524V249.524V249.524V249.524V249.524V249.524V249.524V249.524V249.524V249.524V249.524V249.524V249.524V249.524V249.524V249.525V249.525V249.525V249.525V249.525V249.525V249.525V249.525V249.525V249.525V249.525V249.525V249.525V249.525V249.525V249.525V249.525V249.525V249.525V249.525V249.525V249.525V249.525V249.525V249.525V249.525V249.525V249.525V249.526V249.526V249.526V249.526V249.526V249.526V249.526V249.526V249.526V249.526V249.526V249.526V249.526V249.526V249.526V249.526V249.526V249.526V249.526V249.526V249.526V249.526V249.526V249.526V249.526V249.526V249.526V249.527V249.527V249.527V249.527V249.527V249.527V249.527C537.811 249.532 537.811 249.537 537.811 249.542V249.796C537.811 249.86 537.818 249.915 537.822 249.94L537.825 249.967C537.836 250.14 537.853 250.308 537.877 250.479L537.877 250.48L537.878 250.487C537.889 250.571 537.904 250.675 537.926 250.782C537.957 250.966 537.998 251.145 538.04 251.315L538.04 251.315L538.043 251.328L538.045 251.334C538.066 251.41 538.09 251.501 538.119 251.591C538.175 251.776 538.235 251.965 538.307 252.156L538.307 252.156L538.31 252.163C538.324 252.199 538.338 252.233 538.349 252.259L538.35 252.262C538.363 252.291 538.372 252.313 538.379 252.333L538.379 252.333L538.382 252.338C538.47 252.558 538.569 252.778 538.682 253L538.682 253L538.688 253.012C538.696 253.028 538.705 253.044 538.714 253.061C538.779 253.183 538.853 253.32 538.936 253.459L538.942 253.469L538.948 253.478C538.963 253.501 538.978 253.525 538.998 253.559L539 253.561C539.018 253.591 539.041 253.628 539.065 253.665C539.151 253.801 539.249 253.953 539.357 254.102C540.182 255.267 541.327 256.355 542.776 257.327ZM542.776 257.327C542.776 257.326 542.775 257.326 542.775 257.326L543.121 256.812L542.776 257.327C542.776 257.327 542.776 257.327 542.776 257.327Z" fill="#00FFCC" stroke="#00EABB" stroke-width="1.23913"/>
<path d="M568.45 248.844C569.011 248.365 569.766 248.003 570.62 247.805L559.779 241.529C559.682 241.472 559.569 241.43 559.446 241.403C559.323 241.376 559.192 241.366 559.062 241.374C558.931 241.381 558.804 241.406 558.685 241.446C558.567 241.486 558.461 241.541 558.374 241.608L556.29 243.207C556.203 243.274 556.136 243.352 556.093 243.435C556.05 243.519 556.032 243.607 556.039 243.694C556.046 243.781 556.08 243.866 556.136 243.943C556.193 244.021 556.272 244.09 556.37 244.146L567.211 250.422C567.386 249.831 567.817 249.281 568.45 248.844" fill="#141BEB"/>
<path d="M551.196 244.845C550.634 245.324 549.878 245.685 549.024 245.883L559.865 252.159C559.962 252.216 560.075 252.259 560.198 252.285C560.321 252.312 560.452 252.322 560.582 252.314C560.713 252.307 560.841 252.283 560.959 252.242C561.077 252.202 561.183 252.147 561.27 252.08L563.354 250.481C563.441 250.414 563.508 250.336 563.551 250.253C563.594 250.169 563.613 250.081 563.605 249.994C563.598 249.907 563.565 249.822 563.508 249.745C563.451 249.667 563.372 249.599 563.274 249.543L552.433 243.266C552.259 243.858 551.827 244.407 551.194 244.844" fill="#141BEB"/>
<path d="M559.546 255.677C560.107 255.198 560.863 254.837 561.716 254.638L550.875 248.362C550.779 248.306 550.665 248.263 550.542 248.236C550.419 248.21 550.289 248.2 550.158 248.207C550.028 248.214 549.9 248.239 549.782 248.279C549.664 248.319 549.558 248.374 549.47 248.441L547.386 250.04C547.299 250.107 547.233 250.185 547.189 250.269C547.146 250.352 547.128 250.44 547.135 250.527C547.143 250.614 547.176 250.699 547.233 250.777C547.289 250.854 547.369 250.923 547.466 250.979L558.307 257.255C558.482 256.664 558.913 256.115 559.546 255.677" fill="#141BEB"/>
<path opacity="0.4" d="M513.65 20.229H602.867L578.085 250.708C578.085 250.708 576.036 260.621 558.258 260.621C540.481 260.621 538.432 250.708 538.432 250.708L513.65 20.229Z" fill="url(#paint2_linear_2_621)"/>
<path d="M718.458 480.188C717.708 480.619 716.788 480.628 716.03 480.212L644.448 440.929C642.756 440.001 642.727 437.582 644.396 436.613L715.085 395.596C715.847 395.154 716.787 395.15 717.553 395.585L788.262 435.741C789.93 436.687 789.936 439.088 788.274 440.044L718.458 480.188Z" fill="url(#paint3_linear_2_621)"/>
<g style="mix-blend-mode:multiply">
<path d="M716.868 464.072L671.517 437.887L716.868 411.701L762.226 437.887L716.868 464.072Z" fill="#2B2B2B" fill-opacity="0.15"/>
</g>
<path d="M716.868 398.521L672.877 373.118L716.868 347.721L760.865 373.118L716.868 398.521Z" fill="#7075FF"/>
<g style="mix-blend-mode:soft-light">
<path d="M700.773 380.717C700.996 380.867 701.23 381.016 701.459 381.159L701.459 381.159L701.465 381.162C701.528 381.201 701.593 381.238 701.651 381.271L701.656 381.274C701.714 381.308 701.767 381.339 701.82 381.37L701.82 381.37L701.828 381.375C701.833 381.378 701.839 381.381 701.844 381.384C701.906 381.42 701.987 381.468 702.078 381.511C705.967 383.674 710.962 384.74 715.926 384.74C720.889 384.74 725.884 383.674 729.773 381.511C729.864 381.468 729.946 381.42 730.007 381.384C730.012 381.381 730.017 381.379 730.022 381.376C730.041 381.365 730.061 381.354 730.081 381.342C730.178 381.286 730.284 381.225 730.39 381.16C730.626 381.015 730.857 380.866 731.077 380.718C731.46 380.463 731.823 380.193 732.159 379.921C732.292 379.819 732.421 379.71 732.536 379.613C732.56 379.593 732.583 379.573 732.606 379.554L732.606 379.554L732.614 379.547C733.359 378.897 733.988 378.206 734.494 377.489C734.626 377.305 734.745 377.119 734.852 376.945L734.853 376.943C735.637 375.654 736.04 374.293 736.04 372.913C736.04 369.739 733.935 366.701 730.021 364.45L729.877 364.367H729.872C725.969 362.17 720.929 361.088 715.922 361.088C710.854 361.088 705.751 362.197 701.828 364.45L701.828 364.45C697.907 366.703 695.813 369.744 695.808 372.913V372.913V372.913V372.913V372.913V372.913V372.913V372.913V372.913V372.914V372.914V372.914V372.914V372.914V372.914V372.914V372.914V372.914V372.914V372.914V372.914V372.914V372.914V372.914V372.914V372.914V372.914V372.914V372.914V372.914V372.914V372.914V372.914V372.914V372.914V372.914V372.915V372.915V372.915V372.915V372.915V372.915V372.915V372.915V372.915V372.915V372.915V372.915V372.915V372.915V372.915V372.915V372.915V372.915V372.915V372.915V372.915V372.915V372.915V372.915V372.915V372.915V372.915V372.916V372.916V372.916V372.916V372.916V372.916V372.916V372.916V372.916V372.916V372.916V372.916V372.916V372.916V372.916V372.916V372.916V372.916V372.916V372.916V372.916V372.916V372.916V372.916V372.916V372.916V372.916V372.917V372.917V372.917V372.917V372.917V372.917V372.917V372.917V372.917V372.917V372.917V372.917V372.917V372.917V372.917V372.917V372.917V372.917V372.917V372.917V372.917C695.808 372.922 695.808 372.927 695.808 372.932V373.186C695.808 373.251 695.816 373.306 695.819 373.33L695.823 373.357C695.833 373.53 695.85 373.699 695.874 373.87L695.874 373.87L695.875 373.878C695.887 373.961 695.901 374.065 695.923 374.173C695.955 374.357 695.996 374.536 696.037 374.705L696.037 374.705L696.041 374.719L696.042 374.724C696.063 374.8 696.088 374.891 696.116 374.982C696.172 375.167 696.233 375.355 696.305 375.547L696.305 375.547L696.308 375.554C696.321 375.589 696.336 375.623 696.347 375.65L696.348 375.652C696.36 375.682 696.369 375.703 696.377 375.723L696.377 375.723L696.379 375.729C696.467 375.948 696.566 376.169 696.679 376.391L696.679 376.391L696.685 376.402C696.694 376.418 696.702 376.435 696.711 376.451C696.777 376.574 696.85 376.711 696.934 376.85L696.939 376.859L696.946 376.868C696.96 376.891 696.975 376.916 696.996 376.949L696.998 376.952C697.015 376.981 697.038 377.018 697.062 377.055C697.148 377.192 697.247 377.344 697.354 377.493C698.18 378.658 699.324 379.746 700.773 380.717ZM700.773 380.717C700.773 380.717 700.773 380.717 700.773 380.717L701.119 380.203L700.774 380.717C700.774 380.717 700.773 380.717 700.773 380.717Z" fill="#00FFCC" stroke="#00EABB" stroke-width="1.23913"/>
<path d="M726.447 372.235C727.008 371.756 727.764 371.394 728.617 371.196L717.776 364.919C717.68 364.863 717.566 364.82 717.443 364.794C717.32 364.767 717.19 364.757 717.059 364.764C716.929 364.772 716.801 364.796 716.683 364.836C716.565 364.876 716.459 364.931 716.371 364.998L714.288 366.598C714.201 366.665 714.134 366.742 714.09 366.826C714.047 366.91 714.029 366.997 714.036 367.085C714.044 367.172 714.077 367.256 714.134 367.334C714.19 367.411 714.27 367.48 714.367 367.536L725.208 373.812C725.383 373.221 725.814 372.672 726.448 372.234" fill="#141BEB"/>
<path d="M709.193 368.236C708.631 368.715 707.876 369.076 707.022 369.274L717.862 375.55C717.959 375.606 718.073 375.649 718.196 375.676C718.319 375.702 718.449 375.712 718.58 375.705C718.71 375.698 718.838 375.673 718.956 375.633C719.074 375.593 719.18 375.538 719.268 375.471L721.351 373.872C721.438 373.804 721.505 373.727 721.548 373.643C721.591 373.56 721.61 373.472 721.602 373.385C721.595 373.297 721.562 373.213 721.505 373.135C721.449 373.058 721.369 372.989 721.272 372.933L710.431 366.657C710.256 367.248 709.825 367.797 709.191 368.235" fill="#141BEB"/>
<path d="M717.543 379.068C718.105 378.589 718.86 378.227 719.714 378.029L708.873 371.753C708.776 371.696 708.663 371.653 708.54 371.627C708.417 371.6 708.286 371.59 708.156 371.597C708.025 371.605 707.897 371.629 707.779 371.669C707.661 371.709 707.555 371.765 707.467 371.831L705.384 373.431C705.297 373.498 705.23 373.576 705.187 373.659C705.144 373.743 705.125 373.831 705.133 373.918C705.14 374.005 705.173 374.09 705.23 374.167C705.287 374.245 705.366 374.313 705.464 374.369L716.305 380.646C716.479 380.054 716.911 379.505 717.544 379.068" fill="#141BEB"/>
</g>
<path d="M716.868 399.441C716.707 399.441 716.551 399.397 716.408 399.317L672.412 373.914C672.126 373.746 671.952 373.442 671.952 373.112C671.952 372.783 672.126 372.479 672.412 372.311L716.408 346.92C716.694 346.753 717.048 346.753 717.334 346.92L761.331 372.323C761.617 372.491 761.791 372.796 761.791 373.125C761.791 373.454 761.617 373.758 761.331 373.926L717.334 399.329C717.191 399.41 717.03 399.453 716.874 399.453L716.868 399.441ZM674.723 373.119L716.868 397.453L759.014 373.119L716.868 348.784L674.723 373.119Z" fill="#0D129E"/>
<path d="M716.867 398.279L672.87 373.119V423.676L716.867 449.079L760.864 423.676V373.119L716.867 398.279Z" fill="#464CFF"/>
<path d="M761.133 424.296L716.372 449.744V398.855L761.133 373.651V424.296Z" fill="#141BEB"/>
<path d="M716.868 449.998C716.707 449.998 716.551 449.955 716.408 449.874L672.412 424.471C672.126 424.303 671.952 423.999 671.952 423.67V373.119C671.952 372.789 672.126 372.485 672.412 372.317C672.697 372.15 673.045 372.15 673.331 372.317L716.868 397.211L760.405 372.317C760.691 372.156 761.039 372.156 761.325 372.317C761.611 372.485 761.784 372.789 761.784 373.119V423.676C761.784 424.005 761.611 424.31 761.325 424.477L717.328 449.88C717.185 449.961 717.023 450.005 716.868 450.005V449.998ZM673.797 423.142L716.868 448.01L759.939 423.142V374.715L717.328 399.081C717.042 399.242 716.694 399.242 716.408 399.081L673.797 374.715V423.148V423.142Z" fill="#0D129E"/>
<path d="M716.869 449.998C716.36 449.998 715.943 449.582 715.943 449.072V398.273C715.943 397.763 716.36 397.347 716.869 397.347C717.378 397.347 717.795 397.763 717.795 398.273V449.072C717.795 449.582 717.378 449.998 716.869 449.998Z" fill="#0D129E"/>
<path d="M306.717 372.105C305.949 372.546 305.005 372.543 304.239 372.099L232.452 330.416C230.783 329.447 230.814 327.025 232.508 326.098L306.692 285.526C307.47 285.101 308.416 285.123 309.172 285.585L377.489 327.266C379.097 328.248 379.065 330.594 377.431 331.531L306.717 372.105Z" fill="url(#paint4_linear_2_621)"/>
<g style="mix-blend-mode:multiply">
<path d="M303.001 355.03L257.65 328.844L303.001 302.659L348.359 328.844L303.001 355.03Z" fill="#2B2B2B" fill-opacity="0.15"/>
</g>
<path d="M303.001 255.348L259.011 229.945L303.001 204.548L346.998 229.945L303.001 255.348Z" fill="#00EDBE"/>
<path d="M303.001 256.268C302.84 256.268 302.684 256.224 302.541 256.143L258.545 230.74C258.259 230.573 258.085 230.268 258.085 229.939C258.085 229.61 258.259 229.305 258.545 229.138L302.541 203.747C302.827 203.579 303.181 203.579 303.467 203.747L347.464 229.15C347.75 229.318 347.924 229.622 347.924 229.951C347.924 230.281 347.75 230.585 347.464 230.753L303.467 256.156C303.324 256.236 303.163 256.28 303.007 256.28L303.001 256.268ZM260.856 229.945L303.001 254.28L345.147 229.945L303.001 205.611L260.856 229.945Z" fill="#0D129E"/>
<path d="M303 255.105L259.003 229.945V280.502L303 305.905L346.997 280.502V229.945L303 255.105Z" fill="#464CFF"/>
<path d="M347.266 281.123L302.506 306.57V255.682L347.266 230.477V281.123Z" fill="#141BEB"/>
<path d="M303.001 306.825C302.84 306.825 302.684 306.781 302.541 306.7L258.545 281.298C258.259 281.13 258.085 280.825 258.085 280.496V229.945C258.085 229.616 258.259 229.311 258.545 229.144C258.83 228.976 259.178 228.976 259.464 229.144L303.001 254.037L346.538 229.144C346.824 228.982 347.172 228.982 347.458 229.144C347.744 229.311 347.918 229.616 347.918 229.945V280.502C347.918 280.832 347.744 281.136 347.458 281.304L303.461 306.707C303.318 306.787 303.157 306.831 303.001 306.831V306.825ZM259.93 279.968L303.001 304.837L346.072 279.968V231.542L303.461 255.907C303.175 256.069 302.827 256.069 302.541 255.907L259.93 231.542V279.974V279.968Z" fill="#0D129E"/>
<path d="M303.002 306.824C302.493 306.824 302.076 306.408 302.076 305.899V255.099C302.076 254.59 302.493 254.174 303.002 254.174C303.511 254.174 303.928 254.59 303.928 255.099V305.899C303.928 306.408 303.511 306.824 303.002 306.824Z" fill="#0D129E"/>
<path d="M287.52 237.5C287.743 237.65 287.976 237.799 288.206 237.941L288.206 237.941L288.211 237.945C288.275 237.983 288.339 238.021 288.397 238.054L288.402 238.057C288.461 238.091 288.514 238.121 288.566 238.153L288.566 238.153L288.575 238.158C288.58 238.161 288.585 238.164 288.59 238.167C288.652 238.203 288.734 238.251 288.824 238.294C292.714 240.457 297.708 241.523 302.672 241.523C307.636 241.523 312.63 240.457 316.52 238.294C316.611 238.251 316.692 238.203 316.754 238.167C316.759 238.164 316.764 238.161 316.769 238.159C316.788 238.148 316.807 238.136 316.827 238.125C316.925 238.069 317.031 238.008 317.136 237.943C317.373 237.797 317.603 237.649 317.823 237.501C318.207 237.246 318.569 236.976 318.905 236.704C319.038 236.602 319.167 236.493 319.282 236.396C319.306 236.376 319.329 236.356 319.352 236.337L319.352 236.337L319.361 236.33C320.105 235.68 320.734 234.989 321.241 234.271C321.373 234.088 321.491 233.902 321.598 233.728L321.6 233.726C322.384 232.437 322.786 231.075 322.786 229.696C322.786 226.522 320.682 223.483 316.767 221.233L316.624 221.15H316.619C312.715 218.953 307.676 217.871 302.669 217.871C297.6 217.871 292.498 218.98 288.574 221.232L288.574 221.233C284.653 223.486 282.56 226.527 282.555 229.696V229.696V229.696V229.696V229.696V229.696V229.696V229.696V229.696V229.696V229.696V229.696V229.696V229.697V229.697V229.697V229.697V229.697V229.697V229.697V229.697V229.697V229.697V229.697V229.697V229.697V229.697V229.697V229.697V229.697V229.697V229.697V229.697V229.697V229.697V229.697V229.697V229.697V229.697V229.697V229.698V229.698V229.698V229.698V229.698V229.698V229.698V229.698V229.698V229.698V229.698V229.698V229.698V229.698V229.698V229.698V229.698V229.698V229.698V229.698V229.698V229.698V229.698V229.698V229.698V229.698V229.698V229.699V229.699V229.699V229.699V229.699V229.699V229.699V229.699V229.699V229.699V229.699V229.699V229.699V229.699V229.699V229.699V229.699V229.699V229.699V229.699V229.699V229.699V229.699V229.699V229.699V229.699V229.699V229.699V229.7V229.7V229.7V229.7V229.7V229.7V229.7V229.7V229.7V229.7V229.7V229.7V229.7V229.7V229.7V229.7C282.555 229.705 282.555 229.71 282.555 229.715V229.969C282.555 230.034 282.562 230.089 282.565 230.113L282.569 230.14C282.58 230.313 282.597 230.482 282.62 230.653L282.621 230.653L282.622 230.66C282.633 230.744 282.648 230.848 282.669 230.956C282.701 231.14 282.742 231.319 282.784 231.488L282.784 231.488L282.787 231.501L282.789 231.507C282.809 231.583 282.834 231.674 282.863 231.765C282.918 231.95 282.979 232.138 283.051 232.33L283.051 232.33L283.054 232.337C283.068 232.372 283.082 232.406 283.093 232.433L283.094 232.435C283.107 232.465 283.115 232.486 283.123 232.506L283.123 232.506L283.126 232.512C283.214 232.731 283.313 232.952 283.426 233.174L283.426 233.174L283.432 233.185C283.44 233.201 283.449 233.217 283.458 233.234C283.523 233.357 283.596 233.493 283.68 233.632L283.686 233.642L283.692 233.651C283.707 233.674 283.722 233.698 283.742 233.732L283.744 233.735C283.762 233.764 283.785 233.801 283.809 233.838C283.895 233.975 283.993 234.127 284.101 234.275C284.926 235.441 286.071 236.528 287.52 237.5ZM287.52 237.5C287.52 237.5 287.519 237.5 287.519 237.5L287.865 236.986L287.52 237.5C287.52 237.5 287.52 237.5 287.52 237.5Z" fill="#00FFCC" stroke="#00EABB" stroke-width="1.23913"/>
<path d="M313.194 229.018C313.755 228.538 314.51 228.177 315.364 227.979L304.523 221.702C304.426 221.646 304.313 221.603 304.19 221.576C304.067 221.55 303.936 221.54 303.806 221.547C303.675 221.554 303.547 221.579 303.429 221.619C303.311 221.659 303.205 221.714 303.118 221.781L301.034 223.38C300.947 223.448 300.88 223.525 300.837 223.609C300.794 223.692 300.776 223.78 300.783 223.867C300.79 223.955 300.823 224.039 300.88 224.117C300.937 224.194 301.016 224.263 301.114 224.319L311.955 230.595C312.13 230.004 312.561 229.455 313.194 229.017" fill="#141BEB"/>
<path d="M295.94 225.019C295.378 225.498 294.622 225.859 293.768 226.056L304.609 232.333C304.706 232.389 304.819 232.432 304.942 232.459C305.065 232.485 305.196 232.495 305.326 232.488C305.457 232.48 305.585 232.456 305.703 232.416C305.821 232.376 305.927 232.321 306.014 232.254L308.098 230.655C308.185 230.587 308.252 230.51 308.295 230.426C308.338 230.342 308.356 230.255 308.349 230.167C308.342 230.08 308.309 229.996 308.252 229.918C308.195 229.841 308.116 229.772 308.018 229.716L297.177 223.44C297.002 224.031 296.571 224.58 295.938 225.018" fill="#141BEB"/>
<path d="M304.29 235.851C304.851 235.371 305.606 235.01 306.46 234.812L295.619 228.535C295.522 228.479 295.409 228.436 295.286 228.409C295.163 228.383 295.033 228.373 294.902 228.38C294.772 228.388 294.644 228.412 294.526 228.452C294.408 228.492 294.302 228.547 294.214 228.614L292.13 230.213C292.043 230.281 291.976 230.358 291.933 230.442C291.89 230.526 291.872 230.613 291.879 230.701C291.887 230.788 291.92 230.872 291.976 230.95C292.033 231.027 292.113 231.096 292.21 231.152L303.051 237.428C303.226 236.837 303.657 236.288 304.29 235.85" fill="#141BEB"/>
<path opacity="0.4" d="M258.39 0.403198H347.607L322.825 230.882C322.825 230.882 320.776 240.795 302.999 240.795C285.221 240.795 283.172 230.882 283.172 230.882L258.39 0.403198Z" fill="url(#paint5_linear_2_621)"/>
<path d="M450.457 456.367C449.689 456.807 448.744 456.805 447.979 456.36L376.192 414.678C374.522 413.708 374.553 411.286 376.247 410.36L450.432 369.788C451.21 369.362 452.155 369.385 452.912 369.846L521.228 411.528C522.837 412.509 522.805 414.855 521.171 415.793L450.457 456.367Z" fill="url(#paint6_linear_2_621)"/>
<g style="mix-blend-mode:multiply">
<path d="M446.741 439.291L401.39 413.106L446.741 386.92L492.098 413.106L446.741 439.291Z" fill="#2B2B2B" fill-opacity="0.15"/>
</g>
<path d="M446.739 373.74L402.748 348.337L446.739 322.94L490.736 348.337L446.739 373.74Z" fill="#7075FF"/>
<g style="mix-blend-mode:soft-light">
<path d="M431.562 356.413C431.785 356.564 432.019 356.712 432.248 356.855L432.248 356.855L432.254 356.858C432.317 356.897 432.381 356.934 432.44 356.968L432.445 356.971C432.503 357.004 432.556 357.035 432.609 357.067L432.609 357.067L432.617 357.072C432.622 357.075 432.628 357.078 432.633 357.081C432.694 357.117 432.776 357.164 432.867 357.207C436.756 359.371 441.751 360.436 446.715 360.436C451.678 360.436 456.673 359.371 460.562 357.207C460.653 357.164 460.735 357.117 460.796 357.081C460.801 357.078 460.806 357.075 460.811 357.072C460.83 357.061 460.85 357.05 460.869 357.039C460.967 356.982 461.073 356.921 461.179 356.856C461.415 356.711 461.645 356.563 461.866 356.414C462.249 356.16 462.612 355.89 462.948 355.617C463.08 355.516 463.21 355.407 463.325 355.309C463.349 355.289 463.372 355.27 463.394 355.251L463.395 355.251L463.403 355.243C464.148 354.594 464.777 353.903 465.283 353.185C465.415 353.002 465.534 352.816 465.641 352.641L465.642 352.639C466.426 351.351 466.829 349.989 466.829 348.61C466.829 345.436 464.724 342.397 460.809 340.146L460.666 340.064H460.661C456.758 337.866 451.718 336.784 446.711 336.784C441.643 336.784 436.54 337.893 432.617 340.146L432.617 340.146C428.696 342.399 426.602 345.44 426.597 348.61V348.61V348.61V348.61V348.61V348.61V348.61V348.61V348.61V348.61V348.61V348.61V348.61V348.61V348.61V348.61V348.61V348.61V348.61V348.61V348.61V348.61V348.61V348.61V348.61V348.611V348.611V348.611V348.611V348.611V348.611V348.611V348.611V348.611V348.611V348.611V348.611V348.611V348.611V348.611V348.611V348.611V348.611V348.611V348.611V348.611V348.611V348.611V348.611V348.611V348.611V348.611V348.612V348.612V348.612V348.612V348.612V348.612V348.612V348.612V348.612V348.612V348.612V348.612V348.612V348.612V348.612V348.612V348.612V348.612V348.612V348.612V348.612V348.612V348.612V348.612V348.612V348.612V348.612V348.613V348.613V348.613V348.613V348.613V348.613V348.613V348.613V348.613V348.613V348.613V348.613V348.613V348.613V348.613V348.613V348.613V348.613V348.613V348.613V348.613V348.613V348.613V348.613V348.613V348.613V348.613V348.614V348.614V348.614V348.614V348.614C426.597 348.619 426.597 348.624 426.597 348.629V348.883C426.597 348.947 426.605 349.002 426.608 349.027L426.612 349.054C426.622 349.226 426.639 349.395 426.663 349.566L426.663 349.567L426.664 349.574C426.675 349.658 426.69 349.762 426.712 349.869C426.744 350.053 426.785 350.232 426.826 350.401L426.826 350.401L426.83 350.415L426.831 350.42C426.852 350.497 426.876 350.588 426.905 350.678C426.961 350.863 427.022 351.052 427.094 351.243L427.094 351.243L427.096 351.25C427.11 351.285 427.124 351.32 427.136 351.346L427.137 351.349C427.149 351.378 427.158 351.399 427.166 351.42L427.166 351.42L427.168 351.425C427.256 351.644 427.355 351.865 427.468 352.087L427.468 352.087L427.474 352.098C427.483 352.115 427.491 352.131 427.5 352.148C427.566 352.27 427.639 352.407 427.723 352.546L427.728 352.556L427.734 352.565C427.749 352.588 427.764 352.612 427.785 352.645L427.786 352.648C427.804 352.678 427.827 352.714 427.851 352.752C427.937 352.888 428.036 353.04 428.143 353.189C428.969 354.354 430.113 355.442 431.562 356.413ZM431.562 356.413C431.562 356.413 431.562 356.413 431.562 356.413L431.908 355.899L431.563 356.414C431.562 356.414 431.562 356.414 431.562 356.413Z" fill="#00FFCC" stroke="#00EABB" stroke-width="1.23913"/>
<path d="M457.236 347.931C457.797 347.452 458.553 347.09 459.406 346.892L448.565 340.616C448.468 340.559 448.355 340.517 448.232 340.49C448.109 340.463 447.979 340.453 447.848 340.461C447.718 340.468 447.59 340.492 447.472 340.533C447.354 340.573 447.248 340.628 447.16 340.695L445.076 342.294C444.989 342.361 444.923 342.439 444.879 342.522C444.836 342.606 444.818 342.694 444.825 342.781C444.833 342.868 444.866 342.953 444.923 343.03C444.979 343.108 445.059 343.177 445.156 343.233L455.997 349.509C456.172 348.918 456.603 348.368 457.236 347.931" fill="#141BEB"/>
<path d="M439.982 343.932C439.42 344.411 438.664 344.772 437.81 344.97L448.651 351.246C448.748 351.303 448.861 351.346 448.984 351.372C449.108 351.399 449.238 351.409 449.369 351.401C449.499 351.394 449.627 351.37 449.745 351.329C449.863 351.289 449.969 351.234 450.057 351.167L452.14 349.568C452.227 349.501 452.294 349.423 452.337 349.34C452.38 349.256 452.399 349.168 452.391 349.081C452.384 348.994 452.351 348.909 452.294 348.832C452.237 348.754 452.158 348.685 452.061 348.629L441.22 342.353C441.045 342.944 440.613 343.494 439.98 343.931" fill="#141BEB"/>
<path d="M448.332 354.764C448.894 354.285 449.649 353.923 450.503 353.725L439.662 347.449C439.565 347.392 439.452 347.35 439.329 347.323C439.206 347.296 439.075 347.287 438.945 347.294C438.814 347.301 438.686 347.326 438.568 347.366C438.45 347.406 438.344 347.461 438.256 347.528L436.173 349.127C436.086 349.194 436.019 349.272 435.976 349.356C435.933 349.439 435.914 349.527 435.922 349.614C435.929 349.701 435.962 349.786 436.019 349.863C436.076 349.941 436.155 350.01 436.252 350.066L447.093 356.342C447.268 355.751 447.7 355.201 448.333 354.764" fill="#141BEB"/>
</g>
<path d="M446.741 374.659C446.579 374.659 446.424 374.616 446.281 374.535L402.284 349.132C401.998 348.964 401.824 348.66 401.824 348.331C401.824 348.001 401.998 347.697 402.284 347.529L446.281 322.139C446.567 321.971 446.921 321.971 447.206 322.139L491.203 347.542C491.489 347.709 491.663 348.014 491.663 348.343C491.663 348.672 491.489 348.977 491.203 349.144L447.206 374.547C447.064 374.628 446.902 374.672 446.747 374.672L446.741 374.659ZM404.595 348.337L446.741 372.671L488.886 348.337L446.741 324.002L404.595 348.337Z" fill="#0D129E"/>
<path d="M446.738 373.497L402.741 348.337V398.894L446.738 424.297L490.735 398.894V348.337L446.738 373.497Z" fill="#464CFF"/>
<path d="M491.005 399.514L446.245 424.962V374.073L491.005 348.869V399.514Z" fill="#141BEB"/>
<path d="M446.741 425.216C446.579 425.216 446.424 425.173 446.281 425.092L402.284 399.689C401.998 399.521 401.824 399.217 401.824 398.888V348.337C401.824 348.007 401.998 347.703 402.284 347.535C402.57 347.367 402.918 347.367 403.203 347.535L446.741 372.429L490.278 347.535C490.563 347.374 490.911 347.374 491.197 347.535C491.483 347.703 491.657 348.007 491.657 348.337V398.894C491.657 399.223 491.483 399.528 491.197 399.695L447.2 425.098C447.057 425.179 446.896 425.222 446.741 425.222V425.216ZM403.669 398.36L446.741 423.228L489.812 398.36V349.933L447.2 374.299C446.914 374.46 446.567 374.46 446.281 374.299L403.669 349.933V398.366V398.36Z" fill="#0D129E"/>
<path d="M446.741 425.216C446.232 425.216 445.816 424.8 445.816 424.291V373.491C445.816 372.982 446.232 372.565 446.741 372.565C447.251 372.565 447.667 372.982 447.667 373.491V424.291C447.667 424.8 447.251 425.216 446.741 425.216Z" fill="#0D129E"/>
<path d="M607.239 544.676C606.478 545.114 605.543 545.116 604.78 544.683L534.048 504.514C532.384 503.569 532.373 501.176 534.028 500.216L604.76 459.174C605.533 458.725 606.488 458.727 607.259 459.18L677.118 500.222C678.757 501.186 678.746 503.56 677.098 504.508L607.239 544.676Z" fill="url(#paint7_linear_2_621)"/>
<g style="mix-blend-mode:multiply">
<path d="M605.344 528.508L559.993 502.322L605.344 476.137L650.702 502.322L605.344 528.508Z" fill="#2B2B2B" fill-opacity="0.15"/>
</g>
<path d="M605.343 428.826L561.352 403.424L605.343 378.027L649.34 403.424L605.343 428.826Z" fill="#00EDBE"/>
<path d="M605.344 429.746C605.183 429.746 605.028 429.702 604.885 429.621L560.888 404.218C560.602 404.051 560.428 403.746 560.428 403.417C560.428 403.088 560.602 402.783 560.888 402.616L604.885 377.225C605.17 377.057 605.525 377.057 605.81 377.225L649.807 402.628C650.093 402.796 650.267 403.1 650.267 403.429C650.267 403.759 650.093 404.063 649.807 404.231L605.81 429.634C605.667 429.715 605.506 429.758 605.351 429.758L605.344 429.746ZM563.199 403.423L605.344 427.758L647.49 403.423L605.344 379.089L563.199 403.423Z" fill="#0D129E"/>
<path d="M605.342 428.584L561.345 403.423V453.981L605.342 479.383L649.339 453.981V403.423L605.342 428.584Z" fill="#464CFF"/>
<path d="M649.609 454.601L604.849 480.049V429.16L649.609 403.956V454.601Z" fill="#141BEB"/>
<path d="M605.345 480.303C605.183 480.303 605.028 480.26 604.885 480.179L560.888 454.776C560.602 454.608 560.428 454.304 560.428 453.975V403.424C560.428 403.094 560.602 402.79 560.888 402.622C561.174 402.454 561.522 402.454 561.808 402.622L605.345 427.516L648.882 402.622C649.168 402.461 649.516 402.461 649.801 402.622C650.087 402.79 650.261 403.094 650.261 403.424V453.981C650.261 454.31 650.087 454.614 649.801 454.782L605.804 480.185C605.662 480.266 605.5 480.309 605.345 480.309V480.303ZM562.273 453.447L605.345 478.315L648.416 453.447V405.02L605.804 429.386C605.519 429.547 605.171 429.547 604.885 429.386L562.273 405.02V453.453V453.447Z" fill="#0D129E"/>
<path d="M605.346 480.303C604.836 480.303 604.42 479.887 604.42 479.377V428.578C604.42 428.068 604.836 427.652 605.346 427.652C605.855 427.652 606.271 428.068 606.271 428.578V479.377C606.271 479.887 605.855 480.303 605.346 480.303Z" fill="#0D129E"/>
<path d="M589.86 410.978C590.082 411.128 590.316 411.277 590.546 411.42L590.546 411.42L590.551 411.423C590.615 411.462 590.679 411.499 590.737 411.533L590.742 411.535C590.801 411.569 590.854 411.6 590.906 411.631L590.906 411.631L590.915 411.636C590.92 411.639 590.925 411.642 590.93 411.646C590.992 411.681 591.074 411.729 591.164 411.772C595.054 413.936 600.048 415.001 605.012 415.001C609.976 415.001 614.97 413.936 618.86 411.772C618.95 411.729 619.032 411.681 619.094 411.646C619.099 411.643 619.104 411.64 619.108 411.637C619.128 411.626 619.147 411.615 619.167 411.603C619.265 411.547 619.371 411.486 619.476 411.421C619.713 411.276 619.943 411.127 620.163 410.979C620.547 410.724 620.909 410.455 621.245 410.182C621.378 410.08 621.507 409.971 621.622 409.874C621.646 409.854 621.669 409.834 621.692 409.815L621.692 409.815L621.701 409.808C622.445 409.158 623.074 408.467 623.581 407.75C623.713 407.566 623.831 407.38 623.938 407.206L623.94 407.204C624.723 405.916 625.126 404.554 625.126 403.174C625.126 400 623.022 396.962 619.107 394.711L618.964 394.628H618.959C615.055 392.431 610.016 391.349 605.009 391.349C599.94 391.349 594.838 392.458 590.914 394.711L590.914 394.711C586.993 396.964 584.9 400.005 584.895 403.174V403.174V403.174V403.174V403.174V403.174V403.175V403.175V403.175V403.175V403.175V403.175V403.175V403.175V403.175V403.175V403.175V403.175V403.175V403.175V403.175V403.175V403.175V403.175V403.175V403.175V403.175V403.175V403.175V403.175V403.175V403.175V403.175V403.176V403.176V403.176V403.176V403.176V403.176V403.176V403.176V403.176V403.176V403.176V403.176V403.176V403.176V403.176V403.176V403.176V403.176V403.176V403.176V403.176V403.176V403.176V403.176V403.176V403.176V403.176V403.177V403.177V403.177V403.177V403.177V403.177V403.177V403.177V403.177V403.177V403.177V403.177V403.177V403.177V403.177V403.177V403.177V403.177V403.177V403.177V403.177V403.177V403.177V403.177V403.177V403.177V403.177V403.178V403.178V403.178V403.178V403.178V403.178V403.178V403.178V403.178V403.178V403.178V403.178V403.178V403.178V403.178V403.178V403.178V403.178V403.178V403.178V403.178V403.178V403.178V403.178C584.895 403.183 584.895 403.188 584.895 403.193V403.447C584.895 403.512 584.902 403.567 584.905 403.591L584.909 403.618C584.92 403.791 584.937 403.96 584.96 404.131L584.96 404.131L584.961 404.139C584.973 404.222 584.987 404.326 585.009 404.434C585.041 404.618 585.082 404.797 585.124 404.966L585.124 404.966L585.127 404.98L585.129 404.985C585.149 405.061 585.174 405.152 585.203 405.243C585.258 405.428 585.319 405.616 585.391 405.808L585.391 405.808L585.394 405.815C585.408 405.85 585.422 405.884 585.433 405.911L585.434 405.913C585.446 405.943 585.455 405.964 585.463 405.984L585.463 405.984L585.465 405.99C585.554 406.209 585.652 406.43 585.766 406.652L585.766 406.652L585.771 406.663C585.78 406.679 585.789 406.696 585.798 406.712C585.863 406.835 585.936 406.972 586.02 407.111L586.026 407.12L586.032 407.13C586.047 407.152 586.062 407.177 586.082 407.21L586.084 407.213C586.102 407.242 586.124 407.279 586.149 407.317C586.235 407.453 586.333 407.605 586.441 407.754C587.266 408.919 588.411 410.007 589.86 410.978ZM589.86 410.978C589.859 410.978 589.859 410.978 589.859 410.978L590.205 410.464L589.86 410.979C589.86 410.978 589.86 410.978 589.86 410.978Z" fill="#00FFCC" stroke="#00EABB" stroke-width="1.23913"/>
<path d="M615.534 402.496C616.095 402.017 616.85 401.655 617.704 401.457L606.863 395.18C606.766 395.124 606.653 395.081 606.53 395.055C606.407 395.028 606.276 395.018 606.146 395.025C606.015 395.033 605.887 395.057 605.769 395.097C605.651 395.137 605.545 395.193 605.458 395.259L603.374 396.859C603.287 396.926 603.22 397.004 603.177 397.087C603.134 397.171 603.115 397.259 603.123 397.346C603.13 397.433 603.163 397.518 603.22 397.595C603.277 397.673 603.356 397.741 603.454 397.797L614.295 404.074C614.469 403.482 614.901 402.933 615.534 402.496" fill="#141BEB"/>
<path d="M598.28 398.497C597.718 398.976 596.962 399.337 596.108 399.535L606.949 405.811C607.046 405.867 607.159 405.91 607.282 405.937C607.405 405.963 607.536 405.973 607.666 405.966C607.797 405.959 607.924 405.934 608.043 405.894C608.161 405.854 608.267 405.799 608.354 405.732L610.438 404.133C610.525 404.066 610.592 403.988 610.635 403.904C610.678 403.821 610.696 403.733 610.689 403.646C610.682 403.559 610.648 403.474 610.592 403.396C610.535 403.319 610.456 403.25 610.358 403.194L599.517 396.918C599.342 397.509 598.911 398.058 598.278 398.496" fill="#141BEB"/>
<path d="M606.63 409.329C607.191 408.85 607.946 408.488 608.8 408.29L597.959 402.014C597.862 401.957 597.749 401.914 597.626 401.888C597.503 401.861 597.373 401.851 597.242 401.859C597.112 401.866 596.984 401.89 596.866 401.93C596.747 401.971 596.642 402.026 596.554 402.092L594.47 403.692C594.383 403.759 594.316 403.837 594.273 403.92C594.23 404.004 594.212 404.092 594.219 404.179C594.227 404.266 594.26 404.351 594.316 404.428C594.373 404.506 594.452 404.574 594.55 404.63L605.391 410.907C605.566 410.315 605.997 409.766 606.63 409.329" fill="#141BEB"/>
<path opacity="0.4" d="M560.733 173.881H649.95L625.168 404.36C625.168 404.36 623.119 414.273 605.342 414.273C587.564 414.273 585.516 404.36 585.516 404.36L560.733 173.881Z" fill="url(#paint8_linear_2_621)"/>
<path d="M195.192 434.061C194.425 434.502 193.48 434.499 192.715 434.055L120.928 392.372C119.258 391.403 119.289 388.981 120.983 388.054L195.168 347.482C195.945 347.057 196.891 347.079 197.648 347.541L265.964 389.222C267.572 390.204 267.541 392.55 265.907 393.487L195.192 434.061Z" fill="url(#paint9_linear_2_621)"/>
<g style="mix-blend-mode:multiply">
<path d="M191.477 416.986L146.126 390.801L191.477 364.615L236.834 390.801L191.477 416.986Z" fill="#2B2B2B" fill-opacity="0.15"/>
</g>
<path d="M191.475 351.435L147.484 326.032L191.475 300.635L235.471 326.032L191.475 351.435Z" fill="#7075FF"/>
<g style="mix-blend-mode:soft-light">
<path d="M175.429 333.979C175.652 334.129 175.885 334.277 176.115 334.42L176.115 334.42L176.12 334.423C176.184 334.462 176.248 334.499 176.307 334.533L176.311 334.536C176.37 334.569 176.423 334.6 176.475 334.632L176.475 334.632L176.484 334.637C176.489 334.64 176.494 334.643 176.5 334.646C176.561 334.682 176.643 334.729 176.734 334.772C180.623 336.936 185.618 338.002 190.581 338.002C195.545 338.002 200.54 336.936 204.429 334.772C204.52 334.729 204.601 334.682 204.663 334.646C204.668 334.643 204.673 334.64 204.678 334.637C204.697 334.626 204.716 334.615 204.736 334.604C204.834 334.548 204.94 334.487 205.045 334.421C205.282 334.276 205.512 334.128 205.733 333.979C206.116 333.725 206.478 333.455 206.814 333.183C206.947 333.081 207.076 332.972 207.191 332.875C207.215 332.854 207.239 332.835 207.261 332.816L207.261 332.816L207.27 332.808C208.014 332.159 208.643 331.468 209.15 330.75C209.282 330.567 209.401 330.381 209.508 330.206L209.509 330.204C210.293 328.916 210.695 327.554 210.695 326.175C210.695 323.001 208.591 319.962 204.676 317.711L204.533 317.629H204.528C200.624 315.431 195.585 314.349 190.578 314.349C185.509 314.349 180.407 315.458 176.483 317.711L176.483 317.711C172.562 319.964 170.469 323.005 170.464 326.175V326.175V326.175V326.175V326.175V326.175V326.175V326.175V326.175V326.175V326.175V326.175V326.175V326.175V326.175V326.175V326.175V326.175V326.175V326.175V326.175V326.175V326.175V326.176V326.176V326.176V326.176V326.176V326.176V326.176V326.176V326.176V326.176V326.176V326.176V326.176V326.176V326.176V326.176V326.176V326.176V326.176V326.176V326.176V326.176V326.176V326.176V326.176V326.176V326.176V326.177V326.177V326.177V326.177V326.177V326.177V326.177V326.177V326.177V326.177V326.177V326.177V326.177V326.177V326.177V326.177V326.177V326.177V326.177V326.177V326.177V326.177V326.177V326.177V326.177V326.177V326.177V326.178V326.178V326.178V326.178V326.178V326.178V326.178V326.178V326.178V326.178V326.178V326.178V326.178V326.178V326.178V326.178V326.178V326.178V326.178V326.178V326.178V326.178V326.178V326.178V326.178V326.178V326.178V326.179V326.179V326.179V326.179V326.179V326.179V326.179C170.464 326.184 170.464 326.189 170.464 326.194V326.448C170.464 326.512 170.471 326.567 170.475 326.592L170.478 326.619C170.489 326.791 170.506 326.96 170.53 327.131L170.53 327.132L170.531 327.139C170.542 327.223 170.557 327.327 170.579 327.434C170.61 327.618 170.651 327.797 170.693 327.967L170.693 327.967L170.696 327.98L170.698 327.986C170.719 328.062 170.743 328.153 170.772 328.243C170.828 328.428 170.888 328.617 170.96 328.808L170.96 328.808L170.963 328.815C170.977 328.851 170.991 328.885 171.002 328.911L171.003 328.914C171.016 328.943 171.025 328.965 171.032 328.985L171.032 328.985L171.035 328.99C171.123 329.21 171.222 329.43 171.335 329.652L171.335 329.652L171.341 329.663C171.349 329.68 171.358 329.696 171.367 329.713C171.432 329.835 171.506 329.972 171.589 330.111L171.595 330.121L171.601 330.13C171.616 330.153 171.631 330.177 171.651 330.211L171.653 330.213C171.671 330.243 171.694 330.279 171.718 330.317C171.804 330.453 171.902 330.605 172.01 330.754C172.835 331.919 173.98 333.007 175.429 333.979ZM175.429 333.979C175.429 333.978 175.428 333.978 175.428 333.978L175.774 333.464L175.429 333.979C175.429 333.979 175.429 333.979 175.429 333.979Z" fill="#00FFCC" stroke="#00EABB" stroke-width="1.23913"/>
<path d="M201.103 325.496C201.664 325.017 202.419 324.655 203.273 324.457L192.432 318.181C192.335 318.124 192.222 318.082 192.099 318.055C191.976 318.028 191.845 318.018 191.715 318.026C191.584 318.033 191.457 318.058 191.338 318.098C191.22 318.138 191.114 318.193 191.027 318.26L188.943 319.859C188.856 319.926 188.789 320.004 188.746 320.087C188.703 320.171 188.685 320.259 188.692 320.346C188.7 320.433 188.733 320.518 188.789 320.595C188.846 320.673 188.925 320.742 189.023 320.798L199.864 327.074C200.039 326.483 200.47 325.933 201.103 325.496" fill="#141BEB"/>
<path d="M183.849 321.497C183.287 321.976 182.531 322.337 181.677 322.535L192.518 328.811C192.615 328.868 192.728 328.911 192.851 328.937C192.974 328.964 193.105 328.974 193.235 328.966C193.366 328.959 193.494 328.935 193.612 328.894C193.73 328.854 193.836 328.799 193.923 328.732L196.007 327.133C196.094 327.066 196.161 326.988 196.204 326.905C196.247 326.821 196.265 326.733 196.258 326.646C196.251 326.559 196.218 326.474 196.161 326.397C196.104 326.319 196.025 326.251 195.927 326.195L185.086 319.918C184.912 320.51 184.48 321.059 183.847 321.496" fill="#141BEB"/>
<path d="M192.199 332.329C192.76 331.85 193.516 331.488 194.369 331.29L183.528 325.014C183.432 324.957 183.318 324.915 183.195 324.888C183.072 324.862 182.942 324.852 182.811 324.859C182.681 324.866 182.553 324.891 182.435 324.931C182.317 324.971 182.211 325.026 182.123 325.093L180.04 326.692C179.953 326.759 179.886 326.837 179.842 326.921C179.799 327.004 179.781 327.092 179.788 327.179C179.796 327.266 179.829 327.351 179.886 327.429C179.942 327.506 180.022 327.575 180.119 327.631L190.96 333.907C191.135 333.316 191.566 332.767 192.199 332.329" fill="#141BEB"/>
</g>
<path d="M191.476 352.354C191.315 352.354 191.16 352.31 191.017 352.23L147.02 326.827C146.734 326.659 146.56 326.355 146.56 326.025C146.56 325.696 146.734 325.392 147.02 325.224L191.017 299.833C191.302 299.666 191.657 299.666 191.942 299.833L235.939 325.236C236.225 325.404 236.399 325.708 236.399 326.038C236.399 326.367 236.225 326.671 235.939 326.839L191.942 352.242C191.799 352.323 191.638 352.366 191.483 352.366L191.476 352.354ZM149.331 326.032L191.476 350.366L233.622 326.032L191.476 301.697L149.331 326.032Z" fill="#0D129E"/>
<path d="M191.473 351.192L147.476 326.031V376.589L191.473 401.991L235.47 376.589V326.031L191.473 351.192Z" fill="#464CFF"/>
<path d="M235.741 377.209L190.981 402.657V351.768L235.741 326.564V377.209Z" fill="#141BEB"/>
<path d="M191.476 402.911C191.315 402.911 191.159 402.868 191.017 402.787L147.02 377.384C146.734 377.216 146.56 376.912 146.56 376.583V326.032C146.56 325.702 146.734 325.398 147.02 325.23C147.305 325.063 147.653 325.063 147.939 325.23L191.476 350.124L235.013 325.23C235.299 325.069 235.647 325.069 235.933 325.23C236.219 325.398 236.393 325.702 236.393 326.032V376.589C236.393 376.918 236.219 377.223 235.933 377.39L191.936 402.793C191.793 402.874 191.632 402.918 191.476 402.918V402.911ZM148.405 376.055L191.476 400.923L234.548 376.055V327.628L191.936 351.994C191.65 352.155 191.302 352.155 191.017 351.994L148.405 327.628V376.061V376.055Z" fill="#0D129E"/>
<path d="M191.477 402.911C190.968 402.911 190.551 402.495 190.551 401.985V351.186C190.551 350.676 190.968 350.26 191.477 350.26C191.987 350.26 192.403 350.676 192.403 351.186V401.985C192.403 402.495 191.987 402.911 191.477 402.911Z" fill="#141BEB"/>
<path d="M336.455 518.322C335.687 518.763 334.742 518.76 333.977 518.316L262.19 476.633C260.52 475.664 260.551 473.242 262.245 472.315L336.43 431.743C337.208 431.318 338.153 431.34 338.91 431.802L407.226 473.483C408.835 474.465 408.803 476.811 407.169 477.748L336.455 518.322Z" fill="url(#paint10_linear_2_621)"/>
<g style="mix-blend-mode:multiply">
<path d="M332.741 501.247L287.39 475.061L332.741 448.875L378.098 475.061L332.741 501.247Z" fill="#2B2B2B" fill-opacity="0.15"/>
</g>
<path d="M332.737 382.869L288.746 357.466L332.737 332.069L376.734 357.466L332.737 382.869Z" fill="#00EDBE"/>
<path d="M332.739 383.789C332.577 383.789 332.422 383.745 332.279 383.664L288.282 358.261C287.996 358.094 287.822 357.789 287.822 357.46C287.822 357.131 287.996 356.826 288.282 356.659L332.279 331.268C332.565 331.1 332.919 331.1 333.204 331.268L377.201 356.671C377.487 356.839 377.661 357.143 377.661 357.472C377.661 357.802 377.487 358.106 377.201 358.274L333.204 383.677C333.062 383.757 332.9 383.801 332.745 383.801L332.739 383.789ZM290.593 357.466L332.739 381.801L374.884 357.466L332.739 333.132L290.593 357.466Z" fill="#0D129E"/>
<path d="M332.736 382.627L288.739 357.466V408.023L332.736 433.426L376.733 408.023V357.466L332.736 382.627Z" fill="#464CFF"/>
<path d="M377.003 408.644L332.243 434.092V383.203L377.003 357.999V408.644Z" fill="#0D129E"/>
<path d="M332.739 434.346C332.577 434.346 332.422 434.303 332.279 434.222L288.282 408.819C287.996 408.651 287.822 408.347 287.822 408.018V357.467C287.822 357.138 287.996 356.833 288.282 356.665C288.568 356.498 288.916 356.498 289.201 356.665L332.739 381.559L376.276 356.665C376.561 356.504 376.909 356.504 377.195 356.665C377.481 356.833 377.655 357.138 377.655 357.467V408.024C377.655 408.353 377.481 408.658 377.195 408.825L333.198 434.228C333.055 434.309 332.894 434.353 332.739 434.353V434.346ZM289.667 407.49L332.739 432.358L375.81 407.49V359.063L333.198 383.429C332.912 383.59 332.565 383.59 332.279 383.429L289.667 359.063V407.496V407.49Z" fill="#0D129E"/>
<path d="M332.74 434.346C332.23 434.346 331.814 433.93 331.814 433.42V382.621C331.814 382.111 332.23 381.695 332.74 381.695C333.249 381.695 333.665 382.111 333.665 382.621V433.42C333.665 433.93 333.249 434.346 332.74 434.346Z" fill="#0D129E"/>
<path d="M317.253 365.022C317.476 365.172 317.71 365.321 317.94 365.463L317.94 365.464L317.945 365.467C318.009 365.505 318.073 365.543 318.131 365.576L318.136 365.579C318.194 365.613 318.247 365.643 318.3 365.675L318.3 365.675L318.309 365.68C318.314 365.683 318.319 365.686 318.324 365.689C318.386 365.725 318.467 365.773 318.558 365.816C322.448 367.979 327.442 369.045 332.406 369.045C337.37 369.045 342.364 367.979 346.254 365.816C346.344 365.773 346.426 365.725 346.487 365.689C346.493 365.686 346.497 365.684 346.502 365.681C346.521 365.67 346.541 365.659 346.561 365.647C346.658 365.591 346.765 365.53 346.87 365.465C347.107 365.32 347.337 365.171 347.557 365.023C347.94 364.768 348.303 364.498 348.639 364.226C348.772 364.124 348.901 364.015 349.016 363.918C349.04 363.898 349.063 363.878 349.086 363.859L349.086 363.859L349.094 363.852C349.839 363.202 350.468 362.511 350.975 361.793C351.106 361.61 351.225 361.424 351.332 361.25L351.333 361.248C352.117 359.959 352.52 358.598 352.52 357.218C352.52 354.044 350.416 351.005 346.501 348.755L346.357 348.672H346.353C342.449 346.475 337.41 345.393 332.403 345.393C327.334 345.393 322.231 346.502 318.308 348.755L318.308 348.755C314.387 351.008 312.294 354.049 312.289 357.218V357.218V357.218V357.218V357.218V357.218V357.218V357.218V357.218V357.218V357.219V357.219V357.219V357.219V357.219V357.219V357.219V357.219V357.219V357.219V357.219V357.219V357.219V357.219V357.219V357.219V357.219V357.219V357.219V357.219V357.219V357.219V357.219V357.219V357.219V357.219V357.219V357.219V357.22V357.22V357.22V357.22V357.22V357.22V357.22V357.22V357.22V357.22V357.22V357.22V357.22V357.22V357.22V357.22V357.22V357.22V357.22V357.22V357.22V357.22V357.22V357.22V357.22V357.22V357.22V357.221V357.221V357.221V357.221V357.221V357.221V357.221V357.221V357.221V357.221V357.221V357.221V357.221V357.221V357.221V357.221V357.221V357.221V357.221V357.221V357.221V357.221V357.221V357.221V357.221V357.221V357.221V357.222V357.222V357.222V357.222V357.222V357.222V357.222V357.222V357.222V357.222V357.222V357.222V357.222V357.222V357.222V357.222V357.222V357.222V357.222C312.289 357.227 312.289 357.232 312.289 357.237V357.491C312.289 357.556 312.296 357.611 312.299 357.635L312.303 357.662C312.313 357.835 312.331 358.004 312.354 358.175L312.354 358.175L312.355 358.183C312.367 358.266 312.381 358.37 312.403 358.478C312.435 358.662 312.476 358.841 312.518 359.01L312.517 359.01L312.521 359.023L312.523 359.029C312.543 359.105 312.568 359.196 312.597 359.287C312.652 359.472 312.713 359.66 312.785 359.852L312.785 359.852L312.788 359.859C312.802 359.894 312.816 359.928 312.827 359.955L312.828 359.957C312.84 359.987 312.849 360.008 312.857 360.028L312.857 360.028L312.859 360.034C312.947 360.253 313.046 360.474 313.159 360.696L313.159 360.696L313.165 360.707C313.174 360.723 313.183 360.739 313.192 360.756C313.257 360.879 313.33 361.015 313.414 361.154L313.42 361.164L313.426 361.173C313.441 361.196 313.456 361.221 313.476 361.254L313.478 361.257C313.496 361.286 313.518 361.323 313.543 361.36C313.629 361.497 313.727 361.649 313.835 361.798C314.66 362.963 315.805 364.051 317.253 365.022ZM317.253 365.022C317.253 365.022 317.253 365.022 317.253 365.022L317.599 364.508L317.254 365.022C317.254 365.022 317.254 365.022 317.253 365.022Z" fill="#00FFCC" stroke="#00EABB" stroke-width="1.23913"/>
<path d="M342.927 356.54C343.489 356.06 344.244 355.699 345.098 355.501L334.257 349.224C334.16 349.168 334.047 349.125 333.924 349.098C333.801 349.072 333.67 349.062 333.54 349.069C333.409 349.077 333.281 349.101 333.163 349.141C333.045 349.181 332.939 349.236 332.851 349.303L330.768 350.902C330.681 350.97 330.614 351.047 330.571 351.131C330.528 351.214 330.509 351.302 330.517 351.39C330.524 351.477 330.557 351.561 330.614 351.639C330.671 351.716 330.75 351.785 330.847 351.841L341.688 358.117C341.863 357.526 342.295 356.977 342.928 356.539" fill="#141BEB"/>
<path d="M325.673 352.541C325.112 353.02 324.356 353.381 323.502 353.578L334.343 359.855C334.44 359.911 334.553 359.954 334.676 359.981C334.799 360.007 334.929 360.017 335.06 360.01C335.19 360.003 335.318 359.978 335.436 359.938C335.554 359.898 335.66 359.843 335.748 359.776L337.832 358.177C337.919 358.109 337.986 358.032 338.029 357.948C338.072 357.865 338.09 357.777 338.083 357.69C338.075 357.602 338.042 357.518 337.986 357.44C337.929 357.363 337.849 357.294 337.752 357.238L326.911 350.962C326.736 351.553 326.305 352.102 325.672 352.54" fill="#141BEB"/>
<path d="M334.024 363.373C334.585 362.894 335.34 362.532 336.194 362.334L325.353 356.057C325.256 356.001 325.143 355.958 325.02 355.932C324.897 355.905 324.766 355.895 324.636 355.902C324.505 355.91 324.377 355.934 324.259 355.974C324.141 356.014 324.035 356.069 323.948 356.136L321.864 357.736C321.777 357.803 321.71 357.88 321.667 357.964C321.624 358.048 321.606 358.135 321.613 358.223C321.62 358.31 321.653 358.395 321.71 358.472C321.767 358.55 321.846 358.618 321.944 358.674L332.785 364.951C332.96 364.359 333.391 363.81 334.024 363.372" fill="#141BEB"/>
<path opacity="0.4" d="M288.127 127.925H377.345L352.562 358.403C352.562 358.403 350.514 368.316 332.736 368.316C314.958 368.316 312.91 358.403 312.91 358.403L288.127 127.925Z" fill="url(#paint11_linear_2_621)"/>
<path d="M502.496 602.584C501.728 603.024 500.784 603.022 500.018 602.577L428.231 560.895C426.562 559.925 426.593 557.504 428.287 556.577L502.472 516.005C503.249 515.579 504.195 515.602 504.951 516.063L573.268 557.745C574.876 558.726 574.845 561.072 573.21 562.01L502.496 602.584Z" fill="url(#paint12_linear_2_621)"/>
<g style="mix-blend-mode:multiply">
<path d="M498.781 585.509L453.429 559.323L498.781 533.137L544.138 559.323L498.781 585.509Z" fill="#2B2B2B" fill-opacity="0.15"/>
</g>
<path d="M498.779 519.957L454.788 494.554L498.779 469.157L542.776 494.554L498.779 519.957Z" fill="#7075FF"/>
<g style="mix-blend-mode:soft-light">
<path d="M482.039 502.24C482.262 502.39 482.496 502.539 482.725 502.681L482.725 502.681L482.731 502.685C482.794 502.723 482.859 502.761 482.917 502.794L482.922 502.797C482.98 502.831 483.033 502.861 483.086 502.893L483.086 502.893L483.094 502.898C483.099 502.901 483.105 502.904 483.11 502.907C483.172 502.943 483.253 502.991 483.344 503.034C487.233 505.197 492.228 506.263 497.192 506.263C502.155 506.263 507.15 505.197 511.039 503.034C511.13 502.991 511.212 502.943 511.273 502.907C511.278 502.904 511.283 502.901 511.288 502.899C511.307 502.888 511.327 502.876 511.347 502.865C511.444 502.809 511.551 502.748 511.656 502.683C511.892 502.538 512.123 502.389 512.343 502.241C512.726 501.986 513.089 501.716 513.425 501.444C513.558 501.342 513.687 501.233 513.802 501.136C513.826 501.116 513.849 501.096 513.872 501.077L513.872 501.077L513.88 501.07C514.625 500.42 515.254 499.729 515.761 499.011C515.892 498.828 516.011 498.642 516.118 498.468L516.119 498.466C516.903 497.177 517.306 495.816 517.306 494.436C517.306 491.262 515.201 488.223 511.287 485.973L511.143 485.89H511.138C507.235 483.693 502.195 482.611 497.189 482.611C492.12 482.611 487.017 483.72 483.094 485.972L483.094 485.973C479.173 488.226 477.079 491.267 477.074 494.436V494.436V494.436V494.436V494.436V494.436V494.436V494.436V494.436V494.436V494.436V494.436V494.437V494.437V494.437V494.437V494.437V494.437V494.437V494.437V494.437V494.437V494.437V494.437V494.437V494.437V494.437V494.437V494.437V494.437V494.437V494.437V494.437V494.437V494.437V494.437V494.437V494.437V494.437V494.438V494.438V494.438V494.438V494.438V494.438V494.438V494.438V494.438V494.438V494.438V494.438V494.438V494.438V494.438V494.438V494.438V494.438V494.438V494.438V494.438V494.438V494.438V494.438V494.438V494.438V494.438V494.439V494.439V494.439V494.439V494.439V494.439V494.439V494.439V494.439V494.439V494.439V494.439V494.439V494.439V494.439V494.439V494.439V494.439V494.439V494.439V494.439V494.439V494.439V494.439V494.439V494.439V494.439V494.44V494.44V494.44V494.44V494.44V494.44V494.44V494.44V494.44V494.44V494.44V494.44V494.44V494.44V494.44V494.44V494.44V494.44C477.074 494.445 477.074 494.45 477.074 494.455V494.709C477.074 494.774 477.082 494.829 477.085 494.853L477.089 494.88C477.099 495.053 477.116 495.222 477.14 495.393L477.14 495.393L477.141 495.401C477.153 495.484 477.167 495.588 477.189 495.696C477.221 495.88 477.262 496.059 477.303 496.228L477.303 496.228L477.307 496.241L477.308 496.247C477.329 496.323 477.354 496.414 477.382 496.505C477.438 496.69 477.499 496.878 477.571 497.07L477.571 497.07L477.574 497.077C477.587 497.112 477.602 497.146 477.613 497.173L477.614 497.175C477.626 497.205 477.635 497.226 477.643 497.246L477.643 497.246L477.645 497.252C477.733 497.471 477.832 497.692 477.945 497.914L477.945 497.914L477.951 497.925C477.96 497.941 477.968 497.957 477.977 497.974C478.043 498.097 478.116 498.233 478.2 498.372L478.205 498.382L478.212 498.391C478.226 498.414 478.241 498.438 478.262 498.472L478.264 498.475C478.281 498.504 478.304 498.541 478.328 498.578C478.414 498.715 478.513 498.867 478.62 499.016C479.446 500.181 480.59 501.268 482.039 502.24ZM482.039 502.24C482.039 502.24 482.039 502.24 482.039 502.24L482.385 501.726L482.04 502.24C482.04 502.24 482.039 502.24 482.039 502.24Z" fill="#00FFCC" stroke="#00EABB" stroke-width="1.23913"/>
<path d="M507.713 493.758C508.274 493.279 509.03 492.917 509.883 492.719L499.042 486.442C498.946 486.386 498.832 486.343 498.709 486.317C498.586 486.29 498.456 486.28 498.325 486.287C498.195 486.295 498.067 486.319 497.949 486.359C497.831 486.399 497.725 486.454 497.637 486.521L495.554 488.121C495.467 488.188 495.4 488.265 495.357 488.349C495.313 488.433 495.295 488.52 495.302 488.608C495.31 488.695 495.343 488.78 495.4 488.857C495.456 488.935 495.536 489.003 495.633 489.059L506.474 495.336C506.649 494.744 507.08 494.195 507.714 493.757" fill="#141BEB"/>
<path d="M490.459 489.759C489.897 490.238 489.142 490.599 488.288 490.797L499.129 497.073C499.225 497.13 499.339 497.172 499.462 497.199C499.585 497.226 499.715 497.235 499.846 497.228C499.976 497.221 500.104 497.196 500.222 497.156C500.34 497.116 500.446 497.061 500.534 496.994L502.617 495.395C502.704 495.328 502.771 495.25 502.814 495.166C502.858 495.083 502.876 494.995 502.869 494.908C502.861 494.821 502.828 494.736 502.771 494.658C502.715 494.581 502.635 494.512 502.538 494.456L491.697 488.18C491.522 488.771 491.091 489.321 490.457 489.758" fill="#141BEB"/>
<path d="M498.809 500.591C499.371 500.112 500.126 499.75 500.98 499.552L490.139 493.276C490.042 493.219 489.929 493.176 489.806 493.15C489.683 493.123 489.552 493.113 489.422 493.121C489.291 493.128 489.163 493.152 489.045 493.192C488.927 493.233 488.821 493.288 488.733 493.355L486.65 494.954C486.563 495.021 486.496 495.099 486.453 495.182C486.41 495.266 486.391 495.354 486.399 495.441C486.406 495.528 486.439 495.613 486.496 495.69C486.553 495.768 486.632 495.836 486.73 495.892L497.571 502.169C497.745 501.577 498.177 501.028 498.81 500.591" fill="#141BEB"/>
</g>
<path d="M498.78 520.876C498.619 520.876 498.463 520.833 498.32 520.752L454.324 495.349C454.038 495.182 453.864 494.877 453.864 494.548C453.864 494.219 454.038 493.914 454.324 493.746L498.32 468.356C498.606 468.188 498.96 468.188 499.246 468.356L543.243 493.759C543.529 493.927 543.703 494.231 543.703 494.56C543.703 494.89 543.529 495.194 543.243 495.362L499.246 520.765C499.103 520.845 498.942 520.889 498.786 520.889L498.78 520.876ZM456.635 494.554L498.78 518.888L540.926 494.554L498.78 470.22L456.635 494.554Z" fill="#0D129E"/>
<path d="M498.778 519.714L454.781 494.554V545.111L498.778 570.514L542.775 545.111V494.554L498.778 519.714Z" fill="#464CFF"/>
<path d="M543.045 545.732L498.285 571.179V520.291L543.045 495.086V545.732Z" fill="#141BEB"/>
<path d="M498.781 571.434C498.619 571.434 498.464 571.39 498.321 571.31L454.324 545.907C454.038 545.739 453.864 545.435 453.864 545.105V494.554C453.864 494.225 454.038 493.921 454.324 493.753C454.61 493.585 454.958 493.585 455.243 493.753L498.781 518.646L542.318 493.753C542.604 493.591 542.951 493.591 543.237 493.753C543.523 493.921 543.697 494.225 543.697 494.554V545.111C543.697 545.441 543.523 545.745 543.237 545.913L499.24 571.316C499.097 571.397 498.936 571.44 498.781 571.44V571.434ZM455.709 544.577L498.781 569.446L541.852 544.577V496.151L499.24 520.516C498.955 520.678 498.607 520.678 498.321 520.516L455.709 496.151V544.583V544.577Z" fill="#0D129E"/>
<path d="M498.781 571.434C498.272 571.434 497.856 571.017 497.856 570.508V519.708C497.856 519.199 498.272 518.783 498.781 518.783C499.291 518.783 499.707 519.199 499.707 519.708V570.508C499.707 571.017 499.291 571.434 498.781 571.434Z" fill="#0D129E"/>
<path d="M78.7154 498.497C77.9476 498.937 77.0031 498.935 76.2376 498.49L4.45065 456.808C2.78109 455.838 2.81209 453.416 4.50591 452.49L78.6907 411.918C79.4684 411.492 80.414 411.515 81.1706 411.976L149.487 453.658C151.095 454.639 151.064 456.985 149.43 457.923L78.7154 498.497Z" fill="url(#paint13_linear_2_621)"/>
<g style="mix-blend-mode:multiply">
<path d="M75.0015 481.421L29.6503 455.236L75.0015 429.05L120.359 455.236L75.0015 481.421Z" fill="#2B2B2B" fill-opacity="0.15"/>
</g>
<path d="M74.9978 381.739L31.0072 356.337L74.9978 330.94L118.995 356.337L74.9978 381.739Z" fill="#00EDBE"/>
<path d="M74.9995 382.659C74.838 382.659 74.6827 382.615 74.5398 382.535L30.5429 357.132C30.2572 356.964 30.0832 356.66 30.0832 356.33C30.0832 356.001 30.2572 355.697 30.5429 355.529L74.5398 330.138C74.8256 329.971 75.1797 329.971 75.4655 330.138L119.462 355.541C119.748 355.709 119.922 356.014 119.922 356.343C119.922 356.672 119.748 356.976 119.462 357.144L75.4655 382.547C75.3226 382.628 75.1611 382.671 75.0058 382.671L74.9995 382.659ZM32.854 356.337L74.9995 380.671L117.145 356.337L74.9995 332.002L32.854 356.337Z" fill="#141BEB"/>
<path d="M74.9966 381.497L30.9998 356.337V406.894L74.9966 432.297L118.994 406.894V356.337L74.9966 381.497Z" fill="#464CFF"/>
<path d="M119.264 407.514L74.5039 432.962V382.073L119.264 356.869V407.514Z" fill="#141BEB"/>
<path d="M74.9995 433.217C74.838 433.217 74.6827 433.173 74.5398 433.092L30.5429 407.689C30.2572 407.522 30.0832 407.217 30.0832 406.888V356.337C30.0832 356.008 30.2572 355.703 30.5429 355.536C30.8287 355.368 31.1766 355.368 31.4624 355.536L74.9995 380.429L118.537 355.536C118.822 355.374 119.17 355.374 119.456 355.536C119.742 355.703 119.916 356.008 119.916 356.337V406.894C119.916 407.224 119.742 407.528 119.456 407.696L75.4593 433.099C75.3164 433.179 75.1549 433.223 74.9995 433.223V433.217ZM31.9283 406.36L74.9995 431.229L118.071 406.36V357.934L75.4593 382.299C75.1735 382.461 74.8256 382.461 74.5398 382.299L31.9283 357.934V406.366V406.36Z" fill="#0D129E"/>
<path d="M75.0004 433.216C74.4909 433.216 74.0747 432.8 74.0747 432.29V381.491C74.0747 380.981 74.4909 380.565 75.0004 380.565C75.5098 380.565 75.926 380.981 75.926 381.491V432.29C75.926 432.8 75.5098 433.216 75.0004 433.216Z" fill="#0D129E"/>
<path d="M59.5181 363.891C59.7409 364.041 59.9746 364.19 60.2042 364.333L60.2042 364.333L60.2095 364.336C60.2731 364.375 60.3374 364.412 60.3958 364.446L60.4006 364.448C60.459 364.482 60.5121 364.513 60.5646 364.545L60.5645 364.545L60.5732 364.55C60.5783 364.553 60.5835 364.556 60.5888 364.559C60.6504 364.595 60.732 364.642 60.8228 364.685C64.7121 366.849 69.7068 367.914 74.6705 367.914C79.6341 367.914 84.6288 366.849 88.5181 364.685C88.6089 364.642 88.6905 364.595 88.752 364.559C88.7571 364.556 88.7621 364.553 88.7669 364.55C88.786 364.539 88.8055 364.528 88.8254 364.516C88.9231 364.46 89.0293 364.399 89.1345 364.334C89.3713 364.189 89.6014 364.041 89.8218 363.892C90.2051 363.638 90.5677 363.368 90.9035 363.095C91.0364 362.994 91.1656 362.884 91.2806 362.787C91.3045 362.767 91.3278 362.747 91.3504 362.728L91.3505 362.729L91.359 362.721C92.1037 362.072 92.7327 361.381 93.2393 360.663C93.3711 360.48 93.4898 360.294 93.5968 360.119L93.5981 360.117C94.3819 358.829 94.7847 357.467 94.7847 356.088C94.7847 352.914 92.6801 349.875 88.7654 347.624L88.622 347.542H88.6173C84.7136 345.344 79.6741 344.262 74.6673 344.262C69.5985 344.262 64.496 345.371 60.5727 347.624L60.5725 347.624C56.6517 349.877 54.5582 352.918 54.5531 356.088V356.088V356.088V356.088V356.088V356.088V356.088V356.088V356.088V356.088V356.088V356.088V356.088V356.088V356.088V356.088V356.088V356.088V356.088V356.088V356.088V356.088V356.088V356.088V356.088V356.088V356.088V356.089V356.089V356.089V356.089V356.089V356.089V356.089V356.089V356.089V356.089V356.089V356.089V356.089V356.089V356.089V356.089V356.089V356.089V356.089V356.089V356.089V356.089V356.089V356.089V356.089V356.089V356.089V356.09V356.09V356.09V356.09V356.09V356.09V356.09V356.09V356.09V356.09V356.09V356.09V356.09V356.09V356.09V356.09V356.09V356.09V356.09V356.09V356.09V356.09V356.09V356.09V356.09V356.09V356.09V356.09V356.091V356.091V356.091V356.091V356.091V356.091V356.091V356.091V356.091V356.091V356.091V356.091V356.091V356.091V356.091V356.091V356.091V356.091V356.091V356.091V356.091V356.091V356.091V356.091V356.091V356.091V356.091V356.092V356.092C54.5531 356.097 54.5531 356.102 54.5531 356.107V356.36C54.5531 356.425 54.5605 356.48 54.5638 356.505L54.5676 356.532C54.5781 356.704 54.5952 356.873 54.6188 357.044L54.6189 357.045L54.6199 357.052C54.6315 357.136 54.6459 357.24 54.6677 357.347C54.6995 357.531 54.7405 357.71 54.7822 357.879L54.782 357.879L54.7857 357.893L54.7872 357.898C54.8078 357.975 54.8324 358.066 54.8613 358.156C54.9168 358.341 54.9775 358.529 55.0497 358.721L55.0497 358.721L55.0524 358.728C55.0662 358.763 55.0804 358.798 55.0916 358.824L55.0926 358.827C55.1049 358.856 55.1138 358.877 55.1217 358.898L55.1217 358.898L55.1239 358.903C55.212 359.122 55.3109 359.343 55.4241 359.565L55.424 359.565L55.4299 359.576C55.4385 359.592 55.4473 359.609 55.4562 359.626C55.5217 359.748 55.5948 359.885 55.6785 360.024L55.6843 360.033L55.6904 360.043C55.7051 360.065 55.7202 360.09 55.7407 360.123L55.7424 360.126C55.7603 360.155 55.7829 360.192 55.8073 360.23C55.8932 360.366 55.9915 360.518 56.0992 360.667C56.9247 361.832 58.0693 362.92 59.5181 363.891ZM59.5181 363.891C59.5179 363.891 59.5177 363.891 59.5175 363.891L59.8636 363.377L59.5186 363.892C59.5184 363.892 59.5182 363.891 59.5181 363.891Z" fill="#00FFCC" stroke="#00EABB" stroke-width="1.23913"/>
<path d="M85.192 355.409C85.7532 354.93 86.5085 354.568 87.3623 354.37L76.5213 348.094C76.4245 348.037 76.3113 347.994 76.1883 347.968C76.0652 347.941 75.9347 347.931 75.8042 347.939C75.6737 347.946 75.5458 347.97 75.4277 348.011C75.3096 348.051 75.2037 348.106 75.116 348.173L73.0324 349.772C72.9454 349.839 72.8785 349.917 72.8354 350C72.7923 350.084 72.7739 350.172 72.7813 350.259C72.7887 350.346 72.8218 350.431 72.8785 350.508C72.9353 350.586 73.0146 350.654 73.1121 350.71L83.9531 356.987C84.1279 356.395 84.5592 355.846 85.1924 355.409" fill="#141BEB"/>
<path d="M67.938 351.41C67.3762 351.889 66.6204 352.25 65.7664 352.448L76.6074 358.724C76.7042 358.781 76.8174 358.823 76.9404 358.85C77.0635 358.877 77.1939 358.887 77.3244 358.879C77.4549 358.872 77.5829 358.847 77.701 358.807C77.8191 358.767 77.925 358.712 78.0127 358.645L80.0962 357.046C80.1832 356.979 80.2502 356.901 80.2933 356.818C80.3364 356.734 80.3547 356.646 80.3473 356.559C80.3399 356.472 80.3069 356.387 80.2502 356.31C80.1934 356.232 80.114 356.163 80.0166 356.107L69.1756 349.831C69.0007 350.422 68.5694 350.972 67.9363 351.409" fill="#141BEB"/>
<path d="M76.2883 362.242C76.8495 361.763 77.6048 361.401 78.4586 361.203L67.6176 354.927C67.5208 354.87 67.4076 354.828 67.2846 354.801C67.1615 354.774 67.031 354.764 66.9005 354.772C66.77 354.779 66.6421 354.804 66.524 354.844C66.4059 354.884 66.3 354.939 66.2123 355.006L64.1288 356.605C64.0417 356.672 63.9748 356.75 63.9317 356.833C63.8886 356.917 63.8703 357.005 63.8776 357.092C63.885 357.179 63.9181 357.264 63.9748 357.341C64.0316 357.419 64.111 357.488 64.2084 357.544L75.0494 363.82C75.2242 363.229 75.6556 362.679 76.2887 362.242" fill="#141BEB"/>
<path opacity="0.4" d="M30.3881 126.795H119.606L94.823 357.273C94.823 357.273 92.7747 367.187 74.9969 367.187C57.219 367.187 55.1707 357.273 55.1707 357.273L30.3881 126.795Z" fill="url(#paint14_linear_2_621)"/>
<path d="M224.934 580.28C224.166 580.72 223.222 580.718 222.456 580.273L150.669 538.59C149 537.621 149.031 535.199 150.725 534.273L224.909 493.7C225.687 493.275 226.633 493.298 227.389 493.759L295.706 535.441C297.314 536.422 297.282 538.768 295.648 539.706L224.934 580.28Z" fill="url(#paint15_linear_2_621)"/>
<g style="mix-blend-mode:multiply">
<path d="M221.218 563.204L175.867 537.018L221.218 510.832L266.576 537.018L221.218 563.204Z" fill="#2B2B2B" fill-opacity="0.15"/>
</g>
<path d="M221.216 497.653L177.225 472.25L221.216 446.853L265.213 472.25L221.216 497.653Z" fill="#7075FF"/>
<g style="mix-blend-mode:soft-light">
<path d="M205.342 479.804C205.565 479.955 205.799 480.103 206.028 480.246L206.028 480.246L206.033 480.249C206.097 480.288 206.161 480.325 206.22 480.359L206.225 480.362C206.283 480.395 206.336 480.426 206.389 480.458L206.389 480.458L206.397 480.463C206.402 480.466 206.407 480.469 206.413 480.472C206.474 480.508 206.556 480.555 206.647 480.598C210.536 482.762 215.531 483.827 220.494 483.827C225.458 483.827 230.453 482.762 234.342 480.598C234.433 480.555 234.514 480.508 234.576 480.472C234.581 480.469 234.586 480.466 234.591 480.463C234.61 480.452 234.629 480.441 234.649 480.43C234.747 480.373 234.853 480.312 234.959 480.247C235.195 480.102 235.425 479.954 235.646 479.805C236.029 479.551 236.392 479.281 236.727 479.008C236.86 478.907 236.99 478.798 237.105 478.7C237.128 478.68 237.152 478.661 237.174 478.642L237.174 478.642L237.183 478.634C237.928 477.985 238.557 477.294 239.063 476.576C239.195 476.393 239.314 476.207 239.421 476.032L239.422 476.03C240.206 474.742 240.609 473.38 240.609 472.001C240.609 468.827 238.504 465.788 234.589 463.537L234.446 463.455H234.441C230.538 461.257 225.498 460.175 220.491 460.175C215.422 460.175 210.32 461.284 206.397 463.537L206.396 463.537C202.476 465.79 200.382 468.831 200.377 472.001V472.001V472.001V472.001V472.001V472.001V472.001V472.001V472.001V472.001V472.001V472.001V472.001V472.001V472.001V472.001V472.001V472.001V472.001V472.001V472.001V472.001V472.001V472.001V472.001V472.002V472.002V472.002V472.002V472.002V472.002V472.002V472.002V472.002V472.002V472.002V472.002V472.002V472.002V472.002V472.002V472.002V472.002V472.002V472.002V472.002V472.002V472.002V472.002V472.002V472.002V472.002V472.003V472.003V472.003V472.003V472.003V472.003V472.003V472.003V472.003V472.003V472.003V472.003V472.003V472.003V472.003V472.003V472.003V472.003V472.003V472.003V472.003V472.003V472.003V472.003V472.003V472.003V472.003V472.004V472.004V472.004V472.004V472.004V472.004V472.004V472.004V472.004V472.004V472.004V472.004V472.004V472.004V472.004V472.004V472.004V472.004V472.004V472.004V472.004V472.004V472.004V472.004V472.004V472.004V472.004V472.005V472.005V472.005V472.005V472.005C200.377 472.01 200.377 472.015 200.377 472.02V472.274C200.377 472.338 200.385 472.393 200.388 472.418L200.392 472.445C200.402 472.617 200.419 472.786 200.443 472.957L200.443 472.958L200.444 472.965C200.455 473.049 200.47 473.153 200.492 473.26C200.523 473.444 200.565 473.623 200.606 473.792L200.606 473.792L200.61 473.806L200.611 473.811C200.632 473.888 200.656 473.979 200.685 474.069C200.741 474.254 200.801 474.443 200.874 474.634L200.874 474.634L200.876 474.641C200.89 474.676 200.904 474.711 200.916 474.737L200.917 474.74C200.929 474.769 200.938 474.79 200.946 474.811L200.946 474.811L200.948 474.816C201.036 475.035 201.135 475.256 201.248 475.478L201.248 475.478L201.254 475.489C201.263 475.506 201.271 475.522 201.28 475.539C201.346 475.661 201.419 475.798 201.502 475.937L201.508 475.947L201.514 475.956C201.529 475.978 201.544 476.003 201.565 476.036L201.566 476.039C201.584 476.069 201.607 476.105 201.631 476.143C201.717 476.279 201.815 476.431 201.923 476.58C202.749 477.745 203.893 478.833 205.342 479.804ZM205.342 479.804C205.342 479.804 205.342 479.804 205.341 479.804L205.688 479.29L205.343 479.805C205.342 479.805 205.342 479.805 205.342 479.804Z" fill="#00FFCC" stroke="#00EABB" stroke-width="1.23913"/>
<path d="M231.016 471.322C231.577 470.843 232.333 470.481 233.186 470.283L222.345 464.007C222.248 463.95 222.135 463.908 222.012 463.881C221.889 463.854 221.759 463.844 221.628 463.852C221.498 463.859 221.37 463.883 221.252 463.924C221.134 463.964 221.028 464.019 220.94 464.086L218.856 465.685C218.769 465.752 218.702 465.83 218.659 465.913C218.616 465.997 218.598 466.085 218.605 466.172C218.613 466.259 218.646 466.344 218.702 466.421C218.759 466.499 218.839 466.568 218.936 466.624L229.777 472.9C229.952 472.309 230.383 471.759 231.016 471.322" fill="#141BEB"/>
<path d="M213.762 467.323C213.2 467.802 212.444 468.163 211.59 468.361L222.431 474.637C222.528 474.694 222.641 474.737 222.764 474.763C222.887 474.79 223.018 474.8 223.148 474.792C223.279 474.785 223.407 474.761 223.525 474.721C223.643 474.68 223.749 474.625 223.837 474.559L225.92 472.959C226.007 472.892 226.074 472.814 226.117 472.731C226.16 472.647 226.179 472.559 226.171 472.472C226.164 472.385 226.131 472.3 226.074 472.223C226.017 472.145 225.938 472.077 225.841 472.021L215 465.744C214.825 466.336 214.393 466.885 213.76 467.322" fill="#141BEB"/>
<path d="M222.112 478.155C222.673 477.676 223.429 477.315 224.283 477.116L213.442 470.84C213.345 470.784 213.232 470.741 213.109 470.714C212.986 470.688 212.855 470.678 212.725 470.685C212.594 470.692 212.466 470.717 212.348 470.757C212.23 470.797 212.124 470.852 212.036 470.919L209.953 472.518C209.866 472.585 209.799 472.663 209.756 472.747C209.713 472.83 209.694 472.918 209.702 473.005C209.709 473.092 209.742 473.177 209.799 473.255C209.856 473.332 209.935 473.401 210.032 473.457L220.873 479.733C221.048 479.142 221.48 478.593 222.113 478.155" fill="#141BEB"/>
</g>
<path d="M221.218 498.572C221.056 498.572 220.901 498.529 220.758 498.448L176.761 473.045C176.476 472.877 176.302 472.573 176.302 472.244C176.302 471.914 176.476 471.61 176.761 471.442L220.758 446.052C221.044 445.884 221.398 445.884 221.684 446.052L265.681 471.455C265.967 471.622 266.141 471.927 266.141 472.256C266.141 472.585 265.967 472.89 265.681 473.057L221.684 498.46C221.541 498.541 221.38 498.585 221.224 498.585L221.218 498.572ZM179.072 472.25L221.218 496.584L263.364 472.25L221.218 447.915L179.072 472.25Z" fill="#0D129E"/>
<path d="M221.217 497.41L177.22 472.25V522.807L221.217 548.21L265.214 522.807V472.25L221.217 497.41Z" fill="#464CFF"/>
<path d="M265.483 523.428L220.722 548.875V497.987L265.483 472.782V523.428Z" fill="#141BEB"/>
<path d="M221.218 549.129C221.056 549.129 220.901 549.086 220.758 549.005L176.761 523.602C176.476 523.435 176.302 523.13 176.302 522.801V472.25C176.302 471.921 176.476 471.616 176.761 471.448C177.047 471.281 177.395 471.281 177.681 471.448L221.218 496.342L264.755 471.448C265.041 471.287 265.389 471.287 265.675 471.448C265.96 471.616 266.134 471.921 266.134 472.25V522.807C266.134 523.136 265.96 523.441 265.675 523.609L221.678 549.011C221.535 549.092 221.373 549.136 221.218 549.136V549.129ZM178.147 522.273L221.218 547.141L264.289 522.273V473.847L221.678 498.212C221.392 498.373 221.044 498.373 220.758 498.212L178.147 473.847V522.279V522.273Z" fill="#0D129E"/>
<path d="M221.219 549.129C220.709 549.129 220.293 548.713 220.293 548.204V497.404C220.293 496.895 220.709 496.479 221.219 496.479C221.728 496.479 222.144 496.895 222.144 497.404V548.204C222.144 548.713 221.728 549.129 221.219 549.129Z" fill="#141BEB"/>
<path d="M386.02 667.019C385.252 667.459 384.308 667.457 383.542 667.013L311.755 625.33C310.086 624.36 310.117 621.939 311.811 621.012L385.996 580.44C386.773 580.014 387.719 580.037 388.475 580.498L456.792 622.18C458.4 623.161 458.369 625.508 456.734 626.445L386.02 667.019Z" fill="url(#paint16_linear_2_621)"/>
<g style="mix-blend-mode:multiply">
<path d="M382.306 649.944L336.955 623.758L382.306 597.572L427.664 623.758L382.306 649.944Z" fill="#2B2B2B" fill-opacity="0.15"/>
</g>
<path d="M382.302 550.262L338.312 524.859L382.302 499.462L426.299 524.859L382.302 550.262Z" fill="#00EDBE"/>
<path d="M382.304 551.181C382.143 551.181 381.988 551.138 381.845 551.057L337.848 525.654C337.562 525.486 337.388 525.182 337.388 524.853C337.388 524.523 337.562 524.219 337.848 524.051L381.845 498.661C382.13 498.493 382.485 498.493 382.77 498.661L426.767 524.064C427.053 524.231 427.227 524.536 427.227 524.865C427.227 525.194 427.053 525.499 426.767 525.666L382.77 551.069C382.627 551.15 382.466 551.194 382.311 551.194L382.304 551.181ZM340.159 524.859L382.304 549.193L424.45 524.859L382.304 500.524L340.159 524.859Z" fill="#0D129E"/>
<path d="M382.301 550.019L338.304 524.859V575.416L382.301 600.819L426.298 575.416V524.859L382.301 550.019Z" fill="#464CFF"/>
<path d="M426.569 576.037L381.808 601.484V550.596L426.569 525.391V576.037Z" fill="#141BEB"/>
<path d="M382.304 601.739C382.143 601.739 381.987 601.695 381.844 601.614L337.848 576.211C337.562 576.044 337.388 575.739 337.388 575.41V524.859C337.388 524.53 337.562 524.225 337.848 524.058C338.133 523.89 338.481 523.89 338.767 524.058L382.304 548.951L425.841 524.058C426.127 523.896 426.475 523.896 426.761 524.058C427.047 524.225 427.221 524.53 427.221 524.859V575.416C427.221 575.745 427.047 576.05 426.761 576.218L382.764 601.621C382.621 601.701 382.46 601.745 382.304 601.745V601.739ZM339.233 574.882L382.304 599.751L425.375 574.882V526.456L382.764 550.821C382.478 550.983 382.13 550.983 381.844 550.821L339.233 526.456V574.888V574.882Z" fill="#0D129E"/>
<path d="M382.305 601.738C381.796 601.738 381.379 601.322 381.379 600.813V550.013C381.379 549.504 381.796 549.087 382.305 549.087C382.814 549.087 383.231 549.504 383.231 550.013V600.813C383.231 601.322 382.814 601.738 382.305 601.738Z" fill="#0D129E"/>
<path d="M366.823 532.414C367.046 532.564 367.279 532.712 367.509 532.855L367.509 532.855L367.514 532.858C367.578 532.897 367.642 532.934 367.7 532.968L367.705 532.971C367.764 533.004 367.817 533.035 367.869 533.067L367.869 533.067L367.878 533.072C367.883 533.075 367.888 533.078 367.894 533.081C367.955 533.117 368.037 533.164 368.127 533.207C372.017 535.371 377.012 536.437 381.975 536.437C386.939 536.437 391.934 535.371 395.823 533.207C395.914 533.164 395.995 533.117 396.057 533.081C396.062 533.078 396.067 533.075 396.072 533.072C396.091 533.061 396.11 533.05 396.13 533.039C396.228 532.983 396.334 532.922 396.439 532.856C396.676 532.711 396.906 532.563 397.126 532.414C397.51 532.16 397.872 531.89 398.208 531.618C398.341 531.516 398.47 531.407 398.585 531.31C398.609 531.289 398.632 531.27 398.655 531.251L398.655 531.251L398.664 531.243C399.408 530.594 400.037 529.903 400.544 529.185C400.676 529.002 400.794 528.816 400.901 528.641L400.903 528.639C401.687 527.351 402.089 525.989 402.089 524.61C402.089 521.436 399.985 518.397 396.07 516.146L395.927 516.064H395.922C392.018 513.866 386.979 512.784 381.972 512.784C376.903 512.784 371.801 513.893 367.877 516.146L367.877 516.146C363.956 518.399 361.863 521.44 361.858 524.61V524.61V524.61V524.61V524.61V524.61V524.61V524.61V524.61V524.61V524.61V524.61V524.61V524.61V524.61V524.61V524.61V524.61V524.61V524.61V524.61V524.61V524.61V524.611V524.611V524.611V524.611V524.611V524.611V524.611V524.611V524.611V524.611V524.611V524.611V524.611V524.611V524.611V524.611V524.611V524.611V524.611V524.611V524.611V524.611V524.611V524.611V524.611V524.611V524.611V524.612V524.612V524.612V524.612V524.612V524.612V524.612V524.612V524.612V524.612V524.612V524.612V524.612V524.612V524.612V524.612V524.612V524.612V524.612V524.612V524.612V524.612V524.612V524.612V524.612V524.612V524.612V524.613V524.613V524.613V524.613V524.613V524.613V524.613V524.613V524.613V524.613V524.613V524.613V524.613V524.613V524.613V524.613V524.613V524.613V524.613V524.613V524.613V524.613V524.613V524.613V524.613V524.613V524.613V524.614V524.614V524.614V524.614V524.614V524.614V524.614C361.858 524.619 361.858 524.624 361.858 524.629V524.883C361.858 524.947 361.865 525.002 361.869 525.027L361.872 525.054C361.883 525.226 361.9 525.395 361.923 525.566L361.924 525.567L361.925 525.574C361.936 525.658 361.951 525.762 361.972 525.869C362.004 526.053 362.045 526.232 362.087 526.402L362.087 526.402L362.09 526.415L362.092 526.421C362.112 526.497 362.137 526.588 362.166 526.678C362.221 526.863 362.282 527.052 362.354 527.243L362.354 527.243L362.357 527.25C362.371 527.286 362.385 527.32 362.396 527.346L362.397 527.349C362.41 527.378 362.419 527.4 362.426 527.42L362.426 527.42L362.429 527.425C362.517 527.645 362.616 527.865 362.729 528.087L362.729 528.087L362.735 528.098C362.743 528.115 362.752 528.131 362.761 528.148C362.826 528.27 362.899 528.407 362.983 528.546L362.989 528.556L362.995 528.565C363.01 528.588 363.025 528.612 363.045 528.646L363.047 528.648C363.065 528.678 363.088 528.714 363.112 528.752C363.198 528.888 363.296 529.04 363.404 529.189C364.229 530.354 365.374 531.442 366.823 532.414ZM366.823 532.414C366.823 532.413 366.822 532.413 366.822 532.413L367.168 531.899L366.823 532.414C366.823 532.414 366.823 532.414 366.823 532.414Z" fill="#00FFCC" stroke="#00EABB" stroke-width="1.23913"/>
<path d="M392.497 523.931C393.058 523.452 393.813 523.091 394.667 522.892L383.826 516.616C383.729 516.56 383.616 516.517 383.493 516.49C383.37 516.464 383.239 516.454 383.109 516.461C382.978 516.468 382.85 516.493 382.732 516.533C382.614 516.573 382.508 516.628 382.421 516.695L380.337 518.294C380.25 518.361 380.183 518.439 380.14 518.523C380.097 518.606 380.079 518.694 380.086 518.781C380.093 518.868 380.126 518.953 380.183 519.031C380.24 519.108 380.319 519.177 380.417 519.233L391.258 525.509C391.433 524.918 391.864 524.369 392.497 523.931" fill="#141BEB"/>
<path d="M375.243 519.933C374.681 520.412 373.925 520.773 373.071 520.97L383.912 527.247C384.009 527.303 384.122 527.346 384.245 527.373C384.368 527.399 384.499 527.409 384.629 527.402C384.76 527.394 384.888 527.37 385.006 527.33C385.124 527.29 385.23 527.235 385.317 527.168L387.401 525.569C387.488 525.501 387.555 525.424 387.598 525.34C387.641 525.256 387.659 525.169 387.652 525.081C387.645 524.994 387.612 524.91 387.555 524.832C387.498 524.755 387.419 524.686 387.321 524.63L376.48 518.354C376.305 518.945 375.874 519.494 375.241 519.932" fill="#141BEB"/>
<path d="M383.593 530.765C384.154 530.285 384.909 529.924 385.763 529.726L374.922 523.449C374.825 523.393 374.712 523.35 374.589 523.323C374.466 523.297 374.336 523.287 374.205 523.294C374.075 523.301 373.947 523.326 373.829 523.366C373.711 523.406 373.605 523.461 373.517 523.528L371.433 525.127C371.346 525.195 371.279 525.272 371.236 525.356C371.193 525.439 371.175 525.527 371.182 525.614C371.19 525.702 371.223 525.786 371.279 525.864C371.336 525.941 371.416 526.01 371.513 526.066L382.354 532.342C382.529 531.751 382.96 531.202 383.593 530.764" fill="#141BEB"/>
<path opacity="0.4" d="M337.693 295.317H426.91L402.128 525.796C402.128 525.796 400.079 535.709 382.302 535.709C364.524 535.709 362.475 525.796 362.475 525.796L337.693 295.317Z" fill="url(#paint17_linear_2_621)"/>
<defs>
<linearGradient id="paint0_linear_2_621" x1="414.519" y1="225.2" x2="414.519" y2="348.954" gradientUnits="userSpaceOnUse">
<stop stop-color="#0C1079"/>
<stop offset="1" stop-color="#45C87C"/>
</linearGradient>
<linearGradient id="paint1_linear_2_621" x1="557.639" y1="309.395" x2="557.639" y2="431.429" gradientUnits="userSpaceOnUse">
<stop stop-color="#0C1079"/>
<stop offset="1" stop-color="#45C87C"/>
</linearGradient>
<linearGradient id="paint2_linear_2_621" x1="558.296" y1="110.686" x2="558.296" y2="237.782" gradientUnits="userSpaceOnUse">
<stop stop-color="white" stop-opacity="0"/>
<stop offset="1" stop-color="#00EDBE"/>
</linearGradient>
<linearGradient id="paint3_linear_2_621" x1="716.316" y1="399.506" x2="716.316" y2="518.796" gradientUnits="userSpaceOnUse">
<stop stop-color="#0C1079"/>
<stop offset="1" stop-color="#45C87C"/>
</linearGradient>
<linearGradient id="paint4_linear_2_621" x1="304.857" y1="289.569" x2="304.857" y2="411.603" gradientUnits="userSpaceOnUse">
<stop stop-color="#0C1079"/>
<stop offset="1" stop-color="#45C87C"/>
</linearGradient>
<linearGradient id="paint5_linear_2_621" x1="303.036" y1="90.8599" x2="303.036" y2="217.956" gradientUnits="userSpaceOnUse">
<stop stop-color="white" stop-opacity="0"/>
<stop offset="1" stop-color="#00EDBE"/>
</linearGradient>
<linearGradient id="paint6_linear_2_621" x1="448.596" y1="373.83" x2="448.596" y2="495.865" gradientUnits="userSpaceOnUse">
<stop stop-color="#0C1079"/>
<stop offset="1" stop-color="#45C87C"/>
</linearGradient>
<linearGradient id="paint7_linear_2_621" x1="605.544" y1="463.121" x2="605.544" y2="583.709" gradientUnits="userSpaceOnUse">
<stop stop-color="#0C1079"/>
<stop offset="1" stop-color="#45C87C"/>
</linearGradient>
<linearGradient id="paint8_linear_2_621" x1="605.379" y1="264.338" x2="605.379" y2="391.434" gradientUnits="userSpaceOnUse">
<stop stop-color="white" stop-opacity="0"/>
<stop offset="1" stop-color="#00EDBE"/>
</linearGradient>
<linearGradient id="paint9_linear_2_621" x1="193.332" y1="351.525" x2="193.332" y2="473.559" gradientUnits="userSpaceOnUse">
<stop stop-color="#0C1079"/>
<stop offset="1" stop-color="#45C87C"/>
</linearGradient>
<linearGradient id="paint10_linear_2_621" x1="334.594" y1="435.786" x2="334.594" y2="557.82" gradientUnits="userSpaceOnUse">
<stop stop-color="#0C1079"/>
<stop offset="1" stop-color="#45C87C"/>
</linearGradient>
<linearGradient id="paint11_linear_2_621" x1="332.774" y1="218.381" x2="332.774" y2="345.477" gradientUnits="userSpaceOnUse">
<stop stop-color="white" stop-opacity="0"/>
<stop offset="1" stop-color="#00EDBE"/>
</linearGradient>
<linearGradient id="paint12_linear_2_621" x1="500.636" y1="520.047" x2="500.636" y2="642.082" gradientUnits="userSpaceOnUse">
<stop stop-color="#0C1079"/>
<stop offset="1" stop-color="#45C87C"/>
</linearGradient>
<linearGradient id="paint13_linear_2_621" x1="76.8551" y1="415.96" x2="76.8551" y2="537.995" gradientUnits="userSpaceOnUse">
<stop stop-color="#0C1079"/>
<stop offset="1" stop-color="#45C87C"/>
</linearGradient>
<linearGradient id="paint14_linear_2_621" x1="75.0343" y1="217.251" x2="75.0343" y2="344.347" gradientUnits="userSpaceOnUse">
<stop stop-color="white" stop-opacity="0"/>
<stop offset="1" stop-color="#00EDBE"/>
</linearGradient>
<linearGradient id="paint15_linear_2_621" x1="223.074" y1="497.743" x2="223.074" y2="619.778" gradientUnits="userSpaceOnUse">
<stop stop-color="#0C1079"/>
<stop offset="1" stop-color="#45C87C"/>
</linearGradient>
<linearGradient id="paint16_linear_2_621" x1="384.16" y1="584.482" x2="384.16" y2="706.517" gradientUnits="userSpaceOnUse">
<stop stop-color="#0C1079"/>
<stop offset="1" stop-color="#45C87C"/>
</linearGradient>
<linearGradient id="paint17_linear_2_621" x1="382.339" y1="385.774" x2="382.339" y2="512.87" gradientUnits="userSpaceOnUse">
<stop stop-color="white" stop-opacity="0"/>
<stop offset="1" stop-color="#00EDBE"/>
</linearGradient>
</defs>
</svg>
