<svg width="475" height="617" viewBox="0 0 475 617" fill="none" xmlns="http://www.w3.org/2000/svg">
<g filter="url(#filter0_dfor-learner_2095_2982)">
<g clip-path="url(#clip0for-learner_2095_2982)">
<rect width="228.197" height="415.697" rx="29.0697" transform="matrix(0.966235 0.257663 0 1 180.508 47)" fill="#EFEFEF"/>
<path d="M289.291 157.405C266.162 151.53 243.634 152.762 224.542 160.944C205.45 169.127 190.648 183.896 181.996 203.392C173.344 222.889 171.229 246.242 175.919 270.514C180.608 294.787 191.89 318.894 208.348 339.803C224.806 360.712 245.703 377.489 268.411 388.024C291.118 398.558 314.622 402.379 335.965 399.006C357.308 395.633 375.536 385.217 388.357 369.068C401.179 352.919 408.02 331.758 408.02 308.248C407.824 276.389 395.205 242.599 372.939 214.311C350.673 186.023 320.585 165.554 289.291 157.405Z" fill="#141BEB"/>
<path d="M289.645 177.17C270.265 172.247 251.389 173.258 235.392 180.075C219.396 186.893 206.993 199.214 199.743 215.486C192.494 231.759 190.722 251.257 194.651 271.528C198.58 291.799 208.034 311.937 221.824 329.409C235.613 346.881 253.123 360.906 272.149 369.72C291.176 378.533 310.869 381.742 328.752 378.942C346.635 376.142 361.909 367.459 372.651 353.984C383.394 340.509 389.126 322.846 389.126 303.215C388.962 276.613 378.389 248.389 359.732 224.751C341.076 201.113 315.865 183.998 289.645 177.17Z" fill="#00EDBE"/>
<path d="M328.961 250.37C328.695 245.323 329.893 240.698 332.405 237.082L252.212 215.698C251.493 215.503 250.781 215.454 250.116 215.553C249.451 215.652 248.846 215.897 248.336 216.274C247.826 216.65 247.421 217.152 247.143 217.75C246.866 218.347 246.722 219.029 246.719 219.756V237.119C246.722 237.847 246.866 238.606 247.143 239.352C247.421 240.097 247.826 240.815 248.336 241.464C248.846 242.112 249.451 242.68 250.116 243.133C250.781 243.587 251.493 243.918 252.212 244.107L332.405 265.491C329.893 260.536 328.695 255.272 328.961 250.367" fill="white"/>
<path d="M234.219 262.184C234.481 267.23 233.278 271.853 230.763 275.465L310.956 296.85C311.675 297.044 312.387 297.093 313.052 296.995C313.717 296.896 314.321 296.651 314.831 296.274C315.341 295.897 315.747 295.396 316.024 294.798C316.302 294.2 316.446 293.519 316.448 292.791V275.429C316.446 274.7 316.302 273.942 316.024 273.196C315.747 272.451 315.341 271.733 314.831 271.084C314.321 270.435 313.717 269.868 313.052 269.414C312.387 268.961 311.675 268.63 310.956 268.441L230.763 247.056C233.274 252.011 234.473 257.275 234.206 262.181" fill="white"/>
<path d="M328.961 324.519C328.695 319.472 329.893 314.847 332.405 311.231L252.212 289.847C251.493 289.652 250.781 289.603 250.116 289.702C249.451 289.801 248.846 290.046 248.336 290.423C247.826 290.799 247.421 291.301 247.143 291.899C246.866 292.496 246.722 293.178 246.719 293.905V311.267C246.722 311.996 246.866 312.755 247.143 313.5C247.421 314.246 247.826 314.964 248.336 315.613C248.846 316.261 249.451 316.829 250.116 317.282C250.781 317.736 251.493 318.066 252.212 318.256L332.405 339.64C329.893 334.685 328.695 329.421 328.961 324.516" fill="white"/>
<g clip-path="url(#clip1for-learner_2095_2982)">
<path d="M255.834 448.982C255.79 449.017 254.554 448.81 254.509 448.644C254.465 448.124 254.509 441.865 254.539 439.423C254.539 439.423 252.634 440.364 252.44 440.281C252.321 440.234 251.994 439.222 252.038 439.173C252.306 438.936 254.673 437.949 255.001 437.929C255.15 437.999 255.805 438.343 255.879 438.548C255.879 438.548 255.879 448.378 255.834 448.982ZM259.605 448.786L259.635 448.825L263.773 449.882C263.952 450.022 263.877 451.189 263.728 451.149C263.416 451.081 257.997 449.651 257.938 449.605C257.863 449.554 257.655 448.682 257.714 448.528C260.483 446.031 262.538 444.869 262.538 443.02C262.538 442.034 262.017 441.063 260.692 440.71C259.545 440.404 258.92 441.085 258.652 441.321C258.399 441.192 257.818 440.344 257.908 440.137C257.997 439.945 258.995 438.917 260.855 439.413C262.761 439.921 263.937 441.329 263.937 443.239C263.937 445.412 261.897 446.747 259.605 448.786ZM270.246 447.34V447.433C270.707 447.695 271.928 448.59 271.928 450.439C271.928 452.411 270.32 453.076 268.444 452.576C266.896 452.163 265.661 451.171 265.348 450.703C265.318 450.525 265.735 449.943 266.018 449.895C266.435 450.361 267.254 451.026 268.34 451.316C269.695 451.677 270.573 451.187 270.573 450.001C270.573 448.891 269.903 447.927 268.4 447.526C268.102 447.447 267.015 447.141 266.703 447.058C266.584 446.857 266.569 445.975 266.718 445.86C267.105 445.964 267.879 446.201 268.549 446.379C269.159 446.542 270.261 446.435 270.261 445.064C270.261 443.832 269.338 442.908 268.31 442.634C267.239 442.348 266.688 442.709 266.286 443.018C266.033 442.935 265.601 442.204 265.497 441.976C265.914 441.501 266.956 441.04 268.43 441.433C270.261 441.921 271.586 443.415 271.586 445.248C271.586 446.65 270.663 447.236 270.246 447.34ZM279.314 455.305C278.912 455.321 278.45 455.198 278.033 454.887L278.048 452.657C277.78 452.6 273.657 451.516 273.225 451.37C273.18 451.174 273.046 450.552 273.046 450.306C273.299 449.788 277.215 444.9 278.004 444.094C278.287 444.154 279.105 444.418 279.314 444.69L279.299 451.819C279.299 451.819 280.654 452.196 280.907 452.263C280.966 452.387 280.907 453.373 280.907 453.373C280.907 453.403 279.284 452.971 279.284 452.971C279.269 452.967 279.314 455.274 279.314 455.305ZM278.108 446.047L278.063 446.02C277.825 446.326 274.744 450.096 274.52 450.56L278.048 451.501L278.108 446.047ZM284.554 455.593C284.554 456.379 284.077 456.714 283.229 456.472C282.723 456.306 282.202 455.705 282.202 455.012C282.202 454.211 282.663 453.856 283.512 454.129C284.018 454.295 284.554 454.73 284.554 455.593ZM288.508 456.648C288.508 457.433 288.032 457.768 287.183 457.527C286.677 457.361 286.156 456.76 286.156 456.066C286.156 455.265 286.617 454.911 287.466 455.183C287.972 455.349 288.508 455.785 288.508 456.648ZM292.462 457.702C292.462 458.488 291.986 458.823 291.137 458.581C290.631 458.415 290.11 457.814 290.11 457.121C290.11 456.32 290.572 455.965 291.42 456.238C291.926 456.404 292.462 456.839 292.462 457.702ZM296.416 458.756C296.416 459.542 295.94 459.877 295.092 459.636C294.585 459.47 294.064 458.869 294.064 458.175C294.064 457.374 294.526 457.02 295.374 457.292C295.881 457.458 296.416 457.894 296.416 458.756ZM301.919 453.83C303.795 454.33 305.209 455.971 305.209 458.467C305.209 460.731 303.944 461.842 301.889 461.325C300.847 461.047 299.954 460.378 299.612 459.655C299.612 461.195 299.656 463.888 299.597 463.934C299.522 464.006 298.421 463.759 298.272 463.627C298.257 463.607 298.272 453.212 298.421 452.882C298.436 452.839 299.612 453.276 299.612 453.276C299.612 453.554 299.626 454.035 299.626 454.328C299.939 453.841 300.728 453.512 301.919 453.83ZM303.825 458.097C303.825 456.279 302.857 455.405 301.696 455.095C300.237 454.706 299.552 455.479 299.552 456.927C299.552 458.637 300.564 459.739 301.696 460.041C303.11 460.418 303.825 459.653 303.825 458.097ZM311.968 458.821L311.923 458.747C311.476 459.275 310.792 459.755 309.467 459.402C308.082 459.032 306.445 457.641 306.445 455.175C306.445 452.757 308.023 452.022 310.003 452.55C311.655 452.99 313.427 454.834 313.427 458.07C313.427 462.353 310.583 463.335 308.827 463.345C308.573 463.277 307.918 462.44 307.918 462.132C310.196 462.185 311.878 460.877 311.968 458.821ZM311.893 456.659C311.893 455.334 311.268 454.074 309.869 453.7C308.425 453.315 307.695 454.122 307.695 455.386C307.695 456.649 308.32 457.956 309.75 458.337C311.268 458.742 311.893 457.768 311.893 456.659ZM316.472 459.667L316.517 459.741C316.963 459.213 317.663 458.706 318.973 459.056C320.387 459.433 322.04 460.829 322.04 463.294C322.04 465.713 320.447 466.443 318.467 465.915C316.799 465.471 315.013 463.623 315.013 460.388C315.013 456.105 317.871 455.126 319.658 455.124C319.896 455.188 320.566 456.029 320.566 456.337C318.273 456.281 316.546 457.607 316.472 459.667ZM316.561 461.802C316.561 463.127 317.187 464.388 318.601 464.765C320.06 465.154 320.789 464.347 320.789 463.083C320.789 461.82 320.164 460.498 318.72 460.113C317.187 459.704 316.561 460.693 316.561 461.802ZM323.446 461.142C323.506 460.865 324.384 459.851 326.17 460.328C328.106 460.844 329.088 462.277 329.088 464.495C329.088 465.959 329.014 468.404 328.969 468.469C328.924 468.55 327.882 468.18 327.882 468.18L327.808 467.482C327.48 467.749 326.825 468.036 325.813 467.766C323.982 467.278 323.208 465.962 323.208 464.807C323.208 463.328 324.384 462.702 325.947 463.118C326.825 463.353 327.451 463.828 327.778 464.285C327.778 462.744 327.451 461.933 326.021 461.551C324.711 461.202 324.384 461.993 324.25 461.988C324.131 461.972 323.431 461.215 323.446 461.142ZM324.399 465.078C324.399 465.879 325.098 466.59 326.081 466.852C327.183 467.146 327.778 466.642 327.778 465.949C327.778 465.07 327.049 464.383 326.051 464.117C325.069 463.855 324.399 464.308 324.399 465.078Z" fill="#141BEB"/>
</g>
<rect x="0.702205" y="0.913998" width="164.645" height="35.9584" rx="17.9792" transform="matrix(0.966235 0.257663 0 1 211.135 412.731)" stroke="#141BEB" stroke-width="1.45349"/>
<g clip-path="url(#clip2for-learner_2095_2982)">
<path d="M230.277 94.6431C227.695 93.9872 225.181 94.1214 223.05 95.0287C220.919 95.9361 219.267 97.5762 218.301 99.7425C217.335 101.909 217.099 104.505 217.623 107.204C218.146 109.903 219.405 112.584 221.242 114.91C223.079 117.237 225.412 119.104 227.946 120.278C230.481 121.452 233.104 121.88 235.487 121.507C237.869 121.135 239.904 119.979 241.335 118.185C242.766 116.391 243.529 114.04 243.529 111.426C243.508 107.885 242.099 104.127 239.614 100.979C237.128 97.8319 233.77 95.5527 230.277 94.6431Z" fill="#141BEB"/>
<path d="M235.513 104.389C235.477 103.717 235.637 103.101 235.971 102.62L225.289 99.7708C225.193 99.7449 225.098 99.7384 225.009 99.7515C224.921 99.7647 224.84 99.7972 224.772 99.8474C224.704 99.8976 224.65 99.9643 224.613 100.044C224.576 100.123 224.557 100.214 224.557 100.311V102.623C224.557 102.72 224.576 102.821 224.613 102.92C224.65 103.019 224.704 103.115 224.772 103.201C224.84 103.288 224.921 103.363 225.009 103.423C225.098 103.484 225.193 103.528 225.289 103.553L235.971 106.402C235.637 105.742 235.477 105.041 235.513 104.388" fill="#00EDBE"/>
<path d="M222.895 105.959C222.93 106.631 222.769 107.247 222.434 107.728L233.117 110.576C233.213 110.602 233.308 110.609 233.396 110.596C233.485 110.583 233.565 110.55 233.633 110.5C233.701 110.45 233.755 110.383 233.792 110.303C233.829 110.224 233.848 110.133 233.849 110.036V107.725C233.848 107.628 233.829 107.527 233.792 107.427C233.755 107.328 233.701 107.232 233.633 107.146C233.565 107.06 233.485 106.984 233.396 106.924C233.308 106.863 233.213 106.819 233.117 106.794L222.434 103.945C222.769 104.605 222.928 105.306 222.893 105.959" fill="#00EDBE"/>
<path d="M235.513 114.259C235.477 113.587 235.637 112.971 235.971 112.49L225.289 109.641C225.193 109.615 225.098 109.608 225.009 109.622C224.921 109.635 224.84 109.667 224.772 109.718C224.704 109.768 224.65 109.834 224.613 109.914C224.576 109.994 224.557 110.084 224.557 110.181V112.493C224.557 112.59 224.576 112.691 224.613 112.79C224.65 112.889 224.704 112.985 224.772 113.071C224.84 113.158 224.921 113.233 225.009 113.294C225.098 113.354 225.193 113.398 225.289 113.423L235.971 116.272C235.637 115.612 235.477 114.911 235.513 114.258" fill="#00EDBE"/>
</g>
<path d="M258.355 109.674C261.482 110.508 263.521 113.224 263.521 116.814C263.521 119.542 261.958 121.914 258.4 120.965C255.229 120.119 253.249 117.265 253.249 113.829C253.249 111.04 254.946 108.765 258.355 109.674ZM260.678 115.856C260.678 113.791 259.725 112.551 258.4 112.198C256.866 111.789 256.003 112.806 256.003 114.717C256.003 116.443 256.911 118.041 258.34 118.422C259.933 118.847 260.678 117.782 260.678 115.856ZM269.342 115.917C271.099 116.385 272.602 118.142 272.602 120.7C272.602 123.165 270.995 124.108 269.163 123.635C268.181 123.373 267.362 122.677 267.243 122.445C267.243 122.953 267.302 126.236 267.168 126.292C267.034 126.364 264.995 125.913 264.712 125.683C264.667 125.656 264.757 114.987 264.891 114.683C264.905 114.641 267.124 115.356 267.124 115.356C267.124 115.448 267.109 116.092 267.109 116.184C267.213 116.027 268.002 115.559 269.342 115.917ZM270.086 120.06C270.086 119.012 269.476 118.294 268.672 118.08C267.66 117.81 267.183 118.346 267.183 119.27C267.183 120.287 267.868 121.086 268.613 121.284C269.55 121.535 270.086 121.015 270.086 120.06ZM275.735 122.151C275.735 122.968 276.301 123.627 277.328 123.901C278.132 124.116 278.683 123.97 279.07 123.827C279.219 124.02 279.829 125.462 279.844 125.697C279.442 125.975 278.415 126.194 277.209 125.873C274.514 125.154 273.427 123 273.427 121.028C273.427 118.948 274.678 117.34 277.015 117.963C278.995 118.491 280.201 120.353 280.201 122.079C280.201 122.557 280.156 122.945 280.067 123.23C279.323 123.139 276.628 122.42 275.735 122.151ZM275.72 120.73L278.057 121.307C278.087 120.56 277.715 119.875 277 119.685C276.226 119.478 275.72 119.944 275.72 120.73ZM281.301 119.368C281.435 119.203 283.52 119.667 283.654 119.841C283.639 120.161 283.624 120.665 283.609 120.754C283.937 120.332 284.666 119.957 285.872 120.278C287.495 120.711 288.507 122.322 288.507 124.309C288.507 125.342 288.448 127.93 288.388 128.669C288.373 128.819 286.14 128.193 286.095 128.15C286.036 128.103 286.11 124.487 286.11 123.932C286.11 123.1 285.753 122.419 284.979 122.213C284.16 121.994 283.669 122.526 283.669 123.127C283.669 123.651 283.654 127.345 283.609 127.394C283.564 127.444 281.391 126.834 281.346 126.729C281.316 126.66 281.257 122.622 281.301 119.368ZM295.376 125.17C295.376 127.374 296.686 128.601 297.951 128.939C299.157 129.26 299.976 128.816 300.303 128.657C300.646 128.995 301.301 130.417 301.539 131.005C300.899 131.589 299.395 131.928 297.683 131.471C294.199 130.542 292.577 127.536 292.577 124.316C292.577 121.219 294.691 119.394 298.07 120.296C299.782 120.752 301.018 121.636 301.48 122.222C301.48 122.53 300.854 124.027 300.482 124.252C299.946 123.785 299.038 123.127 298.1 122.877C296.567 122.468 295.376 123.414 295.376 125.17ZM302.26 126.328C302.275 126.07 303.257 124.884 305.252 125.416C307.098 125.908 308.528 127.414 308.528 129.664C308.528 131.312 308.453 133.85 308.409 133.931C308.364 134.011 306.488 133.418 306.488 133.418L306.354 132.72C306.25 132.8 305.625 133.373 304.448 133.059C302.826 132.627 302.141 131.458 302.141 130.118C302.141 128.731 303.317 128.166 304.806 128.563C305.491 128.746 305.907 129.057 306.19 129.348C306.205 128.69 306.235 127.789 304.895 127.431C303.972 127.185 303.54 127.748 303.406 127.728C303.272 127.692 302.245 126.494 302.26 126.328ZM304.136 130.603C304.136 131.112 304.553 131.577 305.103 131.724C305.759 131.899 306.086 131.586 306.086 131.123C306.086 130.584 305.654 130.13 305.103 129.983C304.523 129.828 304.136 130.11 304.136 130.603ZM309.987 126.925C310.121 126.729 312.205 127.424 312.339 127.598C312.324 127.918 312.309 128.33 312.294 128.418C312.622 127.997 313.188 127.609 314.393 127.93C315.227 128.153 315.897 128.763 316.299 129.548C316.805 128.758 317.937 128.875 318.547 129.038C320.423 129.538 321.257 131.04 321.257 133.012C321.257 134.059 321.197 136.709 321.153 137.421C321.138 137.556 318.875 136.953 318.83 136.895C318.785 136.852 318.86 133.343 318.86 132.619C318.86 131.864 318.666 131.242 317.877 131.032C317.058 130.814 316.82 131.582 316.82 132.06C316.82 133.169 316.775 135.438 316.731 136.196C316.716 136.331 314.468 135.639 314.438 135.6C314.379 135.553 314.453 131.968 314.453 131.444C314.453 130.689 314.245 130.063 313.47 129.857C312.696 129.65 312.369 130.241 312.369 130.734C312.369 131.181 312.339 135.071 312.294 135.121C312.25 135.171 310.076 134.56 310.031 134.456C310.002 134.386 309.942 130.179 309.987 126.925ZM327.338 131.382C329.094 131.851 330.598 133.608 330.598 136.165C330.598 138.631 328.99 139.573 327.159 139.1C326.176 138.838 325.358 138.142 325.238 137.91C325.238 138.419 325.298 141.701 325.164 141.758C325.03 141.83 322.99 141.378 322.707 141.149C322.663 141.122 322.752 130.452 322.886 130.149C322.901 130.107 325.119 130.821 325.119 130.821C325.119 130.914 325.104 131.557 325.104 131.65C325.209 131.492 325.998 131.025 327.338 131.382ZM328.082 135.525C328.082 134.477 327.472 133.76 326.668 133.546C325.655 133.276 325.179 133.811 325.179 134.736C325.179 135.753 325.864 136.551 326.608 136.75C327.546 137 328.082 136.48 328.082 135.525ZM338.748 142.067C338.614 142.232 336.678 141.654 336.529 141.476C336.544 141.156 336.529 140.705 336.544 140.601C336.217 141.007 335.457 141.452 334.341 141.154C332.539 140.674 331.676 139.303 331.676 137.146C331.676 136.037 331.825 133.442 331.869 132.729C331.899 132.583 334.132 133.21 334.177 133.268C334.207 133.445 334.058 136.918 334.058 137.519C334.058 138.382 334.415 139.001 335.189 139.208C336.008 139.426 336.44 138.894 336.455 138.22C336.455 137.773 336.514 133.999 336.574 133.953C336.619 133.903 338.777 134.51 338.837 134.618C338.852 134.684 338.807 138.801 338.748 142.067ZM343.068 143.512C341.579 143.115 340.224 142.137 340.016 141.851C339.896 141.665 340.581 140.168 340.7 140.261C340.939 140.448 341.862 141.388 342.815 141.642C343.41 141.801 343.708 141.664 343.708 141.325C343.708 140.986 343.47 140.738 342.502 140.295C340.834 139.558 340.06 138.627 340.06 137.333C340.06 135.684 341.147 135.019 342.978 135.507C344.348 135.872 345.554 136.671 345.747 136.923C345.881 137.098 345.197 138.533 345.092 138.52C345.018 138.501 344.065 137.646 343.202 137.415C342.621 137.261 342.368 137.486 342.368 137.794C342.368 138.133 342.621 138.354 343.484 138.708C345.256 139.442 346.045 140.285 346.045 141.717C346.045 143.073 345.152 144.068 343.068 143.512Z" fill="#141BEB"/>
<path d="M350.368 134.504C350.844 134.446 352.928 135.063 353.018 135.18C353.122 135.854 353.107 144.941 353.003 145.9C352.913 146.153 350.368 145.366 350.353 145.255C350.293 144.145 350.248 135.951 350.368 134.504ZM355.033 146.395C354.959 145.45 355.018 136.853 355.137 135.745C355.48 135.744 357.222 136.177 358.398 136.491C361.882 137.42 364.011 140.33 364.011 143.458C364.011 146.678 362.343 148.56 358.264 147.472C356.998 147.135 355.361 146.59 355.033 146.395ZM361.256 142.862C361.256 141.028 360.05 139.489 358.428 139.057C358.085 138.965 357.832 138.913 357.639 138.877C357.653 140.653 357.609 142.952 357.579 144.716C357.847 144.834 358.16 144.933 358.532 145.032C359.693 145.342 361.256 145.373 361.256 142.862Z" fill="#00EDBE"/>
</g>
<rect x="0.627509" y="0.816773" width="226.898" height="414.398" rx="28.4203" transform="matrix(0.966235 0.257663 0 1 180.529 46.8383)" stroke="url(#paint0_linearfor-learner_2095_2982)" stroke-width="1.29887"/>
</g>
<g filter="url(#filter1_dfor-learner_2095_2982)">
<g clip-path="url(#clip3for-learner_2095_2982)">
<rect width="228.197" height="415.697" rx="30.0918" transform="matrix(0.966235 0.257663 0 1 91.7253 91.3916)" fill="#00CCA4"/>
<path opacity="0.8" d="M200.508 201.797C177.379 195.922 154.851 197.153 135.759 205.336C116.668 213.519 101.865 228.288 93.2132 247.784C84.5613 267.28 82.4469 290.633 87.136 314.906C91.8251 339.178 103.108 363.285 119.566 384.194C136.023 405.103 156.92 421.881 179.628 432.415C202.336 442.95 225.84 446.771 247.182 443.398C268.525 440.025 286.754 429.608 299.575 413.459C312.396 397.31 319.237 376.15 319.238 352.64C319.041 320.781 306.422 286.991 284.157 258.703C261.891 230.415 231.802 209.945 200.508 201.797Z" fill="#141BEB"/>
<path d="M200.862 221.562C181.482 216.638 162.606 217.649 146.61 224.467C130.613 231.285 118.21 243.605 110.961 259.878C103.711 276.151 101.94 295.649 105.869 315.92C109.798 336.191 119.251 356.329 133.041 373.801C146.831 391.272 164.34 405.298 183.367 414.111C202.393 422.925 222.087 426.134 239.97 423.334C257.853 420.534 273.126 411.85 283.869 398.376C294.612 384.901 300.344 367.237 300.344 347.606C300.179 321.004 289.606 292.78 270.95 269.143C252.294 245.505 227.083 228.39 200.862 221.562Z" fill="#141BEB"/>
<path d="M240.179 294.761C239.913 289.714 241.111 285.089 243.622 281.473L163.429 260.089C162.711 259.894 161.998 259.845 161.333 259.944C160.668 260.043 160.064 260.288 159.554 260.665C159.044 261.042 158.638 261.543 158.361 262.141C158.083 262.738 157.939 263.42 157.937 264.147V281.51C157.939 282.238 158.083 282.997 158.361 283.743C158.638 284.488 159.044 285.206 159.554 285.855C160.064 286.504 160.668 287.071 161.333 287.525C161.998 287.978 162.711 288.309 163.429 288.498L243.622 309.882C241.111 304.927 239.913 299.663 240.179 294.758" fill="white"/>
<path d="M145.437 306.575C145.699 311.621 144.496 316.243 141.981 319.856L222.174 341.241C222.892 341.435 223.605 341.484 224.269 341.385C224.934 341.286 225.539 341.041 226.049 340.665C226.559 340.288 226.965 339.786 227.242 339.189C227.519 338.591 227.663 337.909 227.666 337.182V319.82C227.663 319.091 227.519 318.332 227.242 317.587C226.965 316.841 226.559 316.123 226.049 315.475C225.539 314.826 224.934 314.258 224.269 313.805C223.605 313.351 222.892 313.021 222.174 312.832L141.981 291.447C144.492 296.402 145.69 301.666 145.424 306.571" fill="white"/>
<path d="M240.179 368.911C239.913 363.864 241.111 359.239 243.622 355.623L163.429 334.238C162.711 334.044 161.998 333.995 161.333 334.094C160.668 334.192 160.064 334.437 159.554 334.814C159.044 335.191 158.638 335.693 158.361 336.29C158.083 336.888 157.939 337.569 157.937 338.297V355.659C157.939 356.388 158.083 357.147 158.361 357.892C158.638 358.638 159.044 359.355 159.554 360.004C160.064 360.653 160.668 361.22 161.333 361.674C161.998 362.127 162.711 362.458 163.429 362.647L243.622 384.032C241.111 379.077 239.913 373.813 240.179 368.908" fill="white"/>
<g clip-path="url(#clip4for-learner_2095_2982)">
<path d="M164.153 492.601C164.109 492.635 162.873 492.429 162.828 492.263C162.784 491.743 162.828 485.484 162.858 483.042C162.858 483.042 160.953 483.982 160.759 483.9C160.64 483.853 160.312 482.841 160.357 482.791C160.625 482.555 162.992 481.568 163.32 481.547C163.468 481.618 164.123 481.962 164.198 482.167C164.198 482.167 164.198 491.996 164.153 492.601ZM167.924 492.405L167.953 492.443L172.092 493.501C172.271 493.641 172.196 494.807 172.047 494.768C171.735 494.7 166.316 493.27 166.256 493.223C166.182 493.173 165.974 492.301 166.033 492.147C168.802 489.65 170.856 488.488 170.856 486.639C170.856 485.653 170.335 484.682 169.01 484.328C167.864 484.023 167.239 484.703 166.971 484.94C166.718 484.811 166.137 483.963 166.227 483.756C166.316 483.564 167.313 482.535 169.174 483.032C171.08 483.54 172.256 484.947 172.256 486.858C172.256 489.03 170.216 490.366 167.924 492.405ZM178.565 490.959V491.051C179.026 491.313 180.247 492.209 180.247 494.058C180.247 496.03 178.639 496.695 176.763 496.195C175.215 495.782 173.979 494.79 173.667 494.321C173.637 494.144 174.054 493.562 174.337 493.514C174.754 493.979 175.572 494.645 176.659 494.934C178.014 495.296 178.892 494.806 178.892 493.619C178.892 492.51 178.222 491.546 176.719 491.145C176.421 491.065 175.334 490.76 175.022 490.677C174.902 490.475 174.888 489.593 175.036 489.479C175.423 489.582 176.198 489.819 176.867 489.998C177.478 490.161 178.579 490.054 178.579 488.683C178.579 487.45 177.656 486.526 176.629 486.252C175.557 485.966 175.007 486.328 174.605 486.637C174.352 486.554 173.92 485.822 173.816 485.594C174.233 485.12 175.275 484.658 176.748 485.051C178.579 485.54 179.904 487.033 179.904 488.867C179.904 490.269 178.981 490.854 178.565 490.959ZM187.633 498.924C187.231 498.94 186.769 498.817 186.352 498.505L186.367 496.275C186.099 496.219 181.976 495.135 181.544 494.989C181.499 494.792 181.365 494.171 181.365 493.924C181.618 493.407 185.534 488.519 186.323 487.712C186.605 487.772 187.424 488.037 187.633 488.308L187.618 495.438C187.618 495.438 188.972 495.814 189.225 495.882C189.285 496.006 189.225 496.991 189.225 496.991C189.225 497.022 187.603 496.589 187.603 496.589C187.588 496.585 187.633 498.893 187.633 498.924ZM186.427 489.666L186.382 489.639C186.144 489.945 183.062 493.715 182.839 494.179L186.367 495.12L186.427 489.666ZM192.872 499.212C192.872 499.997 192.396 500.333 191.548 500.091C191.041 499.925 190.52 499.324 190.52 498.631C190.52 497.83 190.982 497.475 191.83 497.747C192.337 497.913 192.872 498.349 192.872 499.212ZM196.827 500.266C196.827 501.052 196.35 501.387 195.502 501.145C194.996 500.98 194.475 500.378 194.475 499.685C194.475 498.884 194.936 498.529 195.785 498.802C196.291 498.968 196.827 499.403 196.827 500.266ZM200.781 501.321C200.781 502.106 200.305 502.442 199.456 502.2C198.95 502.034 198.429 501.433 198.429 500.74C198.429 499.938 198.89 499.584 199.739 499.856C200.245 500.022 200.781 500.458 200.781 501.321ZM204.735 502.375C204.735 503.161 204.259 503.496 203.41 503.254C202.904 503.089 202.383 502.487 202.383 501.794C202.383 500.993 202.845 500.638 203.693 500.911C204.199 501.077 204.735 501.512 204.735 502.375ZM212.62 505.695C212.53 505.84 211.518 505.509 211.414 505.342C211.429 505.038 211.429 504.499 211.444 504.411C211.042 504.889 210.104 505.178 209.166 504.928C207.275 504.424 206.472 503.054 206.472 501.205C206.472 500.034 206.635 497.351 206.695 496.658C206.739 496.469 207.871 496.894 207.96 496.964C207.96 497.411 207.782 500.661 207.782 501.493C207.782 502.648 208.347 503.477 209.449 503.786C210.64 504.104 211.384 503.439 211.414 502.353C211.429 501.849 211.518 498.052 211.563 498.002C211.607 497.937 212.754 498.274 212.813 498.366C212.813 498.428 212.709 502.56 212.62 505.695ZM214.595 503.125C214.595 501.753 215.607 501.068 216.396 501.001C215.637 500.46 214.878 499.41 214.878 498.254C214.878 496.205 216.336 495.639 218.138 496.119C220.043 496.628 221.487 497.999 221.487 500.048C221.487 501.173 220.817 501.826 220.133 501.951C220.877 502.458 221.845 503.687 221.845 505.135C221.845 507.138 220.267 507.826 218.316 507.306C216.128 506.723 214.595 505.343 214.595 503.125ZM218.153 500.9C219.537 501.269 220.177 500.823 220.177 499.76C220.177 498.666 219.611 497.668 218.227 497.299C216.738 496.902 216.128 497.586 216.128 498.572C216.128 499.528 216.738 500.522 218.153 500.9ZM215.979 503.448C215.979 504.649 216.664 505.679 218.227 506.096C219.82 506.521 220.49 505.76 220.49 504.758C220.49 503.603 219.85 502.508 218.257 502.083C216.604 501.642 215.979 502.4 215.979 503.448ZM229.91 501.539L229.836 501.519C229.121 504.148 227.603 509.413 227.469 509.547C227.35 509.638 226.322 509.41 225.995 509.246C225.92 509.195 223.345 498.571 223.256 497.777C223.345 497.523 224.551 497.799 224.581 497.915C224.655 498.227 226.575 505.919 226.784 507.423C226.799 507.427 226.829 507.419 226.843 507.423C227.171 506.124 228.749 500.521 229.181 499.234C229.389 499.181 230.491 499.46 230.55 499.584C230.848 500.557 232.5 507.653 232.813 508.984C232.828 508.988 232.858 508.981 232.873 508.985C233.126 507.681 234.778 501.666 235.091 500.763C235.284 500.753 236.386 501.124 236.401 501.344C236.177 502.409 233.84 510.907 233.706 511.133C233.572 511.251 232.396 510.999 232.232 510.863C232.084 510.562 230.357 503.707 229.91 501.539ZM239.493 511.49L239.523 511.529L243.662 512.586C243.84 512.726 243.766 513.893 243.617 513.853C243.304 513.785 237.886 512.355 237.826 512.309C237.752 512.258 237.543 511.386 237.603 511.232C240.372 508.735 242.426 507.573 242.426 505.724C242.426 504.738 241.905 503.767 240.58 503.414C239.434 503.108 238.809 503.789 238.541 504.025C238.288 503.896 237.707 503.048 237.796 502.841C237.886 502.649 238.883 501.621 240.744 502.117C242.649 502.625 243.825 504.033 243.825 505.943C243.825 508.115 241.786 509.451 239.493 511.49Z" fill="white"/>
</g>
<rect x="0.702205" y="0.913998" width="170.645" height="35.9584" rx="17.9792" transform="matrix(0.966235 0.257663 0 1 119.453 456.349)" stroke="white" stroke-width="1.45349"/>
<g clip-path="url(#clip5for-learner_2095_2982)">
<path d="M141.495 139.035C138.913 138.379 136.399 138.513 134.268 139.421C132.137 140.328 130.484 141.968 129.519 144.135C128.553 146.301 128.317 148.897 128.84 151.596C129.364 154.295 130.623 156.976 132.46 159.302C134.297 161.629 136.63 163.496 139.164 164.67C141.699 165.844 144.322 166.272 146.705 165.899C149.087 165.527 151.121 164.371 152.552 162.577C153.984 160.784 154.747 158.432 154.747 155.818C154.725 152.277 153.317 148.519 150.832 145.371C148.346 142.224 144.988 139.945 141.495 139.035Z" fill="#141BEB"/>
<path d="M146.73 148.78C146.695 148.108 146.854 147.493 147.189 147.011L136.506 144.162C136.41 144.137 136.315 144.13 136.227 144.143C136.138 144.156 136.058 144.189 135.99 144.239C135.922 144.289 135.868 144.356 135.831 144.435C135.794 144.515 135.775 144.606 135.774 144.703V147.014C135.775 147.111 135.794 147.212 135.831 147.312C135.868 147.411 135.922 147.506 135.99 147.593C136.058 147.679 136.138 147.755 136.227 147.815C136.315 147.875 136.41 147.92 136.506 147.945L147.189 150.793C146.854 150.134 146.695 149.433 146.73 148.78" fill="#00EDBE"/>
<path d="M134.112 150.351C134.147 151.023 133.987 151.638 133.652 152.119L144.335 154.968C144.43 154.994 144.525 155 144.614 154.987C144.702 154.974 144.783 154.942 144.851 154.891C144.919 154.841 144.973 154.774 145.01 154.695C145.047 154.615 145.066 154.525 145.066 154.428V152.116C145.066 152.019 145.047 151.918 145.01 151.819C144.973 151.72 144.919 151.624 144.851 151.538C144.783 151.451 144.702 151.376 144.614 151.315C144.525 151.255 144.43 151.211 144.335 151.186L133.652 148.337C133.986 148.997 134.146 149.698 134.111 150.351" fill="#00EDBE"/>
<path d="M146.73 158.65C146.695 157.978 146.854 157.363 147.189 156.881L136.506 154.033C136.41 154.007 136.315 154 136.227 154.013C136.138 154.026 136.058 154.059 135.99 154.109C135.922 154.159 135.868 154.226 135.831 154.306C135.794 154.385 135.775 154.476 135.774 154.573V156.884C135.775 156.981 135.794 157.082 135.831 157.182C135.868 157.281 135.922 157.376 135.99 157.463C136.058 157.549 136.138 157.625 136.227 157.685C136.315 157.746 136.41 157.79 136.506 157.815L147.189 160.664C146.854 160.004 146.695 159.303 146.73 158.65" fill="#00EDBE"/>
</g>
<path d="M169.573 154.066C172.699 154.899 174.739 157.616 174.739 161.206C174.739 163.933 173.176 166.305 169.617 165.356C166.446 164.511 164.466 161.656 164.466 158.22C164.466 155.431 166.163 153.157 169.573 154.066ZM171.895 160.247C171.895 158.183 170.942 156.943 169.617 156.589C168.084 156.18 167.22 157.198 167.22 159.109C167.22 160.834 168.129 162.432 169.558 162.814C171.151 163.238 171.895 162.173 171.895 160.247ZM180.56 160.308C182.316 160.777 183.82 162.534 183.82 165.091C183.82 167.557 182.212 168.499 180.381 168.026C179.398 167.764 178.579 167.068 178.46 166.836C178.46 167.345 178.52 170.627 178.386 170.684C178.252 170.756 176.212 170.304 175.929 170.075C175.885 170.048 175.974 159.378 176.108 159.075C176.123 159.033 178.341 159.748 178.341 159.748C178.341 159.84 178.326 160.483 178.326 160.576C178.431 160.419 179.22 159.951 180.56 160.308ZM181.304 164.451C181.304 163.404 180.694 162.686 179.89 162.472C178.877 162.202 178.401 162.737 178.401 163.662C178.401 164.679 179.086 165.478 179.83 165.676C180.768 165.926 181.304 165.407 181.304 164.451ZM186.952 166.543C186.952 167.36 187.518 168.019 188.545 168.293C189.349 168.507 189.9 168.361 190.287 168.218C190.436 168.412 191.046 169.854 191.061 170.089C190.659 170.367 189.632 170.586 188.426 170.264C185.732 169.546 184.645 167.391 184.645 165.419C184.645 163.339 185.895 161.731 188.233 162.354C190.213 162.883 191.419 164.745 191.419 166.471C191.419 166.948 191.374 167.337 191.285 167.621C190.54 167.531 187.846 166.812 186.952 166.543ZM186.937 165.122L189.275 165.699C189.305 164.952 188.932 164.267 188.218 164.076C187.444 163.87 186.937 164.336 186.937 165.122ZM192.519 163.759C192.653 163.595 194.737 164.058 194.871 164.233C194.856 164.552 194.841 165.057 194.827 165.145C195.154 164.724 195.884 164.349 197.09 164.67C198.712 165.103 199.725 166.713 199.725 168.701C199.725 169.733 199.665 172.321 199.606 173.06C199.591 173.211 197.358 172.584 197.313 172.542C197.253 172.495 197.328 168.878 197.328 168.324C197.328 167.492 196.97 166.811 196.196 166.604C195.377 166.386 194.886 166.918 194.886 167.519C194.886 168.042 194.871 171.736 194.827 171.786C194.782 171.836 192.608 171.225 192.564 171.121C192.534 171.051 192.474 167.014 192.519 163.759ZM206.593 169.562C206.593 171.765 207.903 172.993 209.169 173.33C210.375 173.652 211.193 173.208 211.521 173.048C211.863 173.386 212.518 174.809 212.757 175.396C212.116 175.981 210.613 176.319 208.901 175.863C205.417 174.934 203.794 171.928 203.794 168.708C203.794 165.611 205.908 163.786 209.288 164.687C211 165.144 212.236 166.028 212.697 166.613C212.697 166.922 212.072 168.419 211.7 168.643C211.164 168.177 210.255 167.518 209.318 167.268C207.784 166.859 206.593 167.805 206.593 169.562ZM213.477 170.72C213.492 170.462 214.475 169.275 216.47 169.807C218.316 170.3 219.745 171.806 219.745 174.055C219.745 175.704 219.671 178.242 219.626 178.322C219.581 178.403 217.706 177.81 217.706 177.81L217.572 177.112C217.467 177.192 216.842 177.765 215.666 177.451C214.043 177.018 213.358 175.85 213.358 174.509C213.358 173.122 214.534 172.558 216.023 172.955C216.708 173.137 217.125 173.449 217.408 173.74C217.423 173.081 217.452 172.18 216.113 171.823C215.19 171.577 214.758 172.14 214.624 172.119C214.49 172.084 213.463 170.885 213.477 170.72ZM215.353 174.995C215.353 175.503 215.77 175.969 216.321 176.116C216.976 176.29 217.304 175.977 217.304 175.515C217.304 174.976 216.872 174.522 216.321 174.375C215.74 174.22 215.353 174.502 215.353 174.995ZM221.204 171.316C221.338 171.121 223.422 171.815 223.556 171.99C223.542 172.309 223.527 172.722 223.512 172.81C223.839 172.389 224.405 172 225.611 172.322C226.445 172.544 227.115 173.154 227.517 173.94C228.023 173.15 229.154 173.267 229.765 173.43C231.641 173.93 232.474 175.431 232.474 177.403C232.474 178.451 232.415 181.101 232.37 181.813C232.355 181.948 230.092 181.344 230.048 181.286C230.003 181.243 230.077 177.735 230.077 177.011C230.077 176.256 229.884 175.634 229.095 175.424C228.276 175.205 228.038 175.974 228.038 176.451C228.038 177.561 227.993 179.829 227.948 180.588C227.933 180.722 225.685 180.031 225.656 179.992C225.596 179.945 225.671 176.359 225.671 175.836C225.671 175.081 225.462 174.455 224.688 174.248C223.914 174.042 223.586 174.633 223.586 175.126C223.586 175.572 223.556 179.463 223.512 179.513C223.467 179.562 221.294 178.952 221.249 178.847C221.219 178.778 221.16 174.571 221.204 171.316ZM238.555 175.774C240.312 176.242 241.816 177.999 241.816 180.557C241.816 183.022 240.208 183.965 238.376 183.492C237.394 183.23 236.575 182.534 236.456 182.302C236.456 182.81 236.515 186.093 236.381 186.149C236.248 186.221 234.208 185.77 233.925 185.54C233.88 185.513 233.97 174.844 234.104 174.541C234.119 174.498 236.337 175.213 236.337 175.213C236.337 175.306 236.322 175.949 236.322 176.041C236.426 175.884 237.215 175.417 238.555 175.774ZM239.3 179.917C239.3 178.869 238.689 178.152 237.885 177.937C236.873 177.667 236.396 178.203 236.396 179.127C236.396 180.144 237.081 180.943 237.826 181.142C238.764 181.392 239.3 180.872 239.3 179.917ZM249.965 186.459C249.831 186.623 247.896 186.046 247.747 185.867C247.762 185.548 247.747 185.097 247.762 184.993C247.434 185.399 246.675 185.843 245.558 185.546C243.757 185.065 242.893 183.695 242.893 181.538C242.893 180.428 243.042 177.833 243.087 177.121C243.117 176.975 245.35 177.601 245.395 177.659C245.424 177.837 245.275 181.31 245.275 181.911C245.275 182.774 245.633 183.393 246.407 183.599C247.226 183.818 247.657 183.286 247.672 182.612C247.672 182.165 247.732 178.39 247.791 178.345C247.836 178.295 249.995 178.901 250.054 179.01C250.069 179.075 250.025 183.193 249.965 186.459ZM254.285 187.904C252.796 187.507 251.442 186.529 251.233 186.242C251.114 186.056 251.799 184.56 251.918 184.653C252.156 184.84 253.079 185.779 254.032 186.033C254.628 186.192 254.925 186.056 254.925 185.717C254.925 185.378 254.687 185.13 253.719 184.687C252.052 183.949 251.278 183.019 251.278 181.724C251.278 180.076 252.365 179.41 254.196 179.898C255.565 180.264 256.771 181.063 256.965 181.315C257.099 181.489 256.414 182.924 256.31 182.912C256.235 182.892 255.283 182.037 254.419 181.807C253.838 181.652 253.585 181.877 253.585 182.186C253.585 182.525 253.838 182.746 254.702 183.1C256.474 183.834 257.263 184.676 257.263 186.109C257.263 187.465 256.369 188.459 254.285 187.904Z" fill="white"/>
<path d="M261.585 178.895C262.062 178.837 264.146 179.455 264.235 179.571C264.339 180.246 264.324 189.333 264.22 190.291C264.131 190.545 261.585 189.758 261.57 189.646C261.511 188.536 261.466 180.343 261.585 178.895ZM266.251 190.786C266.176 189.842 266.236 181.245 266.355 180.136C266.697 180.135 268.439 180.569 269.615 180.883C273.099 181.812 275.228 184.721 275.228 187.849C275.228 191.069 273.561 192.951 269.481 191.864C268.216 191.526 266.578 190.982 266.251 190.786ZM272.474 187.253C272.474 185.42 271.268 183.881 269.645 183.448C269.303 183.357 269.05 183.305 268.856 183.269C268.871 185.045 268.826 187.344 268.797 189.108C269.064 189.226 269.377 189.324 269.749 189.424C270.911 189.733 272.474 189.765 272.474 187.253Z" fill="#141BEB"/>
</g>
<rect x="0.726894" y="0.946133" width="226.693" height="414.192" rx="29.3395" transform="matrix(0.966235 0.257663 0 1 91.7499 91.2043)" stroke="url(#paint1_linearfor-learner_2095_2982)" stroke-width="1.50459"/>
</g>
<g filter="url(#filter2_dfor-learner_2095_2982)">
<g clip-path="url(#clip6for-learner_2095_2982)">
<rect width="228.609" height="416.447" rx="30.1461" transform="matrix(0.966235 0.257663 0 1 0 125.086)" fill="#141BEB"/>
<path opacity="0.9" d="M108.98 235.693C85.8086 229.808 63.24 231.042 44.114 239.239C24.9879 247.436 10.1585 262.232 1.491 281.763C-7.17651 301.295 -9.29467 324.69 -4.59711 349.006C0.100444 373.322 11.4036 397.473 27.891 418.42C44.3783 439.366 65.3132 456.174 88.0616 466.727C110.81 477.281 134.357 481.109 155.738 477.73C177.119 474.351 195.381 463.916 208.225 447.737C221.069 431.559 227.923 410.36 227.923 386.808C227.726 354.892 215.085 321.041 192.779 292.702C170.473 264.363 140.33 243.857 108.98 235.693Z" fill="#00EDBE"/>
<path d="M109.33 255.491C89.9148 250.559 71.0049 251.572 54.9793 258.402C38.9538 265.232 26.5285 277.575 19.2661 293.877C12.0037 310.179 10.2289 329.712 14.1649 350.02C18.1009 370.327 27.5717 390.501 41.3863 408.005C55.2009 425.508 72.7419 439.558 91.8026 448.388C110.863 457.217 130.593 460.432 148.508 457.627C166.423 454.822 181.724 446.123 192.486 432.624C203.248 419.125 208.99 401.429 208.991 381.763C208.826 355.113 198.233 326.838 179.544 303.158C160.854 279.478 135.598 262.332 109.33 255.491Z" fill="#00EDBE"/>
<path d="M148.719 328.827C148.452 323.77 149.653 319.137 152.168 315.515L71.8309 294.091C71.111 293.897 70.3975 293.848 69.7313 293.947C69.0652 294.046 68.4593 294.291 67.9483 294.668C67.4374 295.046 67.0314 295.548 66.7535 296.147C66.4756 296.746 66.3312 297.429 66.3286 298.157V315.551C66.3312 316.281 66.4756 317.041 66.7535 317.788C67.0314 318.535 67.4374 319.254 67.9483 319.904C68.4593 320.554 69.0652 321.122 69.7313 321.577C70.3975 322.031 71.111 322.362 71.8309 322.552L152.168 343.975C149.653 339.011 148.452 333.737 148.719 328.823" fill="#141BEB"/>
<path d="M53.8094 340.66C54.0715 345.715 52.8663 350.346 50.3467 353.965L130.684 375.388C131.404 375.583 132.118 375.632 132.784 375.533C133.45 375.434 134.056 375.189 134.567 374.811C135.078 374.433 135.484 373.931 135.762 373.332C136.04 372.734 136.184 372.051 136.186 371.322V353.928C136.184 353.198 136.04 352.438 135.762 351.691C135.484 350.945 135.078 350.226 134.567 349.576C134.056 348.925 133.45 348.357 132.784 347.903C132.118 347.448 131.404 347.117 130.684 346.928L50.3467 325.504C52.8624 330.469 54.063 335.742 53.7963 340.656" fill="#141BEB"/>
<path d="M148.719 403.111C148.452 398.055 149.653 393.422 152.168 389.799L71.8309 368.376C71.111 368.181 70.3975 368.132 69.7313 368.231C69.0652 368.33 68.4593 368.575 67.9483 368.953C67.4374 369.331 67.0314 369.833 66.7535 370.432C66.4756 371.03 66.3312 371.713 66.3286 372.442V389.836C66.3312 390.566 66.4756 391.326 66.7535 392.073C67.0314 392.819 67.4374 393.538 67.9483 394.188C68.4593 394.839 69.0652 395.407 69.7313 395.861C70.3975 396.316 71.111 396.647 71.8309 396.836L152.168 418.26C149.653 413.295 148.452 408.022 148.719 403.108" fill="#141BEB"/>
<g clip-path="url(#clip7for-learner_2095_2982)">
<path d="M69.3064 521.008L69.2617 520.935C68.8143 521.464 68.1282 521.945 66.8009 521.591C65.414 521.221 63.7735 519.826 63.7735 517.357C63.7735 514.933 65.3543 514.197 67.3378 514.726C68.9932 515.168 70.7679 517.015 70.7679 520.256C70.7679 524.547 67.9195 525.531 66.1597 525.541C65.9061 525.473 65.2499 524.634 65.2499 524.326C67.5317 524.378 69.2169 523.068 69.3064 521.008ZM69.2318 518.843C69.2318 517.516 68.6055 516.253 67.2036 515.879C65.757 515.493 65.0262 516.302 65.0262 517.567C65.0262 518.833 65.6526 520.142 67.0843 520.524C68.6055 520.93 69.2318 519.954 69.2318 518.843ZM78.8745 520.087L78.8 520.067C78.0841 522.701 76.5629 527.975 76.4287 528.109C76.3094 528.201 75.2804 527.973 74.9523 527.808C74.8777 527.757 72.2976 517.114 72.2082 516.318C72.2976 516.064 73.5056 516.34 73.5355 516.456C73.61 516.769 75.5339 524.475 75.7427 525.982C75.7576 525.986 75.7874 525.978 75.8023 525.982C76.1304 524.68 77.7113 519.067 78.1438 517.778C78.3525 517.725 79.4562 518.004 79.5158 518.128C79.8141 519.103 81.4695 526.212 81.7827 527.546C81.7976 527.55 81.8274 527.542 81.8423 527.546C82.0959 526.24 83.7513 520.215 84.0644 519.31C84.2583 519.3 85.3619 519.672 85.3768 519.892C85.1531 520.959 82.8117 529.472 82.6775 529.698C82.5433 529.817 81.3651 529.565 81.201 529.428C81.0519 529.126 79.3219 522.259 78.8745 520.087ZM86.26 523.508C86.26 523.399 87.125 523.46 87.3636 523.524C87.5873 523.584 89.1383 530.14 89.1383 530.14C89.5708 528.712 90.5253 526.775 90.8086 525.894C90.7341 525.611 90.406 524.52 90.406 524.474C90.4805 524.355 91.4499 524.475 91.5841 524.588C91.7631 524.759 93.4334 530.884 93.5378 531.221C93.6273 530.936 95.4766 525.703 95.5661 525.696C95.6854 525.712 96.7442 526.257 96.7293 526.33C96.5205 527.216 94.2835 532.901 94.2089 532.959C94.0001 533.057 92.8816 532.558 92.8667 532.508C92.8518 532.489 92.0614 530.133 91.4052 527.565C90.5849 529.801 89.72 531.7 89.6752 531.75C89.4813 531.883 88.3777 531.373 88.3628 531.338C88.3479 531.303 86.2451 523.951 86.26 523.508ZM104.571 534.441C104.705 534.677 104.645 535.587 104.615 535.687C104.66 535.73 98.8141 534.279 98.4114 534.049C98.3667 532.539 98.3816 525.011 98.4412 523.206C99.2018 523.331 104.437 524.666 104.854 524.854C104.973 524.979 104.929 525.939 104.899 526.101C104.765 526.111 100.827 525.108 99.7387 524.787L99.7686 528.36C100.663 528.583 103.721 529.429 103.84 529.492C103.974 529.605 103.885 530.677 103.885 530.708C103.885 530.754 100.887 529.939 99.7686 529.626C99.7686 530.953 99.7686 532.296 99.7536 533.203C101.096 533.53 104.362 534.354 104.571 534.441ZM112.289 536.561C112.289 537.348 111.812 537.684 110.962 537.442C110.455 537.276 109.933 536.673 109.933 535.979C109.933 535.176 110.395 534.821 111.245 535.094C111.752 535.26 112.289 535.696 112.289 536.561ZM116.251 537.617C116.251 538.404 115.773 538.74 114.923 538.498C114.416 538.332 113.894 537.73 113.894 537.035C113.894 536.232 114.357 535.877 115.207 536.15C115.714 536.316 116.251 536.753 116.251 537.617ZM120.212 538.674C120.212 539.461 119.735 539.796 118.885 539.554C118.378 539.388 117.856 538.786 117.856 538.091C117.856 537.289 118.318 536.934 119.168 537.207C119.675 537.373 120.212 537.809 120.212 538.674ZM125.684 529.699C125.744 529.607 126.937 529.863 126.982 530.091C126.997 530.419 126.967 535.15 126.937 535.327C127.22 534.878 128.041 534.479 129.114 534.766C130.785 535.211 131.948 536.617 131.948 538.593C131.948 539.534 131.873 542.154 131.799 542.813C131.754 542.971 130.621 542.591 130.561 542.529C130.591 542.074 130.591 538.956 130.591 538.277C130.591 537.289 129.994 536.235 128.891 535.941C127.713 535.627 126.967 536.338 126.967 537.234C126.967 537.913 126.952 541.598 126.907 541.632C126.877 541.701 125.669 541.333 125.64 541.232C125.625 541.166 125.64 532.033 125.684 529.699ZM136.94 544.323C135.284 543.881 134.002 542.659 133.554 542.062C133.524 541.745 134.106 540.989 134.225 541.145C134.628 541.653 135.523 542.695 136.91 543.065C138.192 543.407 139.221 543.187 139.221 541.875C139.221 541.026 138.521 540.237 136.641 539.289C134.598 538.25 133.689 537.035 133.689 535.43C133.689 533.855 134.941 532.739 137.148 533.327C138.61 533.717 139.699 534.517 140.28 535.181C140.415 535.34 139.818 536.231 139.699 536.137C139.207 535.636 138.342 534.942 137.208 534.64C135.821 534.27 135.12 534.808 135.12 535.811C135.12 536.475 135.374 537.129 137.208 538.097C139.49 539.307 140.713 540.529 140.713 542.211C140.713 544.079 139.236 544.935 136.94 544.323ZM143.624 540.472L143.669 540.545C144.116 540.016 144.817 539.509 146.13 539.859C147.547 540.236 149.202 541.635 149.202 544.104C149.202 546.528 147.606 547.26 145.623 546.731C143.952 546.285 142.163 544.434 142.163 541.193C142.163 536.902 145.026 535.922 146.816 535.92C147.054 535.984 147.725 536.827 147.725 537.135C145.429 537.079 143.699 538.408 143.624 540.472ZM143.714 542.61C143.714 543.937 144.34 545.2 145.757 545.578C147.218 545.968 147.949 545.159 147.949 543.894C147.949 542.628 147.323 541.304 145.876 540.918C144.34 540.508 143.714 541.499 143.714 542.61ZM158.724 539.574C158.724 539.775 155.637 544.107 155.1 544.859C155.115 546.715 155.115 548.243 155.085 549.131C154.966 549.284 153.698 548.931 153.698 548.776C153.668 548.012 153.668 546.407 153.683 544.389C153.116 543.265 150.208 537.535 150.223 537.354C150.223 537.23 151.207 537.153 151.416 537.24C151.491 537.275 153.832 542.005 154.354 543.163C154.384 543.171 154.414 543.194 154.444 543.202C154.995 542.377 157.441 538.893 157.546 538.874C157.74 538.849 158.724 539.451 158.724 539.574Z" fill="white"/>
</g>
<rect x="0.703471" y="0.915645" width="181.794" height="36.0034" rx="18.0017" transform="matrix(0.966235 0.257663 0 1 22.5426 489.322)" stroke="white" stroke-width="1.45611"/>
<g clip-path="url(#clip8for-learner_2095_2982)">
<path d="M49.8582 172.809C47.2719 172.152 44.7528 172.287 42.618 173.196C40.4832 174.105 38.828 175.748 37.8605 177.918C36.893 180.088 36.6566 182.689 37.181 185.393C37.7053 188.096 38.9669 190.783 40.8072 193.113C42.6475 195.444 44.9842 197.315 47.5234 198.491C50.0625 199.667 52.6908 200.095 55.0773 199.722C57.4639 199.349 59.5022 198.191 60.9358 196.394C62.3695 194.597 63.1345 192.241 63.1345 189.623C63.1125 186.075 61.7015 182.31 59.2117 179.157C56.722 176.004 53.3575 173.721 49.8582 172.809Z" fill="#00EDBE"/>
<path d="M55.1054 182.574C55.0699 181.901 55.2298 181.284 55.565 180.802L44.8629 177.948C44.767 177.922 44.6719 177.915 44.5832 177.929C44.4944 177.942 44.4137 177.974 44.3457 178.025C44.2776 178.075 44.2235 178.142 44.1865 178.221C44.1495 178.301 44.1302 178.392 44.1299 178.489V180.805C44.1302 180.902 44.1495 181.003 44.1865 181.103C44.2235 181.202 44.2776 181.298 44.3457 181.384C44.4137 181.471 44.4944 181.547 44.5832 181.607C44.6719 181.668 44.767 181.712 44.8629 181.737L55.565 184.591C55.2298 183.93 55.0699 183.228 55.1054 182.574" fill="#141BEB"/>
<path d="M42.4601 184.146C42.495 184.819 42.3344 185.435 41.9988 185.917L52.7009 188.771C52.7968 188.797 52.8918 188.803 52.9806 188.79C53.0693 188.777 53.15 188.744 53.2181 188.694C53.2861 188.644 53.3402 188.577 53.3773 188.497C53.4143 188.418 53.4335 188.327 53.4339 188.23V185.914C53.4335 185.817 53.4143 185.716 53.3773 185.616C53.3402 185.517 53.2861 185.421 53.2181 185.334C53.15 185.248 53.0693 185.172 52.9806 185.112C52.8918 185.051 52.7968 185.007 52.7009 184.982L41.9988 182.128C42.3339 182.789 42.4938 183.491 42.4583 184.145" fill="#141BEB"/>
<path d="M55.1054 192.465C55.0699 191.791 55.2298 191.175 55.565 190.692L44.8629 187.839C44.767 187.813 44.6719 187.806 44.5832 187.819C44.4944 187.832 44.4137 187.865 44.3457 187.915C44.2776 187.966 44.2235 188.032 44.1865 188.112C44.1495 188.192 44.1302 188.283 44.1299 188.38V190.695C44.1302 190.793 44.1495 190.894 44.1865 190.993C44.2235 191.093 44.2776 191.188 44.3457 191.275C44.4137 191.362 44.4944 191.437 44.5832 191.498C44.6719 191.558 44.767 191.602 44.8629 191.628L55.565 194.482C55.2298 193.821 55.0699 193.118 55.1054 192.464" fill="#141BEB"/>
</g>
<path d="M77.987 187.852C81.1191 188.687 83.1624 191.408 83.1624 195.005C83.1624 197.737 81.5964 200.113 78.0318 199.163C74.8549 198.316 72.8713 195.456 72.8713 192.014C72.8713 189.22 74.5716 186.941 77.987 187.852ZM80.3137 194.045C80.3137 191.976 79.3592 190.734 78.0318 190.38C76.4955 189.97 75.6305 190.99 75.6305 192.904C75.6305 194.633 76.5403 196.234 77.9721 196.615C79.568 197.041 80.3137 195.974 80.3137 194.045ZM88.9937 194.106C90.7536 194.575 92.26 196.335 92.26 198.897C92.26 201.367 90.6492 202.311 88.8147 201.838C87.8303 201.575 87.01 200.878 86.8907 200.645C86.8907 201.155 86.9504 204.443 86.8161 204.5C86.6819 204.572 84.6386 204.12 84.3552 203.89C84.3105 203.863 84.4 193.174 84.5342 192.87C84.5491 192.828 86.7714 193.544 86.7714 193.544C86.7714 193.637 86.7565 194.281 86.7565 194.373C86.8609 194.216 87.6514 193.748 88.9937 194.106ZM89.7394 198.256C89.7394 197.206 89.1279 196.488 88.3225 196.273C87.3083 196.002 86.8311 196.539 86.8311 197.465C86.8311 198.484 87.5171 199.284 88.2629 199.483C89.2025 199.734 89.7394 199.213 89.7394 198.256ZM95.398 200.352C95.398 201.17 95.9648 201.83 96.9939 202.105C97.7993 202.319 98.3511 202.173 98.7389 202.03C98.888 202.224 99.4995 203.668 99.5144 203.904C99.1118 204.182 98.0826 204.402 96.8746 204.08C94.175 203.36 93.0862 201.202 93.0862 199.226C93.0862 197.142 94.3391 195.531 96.6807 196.156C98.6643 196.685 99.8724 198.55 99.8724 200.279C99.8724 200.758 99.8277 201.147 99.7382 201.432C98.9924 201.341 96.2929 200.621 95.398 200.352ZM95.3831 198.928L97.7247 199.506C97.7545 198.757 97.3817 198.071 96.6657 197.88C95.8902 197.674 95.3831 198.14 95.3831 198.928ZM100.975 197.563C101.109 197.398 103.197 197.862 103.331 198.037C103.316 198.357 103.301 198.863 103.286 198.951C103.615 198.529 104.345 198.153 105.553 198.475C107.179 198.909 108.193 200.522 108.193 202.513C108.193 203.548 108.134 206.14 108.074 206.881C108.059 207.031 105.822 206.404 105.777 206.361C105.718 206.314 105.792 202.691 105.792 202.135C105.792 201.302 105.434 200.62 104.659 200.413C103.838 200.194 103.346 200.727 103.346 201.329C103.346 201.854 103.331 205.554 103.286 205.604C103.242 205.654 101.064 205.042 101.019 204.938C100.99 204.868 100.93 200.823 100.975 197.563ZM115.074 203.376C115.074 205.583 116.387 206.813 117.654 207.151C118.862 207.473 119.683 207.028 120.011 206.869C120.354 207.207 121.01 208.633 121.249 209.221C120.607 209.806 119.101 210.146 117.386 209.688C113.896 208.757 112.27 205.746 112.27 202.52C112.27 199.417 114.388 197.59 117.774 198.493C119.489 198.95 120.727 199.836 121.189 200.422C121.189 200.731 120.563 202.231 120.19 202.456C119.653 201.988 118.743 201.329 117.804 201.078C116.267 200.669 115.074 201.616 115.074 203.376ZM121.971 204.536C121.986 204.277 122.97 203.089 124.969 203.622C126.818 204.115 128.25 205.624 128.25 207.877C128.25 209.529 128.175 212.071 128.131 212.152C128.086 212.233 126.207 211.639 126.207 211.639L126.072 210.939C125.968 211.02 125.342 211.594 124.163 211.279C122.538 210.846 121.852 209.675 121.852 208.332C121.852 206.943 123.03 206.377 124.521 206.775C125.207 206.958 125.625 207.27 125.908 207.562C125.923 206.902 125.953 205.999 124.611 205.641C123.686 205.395 123.254 205.958 123.119 205.938C122.985 205.902 121.956 204.702 121.971 204.536ZM123.85 208.819C123.85 209.328 124.268 209.794 124.82 209.942C125.476 210.117 125.804 209.803 125.804 209.34C125.804 208.799 125.371 208.345 124.82 208.197C124.238 208.042 123.85 208.325 123.85 208.819ZM129.712 205.134C129.846 204.938 131.934 205.634 132.068 205.808C132.053 206.128 132.038 206.541 132.023 206.63C132.351 206.208 132.918 205.819 134.126 206.141C134.962 206.364 135.633 206.975 136.035 207.762C136.543 206.971 137.676 207.088 138.288 207.251C140.167 207.752 141.002 209.256 141.002 211.232C141.002 212.281 140.942 214.936 140.898 215.649C140.883 215.784 138.616 215.18 138.571 215.121C138.526 215.079 138.601 211.564 138.601 210.838C138.601 210.082 138.407 209.459 137.616 209.248C136.796 209.029 136.557 209.799 136.557 210.278C136.557 211.389 136.513 213.662 136.468 214.422C136.453 214.557 134.201 213.863 134.171 213.825C134.111 213.778 134.186 210.186 134.186 209.661C134.186 208.905 133.977 208.278 133.202 208.071C132.426 207.864 132.098 208.456 132.098 208.95C132.098 209.397 132.068 213.295 132.023 213.344C131.979 213.394 129.801 212.783 129.756 212.678C129.727 212.608 129.667 208.394 129.712 205.134ZM147.094 209.599C148.854 210.068 150.36 211.828 150.36 214.391C150.36 216.86 148.749 217.805 146.915 217.331C145.93 217.068 145.11 216.371 144.991 216.139C144.991 216.648 145.051 219.936 144.916 219.993C144.782 220.065 142.739 219.613 142.455 219.383C142.411 219.356 142.5 208.667 142.634 208.364C142.649 208.321 144.872 209.037 144.872 209.037C144.872 209.13 144.857 209.774 144.857 209.867C144.961 209.709 145.751 209.241 147.094 209.599ZM147.84 213.749C147.84 212.7 147.228 211.981 146.423 211.766C145.408 211.496 144.931 212.032 144.931 212.958C144.931 213.977 145.617 214.778 146.363 214.976C147.303 215.227 147.84 214.706 147.84 213.749ZM158.524 220.303C158.39 220.468 156.451 219.889 156.302 219.711C156.317 219.391 156.302 218.939 156.317 218.835C155.989 219.241 155.228 219.687 154.11 219.389C152.305 218.907 151.44 217.534 151.44 215.373C151.44 214.262 151.589 211.662 151.634 210.949C151.664 210.802 153.901 211.43 153.946 211.488C153.975 211.666 153.826 215.145 153.826 215.747C153.826 216.612 154.184 217.232 154.96 217.439C155.78 217.658 156.213 217.125 156.228 216.449C156.228 216.002 156.287 212.22 156.347 212.175C156.392 212.125 158.554 212.732 158.614 212.841C158.629 212.907 158.584 217.031 158.524 220.303ZM162.852 221.751C161.361 221.353 160.003 220.374 159.795 220.086C159.675 219.9 160.361 218.401 160.481 218.494C160.719 218.681 161.644 219.623 162.599 219.877C163.195 220.036 163.494 219.9 163.494 219.56C163.494 219.22 163.255 218.972 162.285 218.528C160.615 217.789 159.839 216.857 159.839 215.56C159.839 213.909 160.928 213.242 162.763 213.731C164.135 214.097 165.343 214.898 165.537 215.15C165.671 215.325 164.985 216.763 164.881 216.75C164.806 216.73 163.851 215.874 162.986 215.643C162.405 215.488 162.151 215.714 162.151 216.022C162.151 216.362 162.405 216.584 163.27 216.938C165.045 217.674 165.835 218.517 165.835 219.953C165.835 221.311 164.94 222.308 162.852 221.751Z" fill="white"/>
<path d="M170.963 212.938C171.44 212.881 173.528 213.499 173.618 213.616C173.722 214.292 173.707 223.395 173.603 224.355C173.513 224.609 170.963 223.821 170.948 223.709C170.888 222.597 170.843 214.389 170.963 212.938ZM175.637 224.851C175.562 223.905 175.622 215.292 175.741 214.182C176.084 214.181 177.829 214.615 179.007 214.929C182.497 215.86 184.63 218.775 184.63 221.909C184.63 225.135 182.96 227.02 178.873 225.93C177.605 225.592 175.965 225.047 175.637 224.851ZM181.871 221.312C181.871 219.475 180.663 217.933 179.037 217.5C178.694 217.408 178.441 217.356 178.247 217.32C178.262 219.099 178.217 221.402 178.187 223.169C178.456 223.287 178.769 223.386 179.142 223.486C180.305 223.796 181.871 223.828 181.871 221.312Z" fill="#00EDBE"/>
</g>
<rect x="0.578299" y="0.752721" width="227.412" height="415.25" rx="29.5475" transform="matrix(0.966235 0.257663 0 1 0.0195263 124.937)" stroke="url(#paint2_linearfor-learner_2095_2982)" stroke-width="1.19701"/>
</g>
<defs>
<filter id="filter0_dfor-learner_2095_2982" x="173.964" y="-6.31081" width="300.492" height="554.495" filterUnits="userSpaceOnUse" color-interpolation-filters="sRGB">
<feFlood flood-opacity="0" result="BackgroundImageFix"/>
<feColorMatrix in="SourceAlpha" type="matrix" values="0 0 0 0 0 0 0 0 0 0 0 0 0 0 0 0 0 0 127 0" result="hardAlpha"/>
<feOffset dx="33.4566" dy="-13.3108"/>
<feGaussianBlur stdDeviation="20"/>
<feComposite in2="hardAlpha" operator="out"/>
<feColorMatrix type="matrix" values="0 0 0 0 0 0 0 0 0 0 0 0 0 0 0 0 0 0 0.04 0"/>
<feBlend mode="normal" in2="BackgroundImageFix" result="effect1_dropShadowfor-learner_2095_2982"/>
<feBlend mode="normal" in="SourceGraphic" in2="effect1_dropShadowfor-learner_2095_2982" result="shape"/>
</filter>
<filter id="filter1_dfor-learner_2095_2982" x="85.6804" y="38.5793" width="299.495" height="553.498" filterUnits="userSpaceOnUse" color-interpolation-filters="sRGB">
<feFlood flood-opacity="0" result="BackgroundImageFix"/>
<feColorMatrix in="SourceAlpha" type="matrix" values="0 0 0 0 0 0 0 0 0 0 0 0 0 0 0 0 0 0 127 0" result="hardAlpha"/>
<feOffset dx="33.4566" dy="-13.3108"/>
<feGaussianBlur stdDeviation="19.7507"/>
<feComposite in2="hardAlpha" operator="out"/>
<feColorMatrix type="matrix" values="0 0 0 0 0 0 0 0 0 0 0 0 0 0 0 0 0 0 0.09 0"/>
<feBlend mode="normal" in2="BackgroundImageFix" result="effect1_dropShadowfor-learner_2095_2982"/>
<feBlend mode="normal" in="SourceGraphic" in2="effect1_dropShadowfor-learner_2095_2982" result="shape"/>
</filter>
<filter id="filter2_dfor-learner_2095_2982" x="0" y="70.829" width="317.778" height="552.861" filterUnits="userSpaceOnUse" color-interpolation-filters="sRGB">
<feFlood flood-opacity="0" result="BackgroundImageFix"/>
<feColorMatrix in="SourceAlpha" type="matrix" values="0 0 0 0 0 0 0 0 0 0 0 0 0 0 0 0 0 0 127 0" result="hardAlpha"/>
<feOffset dx="58.1329" dy="-15.5021"/>
<feGaussianBlur stdDeviation="19.3776"/>
<feComposite in2="hardAlpha" operator="out"/>
<feColorMatrix type="matrix" values="0 0 0 0 0 0 0 0 0 0 0 0 0 0 0 0 0 0 0.14 0"/>
<feBlend mode="normal" in2="BackgroundImageFix" result="effect1_dropShadowfor-learner_2095_2982"/>
<feBlend mode="normal" in="SourceGraphic" in2="effect1_dropShadowfor-learner_2095_2982" result="shape"/>
</filter>
<linearGradient id="paint0_linearfor-learner_2095_2982" x1="9.08232" y1="4.1542" x2="181.42" y2="424.689" gradientUnits="userSpaceOnUse">
<stop stop-color="#E9E9E9"/>
<stop offset="1" stop-color="#CFCECE"/>
</linearGradient>
<linearGradient id="paint1_linearfor-learner_2095_2982" x1="8.36229" y1="4.03381" x2="188.051" y2="436.735" gradientUnits="userSpaceOnUse">
<stop stop-color="#11F0C4"/>
<stop offset="1" stop-color="#343434" stop-opacity="0.29"/>
</linearGradient>for-learner_2095_2982
<linearGradient id="paint2_linearfor-learner_2095_2982" x1="8.37736" y1="4.04108" x2="188.39" y2="437.522" gradientUnits="userSpaceOnUse">
<stop stop-color="#475AFF"/>
<stop offset="1" stop-color="#343434" stop-opacity="0.29"/>
</linearGradient>
<clipPath id="clip0for-learner_2095_2982">
<rect width="228.197" height="415.697" rx="29.0697" transform="matrix(0.966235 0.257663 0 1 180.508 47)" fill="white"/>
</clipPath>
<clipPath id="clip1for-learner_2095_2982">
<rect width="166.099" height="37.4119" rx="18.706" transform="matrix(0.966235 0.257663 0 1 211.111 412.912)" fill="white"/>
</clipPath>
<clipPath id="clip2for-learner_2095_2982">
<rect width="27.4314" height="26.4981" fill="white" transform="matrix(0.966235 0.257663 0 1 217.022 91.1055)"/>
</clipPath>
<clipPath id="clip3for-learner_2095_2982">
<rect width="228.197" height="415.697" rx="30.0918" transform="matrix(0.966235 0.257663 0 1 91.7253 91.3916)" fill="white"/>
</clipPath>
<clipPath id="clip4for-learner_2095_2982">
<rect width="172.099" height="37.4119" rx="18.706" transform="matrix(0.966235 0.257663 0 1 119.43 456.53)" fill="white"/>
</clipPath>
<clipPath id="clip5for-learner_2095_2982">
<rect width="27.4314" height="26.4981" fill="white" transform="matrix(0.966235 0.257663 0 1 128.24 135.497)"/>
</clipPath>
<clipPath id="clip6for-learner_2095_2982">
<rect width="228.609" height="416.447" rx="30.1461" transform="matrix(0.966235 0.257663 0 1 0 125.086)" fill="white"/>
</clipPath>
<clipPath id="clip7for-learner_2095_2982">
<rect width="183.25" height="37.4595" rx="18.7298" transform="matrix(0.966235 0.257663 0 1 22.5188 489.503)" fill="white"/>
</clipPath>
<clipPath id="clip8for-learner_2095_2982">
<rect width="27.4809" height="26.5459" fill="white" transform="matrix(0.966235 0.257663 0 1 36.5796 169.273)"/>
</clipPath>
</defs>
</svg>
