<svg width="26" height="25" viewBox="0 0 26 25" fill="none" xmlns="http://www.w3.org/2000/svg">
<path d="M12.8855 0.205309C10.4605 0.234799 8.09854 0.963632 6.09687 2.30007C4.0952 3.63651 2.54321 5.5209 1.6361 7.71614C0.728986 9.91138 0.507308 12.3194 0.998937 14.6373C1.49057 16.9552 2.67351 19.0794 4.39902 20.7427C6.12453 22.406 8.3155 23.5342 10.6963 23.9851C13.0771 24.4361 15.5413 24.1897 17.779 23.2771C20.0167 22.3645 21.9279 20.8264 23.2721 18.8562C24.6164 16.886 25.3336 14.5718 25.3337 12.2048C25.3131 9.00246 23.99 5.93922 21.6556 3.68892C19.3211 1.43862 16.1665 0.185527 12.8855 0.205309Z" fill="#00EDBE"/>
<path d="M17.8056 7.7674C17.7723 7.16737 17.9223 6.5712 18.2365 6.05445H8.20192C8.11199 6.05413 8.02287 6.07111 7.93967 6.10441C7.85646 6.13771 7.78078 6.18668 7.71696 6.24852C7.65314 6.31036 7.60243 6.38387 7.56772 6.46484C7.53301 6.54581 7.51497 6.63267 7.51465 6.72044V8.81396C7.51497 8.90173 7.53301 8.98858 7.56772 9.06956C7.60243 9.15053 7.65314 9.22404 7.71696 9.28588C7.78078 9.34772 7.85646 9.39669 7.93967 9.42999C8.02287 9.46329 8.11199 9.48027 8.20192 9.47995H18.2365C17.9223 8.9632 17.7723 8.36743 17.8056 7.7674Z" fill="#141BEB"/>
<path d="M5.95009 12.2379C5.98282 12.8379 5.83229 13.4339 5.51758 13.9504H15.5521C15.6421 13.9507 15.7312 13.9338 15.8144 13.9005C15.8976 13.8672 15.9733 13.8182 16.0371 13.7563C16.1009 13.6945 16.1516 13.621 16.1863 13.54C16.2211 13.459 16.2391 13.3722 16.2394 13.2844V11.1909C16.2391 11.1031 16.2211 11.0163 16.1863 10.9353C16.1516 10.8543 16.1009 10.7808 16.0371 10.719C15.9733 10.6571 15.8976 10.6082 15.8144 10.5749C15.7312 10.5416 15.6421 10.5246 15.5521 10.5249H5.51758C5.8318 11.0417 5.98176 11.6378 5.94845 12.2379" fill="#141BEB"/>
<path d="M17.8056 16.7086C17.7723 16.1085 17.9223 15.5124 18.2365 14.9956H8.20192C8.11199 14.9953 8.02287 15.0123 7.93967 15.0456C7.85646 15.0789 7.78078 15.1278 7.71696 15.1897C7.65314 15.2515 7.60243 15.325 7.56772 15.406C7.53301 15.487 7.51497 15.5738 7.51465 15.6616V17.7551C7.51497 17.8429 7.53301 17.9297 7.56772 18.0107C7.60243 18.0917 7.65314 18.1652 7.71696 18.227C7.78078 18.2889 7.85646 18.3379 7.93967 18.3712C8.02287 18.4045 8.11199 18.4214 8.20192 18.4211H18.2365C17.9223 17.9044 17.7723 17.3082 17.8056 16.7082" fill="#141BEB"/>
</svg>
