<svg width="491" height="104" viewBox="0 0 491 104" fill="none" xmlns="http://www.w3.org/2000/svg">
<path d="M52.5482 20.9361C46.1887 21.0123 39.9945 22.894 34.7452 26.3445C29.4959 29.7949 25.4258 34.6601 23.047 40.3278C20.6681 45.9955 20.0867 52.2126 21.376 58.197C22.6653 64.1814 25.7675 69.6658 30.2927 73.9602C34.8178 78.2546 40.5635 81.1672 46.807 82.3315C53.0505 83.4958 59.5131 82.8598 65.3814 80.5035C71.2496 78.1473 76.2616 74.1761 79.7869 69.0895C83.3121 64.0028 85.1931 58.028 85.1932 51.9167C85.1392 43.6489 81.6696 35.7401 75.5475 29.9302C69.4255 24.1203 61.1525 20.8851 52.5482 20.9361Z" fill="#00EDBE"/>
<path d="M53.2415 20.6036C46.882 20.6798 40.6879 22.5615 35.4386 26.0119C30.1892 29.4624 26.1192 34.3276 23.7403 39.9953C21.3614 45.663 20.7801 51.8801 22.0694 57.8645C23.3587 63.8489 26.4609 69.3333 30.986 73.6277C35.5111 77.922 41.2569 80.8347 47.5004 81.999C53.7439 83.1633 60.2064 82.5272 66.0747 80.171C71.943 77.8148 76.955 73.8436 80.4802 68.757C84.0055 63.6703 85.8864 57.6955 85.8865 51.5842C85.8326 43.3163 82.3629 35.4076 76.2409 29.5977C70.1188 23.7878 61.8459 20.5525 53.2415 20.6036Z" fill="#00EDBE"/>
<path d="M66.145 40.1251C66.0576 38.5759 66.4509 37.0367 67.275 35.7025H40.9596C40.7237 35.7017 40.49 35.7455 40.2718 35.8315C40.0536 35.9175 39.8551 36.0439 39.6878 36.2036C39.5204 36.3633 39.3874 36.553 39.2964 36.7621C39.2054 36.9711 39.1581 37.1954 39.1572 37.422V42.8271C39.1581 43.0537 39.2054 43.278 39.2964 43.487C39.3874 43.6961 39.5204 43.8859 39.6878 44.0455C39.8551 44.2052 40.0536 44.3316 40.2718 44.4176C40.49 44.5036 40.7237 44.5474 40.9596 44.5466H67.275C66.4509 43.2124 66.0576 41.6732 66.145 40.124" fill="#141BEB"/>
<path d="M35.0639 51.6643C35.1498 53.2135 34.755 54.7523 33.9297 56.0858H60.2451C60.4809 56.0866 60.7146 56.0428 60.9328 55.9568C61.151 55.8708 61.3495 55.7444 61.5168 55.5847C61.6842 55.425 61.8172 55.2353 61.9082 55.0262C61.9993 54.8171 62.0466 54.5929 62.0474 54.3663V48.9612C62.0466 48.7346 61.9993 48.5103 61.9082 48.3013C61.8172 48.0922 61.6842 47.9024 61.5168 47.7428C61.3495 47.5831 61.151 47.4567 60.9328 47.3707C60.7146 47.2847 60.4809 47.2409 60.2451 47.2417H33.9297C34.7537 48.5759 35.147 50.1151 35.0596 51.6643" fill="#141BEB"/>
<path d="M66.145 63.2197C66.0576 61.6705 66.4509 60.1313 67.275 58.7971H40.9596C40.7237 58.7963 40.49 58.8401 40.2718 58.9261C40.0536 59.0121 39.8551 59.1385 39.6878 59.2982C39.5204 59.4579 39.3874 59.6476 39.2964 59.8567C39.2054 60.0658 39.1581 60.29 39.1572 60.5166V65.9217C39.1581 66.1483 39.2054 66.3726 39.2964 66.5816C39.3874 66.7907 39.5204 66.9805 39.6878 67.1401C39.8551 67.2998 40.0536 67.4262 40.2718 67.5122C40.49 67.5982 40.7237 67.642 40.9596 67.6412H67.275C66.4509 66.307 66.0576 64.7678 66.145 63.2186" fill="#141BEB"/>
<path d="M455.375 42.7565V73.589H445.707V42.7565H455.375ZM472.588 42.7565C475.81 42.7565 478.627 43.4097 481.036 44.7162C483.475 46.0226 485.348 47.8372 486.654 50.1598C487.961 52.4824 488.614 55.1243 488.614 58.0856C488.614 61.0179 487.961 63.6599 486.654 66.0115C485.348 68.3631 483.475 70.2212 481.036 71.5857C478.627 72.9212 475.81 73.589 472.588 73.589H459.741V42.7565H472.588ZM471.717 64.9663C473.894 64.9663 475.622 64.3712 476.899 63.1808C478.177 61.9905 478.815 60.2921 478.815 58.0856C478.815 55.8792 478.177 54.1808 476.899 52.9904C475.622 51.8001 473.894 51.2049 471.717 51.2049H469.409V64.9663H471.717Z" fill="#00EDBE"/>
<path d="M128.754 73.8938C125.85 73.8938 123.179 73.2116 120.741 71.847C118.331 70.4825 116.415 68.5954 114.992 66.1857C113.57 63.776 112.858 61.0615 112.858 58.0421C112.858 55.0227 113.57 52.3082 114.992 49.8985C116.415 47.4888 118.331 45.6162 120.741 44.2807C123.179 42.9162 125.85 42.2339 128.754 42.2339C131.657 42.2339 134.313 42.9162 136.723 44.2807C139.133 45.6162 141.034 47.4888 142.428 49.8985C143.85 52.3082 144.562 55.0227 144.562 58.0421C144.562 61.0615 143.85 63.776 142.428 66.1857C141.034 68.5954 139.118 70.4825 136.679 71.847C134.27 73.2116 131.628 73.8938 128.754 73.8938ZM128.754 64.8792C130.67 64.8792 132.15 64.2696 133.195 63.0502C134.241 61.8018 134.763 60.1324 134.763 58.0421C134.763 55.9227 134.241 54.2534 133.195 53.034C132.15 51.7856 130.67 51.1614 128.754 51.1614C126.808 51.1614 125.313 51.7856 124.268 53.034C123.223 54.2534 122.7 55.9227 122.7 58.0421C122.7 60.1324 123.223 61.8018 124.268 63.0502C125.313 64.2696 126.808 64.8792 128.754 64.8792ZM157.717 52.3808C158.327 51.2485 159.198 50.363 160.33 49.7243C161.491 49.0565 162.87 48.7227 164.467 48.7227C166.383 48.7227 168.111 49.2307 169.649 50.2469C171.188 51.234 172.393 52.6856 173.264 54.6017C174.164 56.4889 174.614 58.7244 174.614 61.3083C174.614 63.8921 174.164 66.1422 173.264 68.0583C172.393 69.9454 171.188 71.397 169.649 72.4132C168.111 73.4003 166.383 73.8938 164.467 73.8938C162.87 73.8938 161.491 73.5745 160.33 72.9358C159.198 72.268 158.327 71.368 157.717 70.2357V85.3471H148.049V49.0275H157.717V52.3808ZM164.816 61.3083C164.816 60.0018 164.482 58.9857 163.814 58.2598C163.146 57.534 162.29 57.1711 161.245 57.1711C160.199 57.1711 159.343 57.534 158.675 58.2598C158.007 58.9857 157.674 60.0018 157.674 61.3083C157.674 62.6147 158.007 63.6308 158.675 64.3567C159.343 65.0825 160.199 65.4454 161.245 65.4454C162.29 65.4454 163.146 65.0825 163.814 64.3567C164.482 63.6308 164.816 62.6147 164.816 61.3083ZM201.426 61.0905C201.426 61.7583 201.383 62.397 201.296 63.0067H185.749C185.894 65.126 186.78 66.1857 188.405 66.1857C189.451 66.1857 190.205 65.7067 190.67 64.7486H200.904C200.555 66.4905 199.815 68.0583 198.683 69.4519C197.58 70.8164 196.172 71.9051 194.459 72.718C192.775 73.5019 190.917 73.8938 188.884 73.8938C186.446 73.8938 184.268 73.3858 182.352 72.3696C180.465 71.3535 178.984 69.9019 177.91 68.0148C176.865 66.0986 176.342 63.8631 176.342 61.3083C176.342 58.7534 176.865 56.5324 177.91 54.6453C178.984 52.7292 180.465 51.263 182.352 50.2469C184.268 49.2307 186.446 48.7227 188.884 48.7227C191.323 48.7227 193.486 49.2307 195.373 50.2469C197.289 51.234 198.77 52.6566 199.815 54.5146C200.889 56.3727 201.426 58.5647 201.426 61.0905ZM191.628 58.7824C191.628 57.9695 191.367 57.3598 190.844 56.9534C190.322 56.5179 189.668 56.3001 188.884 56.3001C187.172 56.3001 186.17 57.1276 185.88 58.7824H191.628ZM221.686 48.8533C224.502 48.8533 226.694 49.7969 228.262 51.684C229.858 53.5711 230.657 56.126 230.657 59.3486V73.589H221.033V60.5679C221.033 59.4066 220.713 58.4921 220.074 57.8244C219.465 57.1276 218.637 56.7792 217.592 56.7792C216.518 56.7792 215.676 57.1276 215.066 57.8244C214.457 58.4921 214.152 59.4066 214.152 60.5679V73.589H204.484V49.0275H214.152V52.7727C214.907 51.6114 215.908 50.6678 217.157 49.942C218.434 49.2162 219.944 48.8533 221.686 48.8533ZM241.378 58.1292C241.378 55.0808 241.988 52.3662 243.207 49.9856C244.455 47.6049 246.226 45.7614 248.52 44.4549C250.814 43.1194 253.514 42.4517 256.62 42.4517C259.291 42.4517 261.672 42.9597 263.762 43.9759C265.881 44.963 267.594 46.371 268.901 48.2001C270.236 50.0291 271.122 52.163 271.557 54.6017H261.367C260.902 53.5856 260.235 52.8017 259.364 52.2501C258.522 51.6695 257.549 51.3791 256.446 51.3791C254.82 51.3791 253.528 51.9888 252.57 53.2082C251.641 54.4276 251.176 56.0679 251.176 58.1292C251.176 60.1905 251.641 61.8308 252.57 63.0502C253.528 64.2696 254.82 64.8792 256.446 64.8792C257.549 64.8792 258.522 64.6034 259.364 64.0518C260.235 63.4712 260.902 62.6728 261.367 61.6566H271.557C271.122 64.0954 270.236 66.2293 268.901 68.0583C267.594 69.8873 265.881 71.3099 263.762 72.3261C261.672 73.3132 259.291 73.8067 256.62 73.8067C253.514 73.8067 250.814 73.1535 248.52 71.847C246.226 70.5115 244.455 68.6535 243.207 66.2728C241.988 63.8921 241.378 61.1776 241.378 58.1292ZM273.732 61.3083C273.732 58.7244 274.167 56.4889 275.038 54.6017C275.938 52.6856 277.157 51.234 278.696 50.2469C280.235 49.2307 281.962 48.7227 283.878 48.7227C285.475 48.7227 286.854 49.0565 288.016 49.7243C289.177 50.363 290.062 51.2485 290.672 52.3808V49.0275H300.296V73.589H290.672V70.2357C290.062 71.368 289.177 72.268 288.016 72.9358C286.854 73.5745 285.475 73.8938 283.878 73.8938C281.962 73.8938 280.235 73.4003 278.696 72.4132C277.157 71.397 275.938 69.9454 275.038 68.0583C274.167 66.1422 273.732 63.8921 273.732 61.3083ZM290.672 61.3083C290.672 60.0018 290.338 58.9857 289.67 58.2598C289.003 57.534 288.146 57.1711 287.101 57.1711C286.056 57.1711 285.199 57.534 284.532 58.2598C283.864 58.9857 283.53 60.0018 283.53 61.3083C283.53 62.6147 283.864 63.6308 284.532 64.3567C285.199 65.0825 286.056 65.4454 287.101 65.4454C288.146 65.4454 289.003 65.0825 289.67 64.3567C290.338 63.6308 290.672 62.6147 290.672 61.3083ZM337.43 48.8533C340.565 48.8533 342.99 49.7969 344.702 51.684C346.444 53.5711 347.315 56.126 347.315 59.3486V73.589H337.691V60.5679C337.691 59.5228 337.372 58.7098 336.733 58.1292C336.123 57.5195 335.296 57.2147 334.251 57.2147C333.177 57.2147 332.335 57.5195 331.725 58.1292C331.115 58.7098 330.81 59.5228 330.81 60.5679V73.589H321.186V60.5679C321.186 59.5228 320.867 58.7098 320.228 58.1292C319.618 57.5195 318.791 57.2147 317.746 57.2147C316.672 57.2147 315.83 57.5195 315.22 58.1292C314.61 58.7098 314.305 59.5228 314.305 60.5679V73.589H304.638V49.0275H314.305V52.3372C315.002 51.292 315.946 50.4501 317.136 49.8114C318.355 49.1727 319.778 48.8533 321.404 48.8533C323.175 48.8533 324.743 49.2453 326.107 50.0291C327.472 50.784 328.56 51.8582 329.373 53.2517C330.273 51.9743 331.42 50.9291 332.814 50.1162C334.207 49.2743 335.746 48.8533 337.43 48.8533ZM361.171 52.3808C361.781 51.2485 362.652 50.363 363.784 49.7243C364.946 49.0565 366.325 48.7227 367.921 48.7227C369.838 48.7227 371.565 49.2307 373.104 50.2469C374.642 51.234 375.847 52.6856 376.718 54.6017C377.618 56.4889 378.068 58.7244 378.068 61.3083C378.068 63.8921 377.618 66.1422 376.718 68.0583C375.847 69.9454 374.642 71.397 373.104 72.4132C371.565 73.4003 369.838 73.8938 367.921 73.8938C366.325 73.8938 364.946 73.5745 363.784 72.9358C362.652 72.268 361.781 71.368 361.171 70.2357V85.3471H351.504V49.0275H361.171V52.3808ZM368.27 61.3083C368.27 60.0018 367.936 58.9857 367.268 58.2598C366.6 57.534 365.744 57.1711 364.699 57.1711C363.654 57.1711 362.797 57.534 362.129 58.2598C361.462 58.9857 361.128 60.0018 361.128 61.3083C361.128 62.6147 361.462 63.6308 362.129 64.3567C362.797 65.0825 363.654 65.4454 364.699 65.4454C365.744 65.4454 366.6 65.0825 367.268 64.3567C367.936 63.6308 368.27 62.6147 368.27 61.3083ZM407.102 49.0275V73.589H397.434V69.8438C396.679 71.0051 395.663 71.9487 394.385 72.6745C393.137 73.4003 391.642 73.7632 389.9 73.7632C387.084 73.7632 384.877 72.8196 383.28 70.9325C381.713 69.0454 380.929 66.4905 380.929 63.2679V49.0275H390.553V62.0486C390.553 63.2099 390.858 64.1389 391.468 64.8357C392.106 65.5034 392.948 65.8373 393.993 65.8373C395.068 65.8373 395.91 65.5034 396.519 64.8357C397.129 64.1389 397.434 63.2099 397.434 62.0486V49.0275H407.102ZM422.399 73.8938C420.076 73.8938 418.015 73.5164 416.215 72.7616C414.444 72.0067 413.036 70.9615 411.991 69.6261C410.945 68.2906 410.35 66.7809 410.205 65.097H419.481C419.597 65.8228 419.902 66.3599 420.396 66.7083C420.918 67.0567 421.571 67.2309 422.355 67.2309C422.849 67.2309 423.241 67.1293 423.531 66.926C423.821 66.6938 423.967 66.418 423.967 66.0986C423.967 65.547 423.662 65.1551 423.052 64.9228C422.442 64.6905 421.412 64.4292 419.96 64.1389C418.189 63.7905 416.723 63.4131 415.562 63.0067C414.429 62.6002 413.428 61.9034 412.557 60.9163C411.715 59.9292 411.294 58.5647 411.294 56.8227C411.294 55.313 411.686 53.9485 412.47 52.7292C413.283 51.4808 414.473 50.5082 416.041 49.8114C417.608 49.0856 419.51 48.7227 421.746 48.7227C425.055 48.7227 427.639 49.5356 429.497 51.1614C431.384 52.7872 432.517 54.9066 432.894 57.5195H424.315C424.17 56.8518 423.865 56.3437 423.4 55.9953C422.936 55.6179 422.312 55.4292 421.528 55.4292C421.034 55.4292 420.657 55.5308 420.396 55.734C420.134 55.9082 420.004 56.184 420.004 56.5614C420.004 57.055 420.308 57.4324 420.918 57.6937C421.528 57.926 422.5 58.1727 423.836 58.434C425.607 58.7824 427.102 59.1744 428.321 59.6099C429.541 60.0453 430.6 60.8002 431.5 61.8744C432.4 62.9196 432.85 64.3712 432.85 66.2293C432.85 67.6809 432.43 68.9873 431.588 70.1486C430.746 71.3099 429.526 72.2245 427.929 72.8922C426.362 73.56 424.518 73.8938 422.399 73.8938Z" fill="white"/>
</svg>
