<svg width="344" height="68" viewBox="0 0 344 68" fill="none" xmlns="http://www.w3.org/2000/svg">
<g clip-path="url(#clip0_871_1585)">
<path d="M35.6275 0.000652492C28.7834 0.0840603 22.1174 2.14541 16.4681 5.92524C10.8188 9.70508 6.4387 15.0347 3.87859 21.2434C1.31847 27.4522 0.692834 34.2627 2.08035 40.8184C3.46786 47.3741 6.80646 53.3821 11.6763 58.0864C16.5462 62.7907 22.7297 65.9814 29.4489 67.2568C36.1681 68.5322 43.123 67.8355 49.4384 65.2543C55.7538 62.6732 61.1476 58.3229 64.9414 52.7507C68.7353 47.1785 70.7595 40.6334 70.7596 33.9386C70.7015 24.8815 66.9676 16.2178 60.3791 9.8533C53.7906 3.4888 44.8873 -0.0552961 35.6275 0.000652492Z" fill="#00EDBE"/>
<path d="M49.5127 21.3872C49.4187 19.6902 49.8419 18.004 50.7287 16.5425H22.4084C22.1546 16.5416 21.9031 16.5896 21.6683 16.6838C21.4334 16.778 21.2198 16.9165 21.0397 17.0914C20.8596 17.2663 20.7165 17.4742 20.6185 17.7032C20.5206 17.9322 20.4697 18.1779 20.4688 18.4261V24.3472C20.4697 24.5954 20.5206 24.8411 20.6185 25.0701C20.7165 25.2991 20.8596 25.507 21.0397 25.6819C21.2198 25.8568 21.4334 25.9953 21.6683 26.0895C21.9031 26.1837 22.1546 26.2317 22.4084 26.2308H50.7287C49.8419 24.7693 49.4187 23.0831 49.5127 21.3861" fill="#141BEB"/>
<path d="M16.0537 34.0327C16.1461 35.7299 15.7212 37.4156 14.833 38.8763H43.1533C43.4071 38.8772 43.6586 38.8292 43.8935 38.735C44.1283 38.6408 44.3419 38.5023 44.522 38.3274C44.7021 38.1525 44.8452 37.9446 44.9432 37.7156C45.0412 37.4866 45.092 37.2409 45.093 36.9927V31.0716C45.092 30.8234 45.0412 30.5777 44.9432 30.3487C44.8452 30.1197 44.7021 29.9118 44.522 29.7369C44.3419 29.562 44.1283 29.4235 43.8935 29.3293C43.6586 29.2351 43.4071 29.1871 43.1533 29.188H14.833C15.7198 30.6495 16.1431 32.3357 16.049 34.0327" fill="#141BEB"/>
<path d="M49.5127 46.6758C49.4187 44.9787 49.8419 43.2926 50.7287 41.8311H22.4084C22.1546 41.8302 21.9031 41.8782 21.6683 41.9724C21.4334 42.0665 21.2198 42.205 21.0397 42.38C20.8596 42.5549 20.7165 42.7628 20.6185 42.9918C20.5206 43.2208 20.4697 43.4664 20.4688 43.7147V49.6357C20.4697 49.884 20.5206 50.1296 20.6185 50.3587C20.7165 50.5877 20.8596 50.7956 21.0397 50.9705C21.2198 51.1454 21.4334 51.2839 21.6683 51.3781C21.9031 51.4723 22.1546 51.5203 22.4084 51.5194H50.7287C49.8419 50.0579 49.4187 48.3717 49.5127 46.6746" fill="#141BEB"/>
</g>
<path d="M109.674 20.1864C117.962 20.1864 123.369 25.7514 123.369 34.9474C123.369 41.9331 119.225 49.0768 109.792 49.0768C101.385 49.0768 96.1361 43.1172 96.1361 34.3159C96.1361 27.1722 100.635 20.1864 109.674 20.1864ZM115.83 34.4343C115.83 29.1456 113.305 26.6197 109.792 26.6197C105.727 26.6197 103.438 29.8166 103.438 34.7105C103.438 39.1309 105.845 42.6041 109.634 42.6041C113.857 42.6041 115.83 39.3677 115.83 34.4343ZM138.8 28.672C143.457 28.672 147.443 32.1451 147.443 38.6968C147.443 45.0116 143.181 48.5242 138.326 48.5637C135.721 48.5637 133.551 47.3402 133.235 46.8271C133.235 48.1296 133.393 56.4967 133.037 56.7335C132.682 57.0098 127.275 57.2466 126.525 56.8519C126.407 56.8125 126.644 29.4219 126.999 28.5536C127.038 28.4352 132.919 28.7509 132.919 28.7509C132.919 28.9877 132.88 30.6454 132.88 30.8822C133.156 30.4086 135.248 28.672 138.8 28.672ZM140.773 38.7757C140.773 36.0919 139.155 34.6711 137.024 34.6711C134.34 34.6711 133.077 36.3682 133.077 38.7363C133.077 41.3411 134.892 42.9198 136.866 42.9198C139.352 42.9198 140.773 41.2227 140.773 38.7757ZM155.747 40.2755C155.747 42.3673 157.247 43.6697 159.97 43.6697C162.101 43.6697 163.562 42.9198 164.588 42.2883C164.983 42.683 166.601 45.9588 166.64 46.5509C165.575 47.5376 162.851 48.8005 159.654 48.8005C152.511 48.8005 149.63 44.0249 149.63 38.9731C149.63 33.6449 152.945 28.672 159.141 28.672C164.391 28.672 167.587 32.6188 167.587 37.0391C167.587 38.2626 167.469 39.2888 167.232 40.0782C165.259 40.3544 158.115 40.3544 155.747 40.2755ZM155.708 36.6445L161.904 36.5261C161.983 34.5921 160.996 33.0924 159.102 33.0924C157.05 33.0924 155.708 34.6316 155.708 36.6445ZM170.504 29.3429C170.86 28.8299 176.385 28.5931 176.74 28.9483C176.701 29.7771 176.661 31.0795 176.622 31.3163C177.49 30.0139 179.424 28.5536 182.621 28.5536C186.923 28.5536 189.607 31.9873 189.607 37.0786C189.607 39.7229 189.449 46.393 189.291 48.3269C189.252 48.7216 183.331 48.6426 183.213 48.5637C183.055 48.4848 183.252 39.1704 183.252 37.7496C183.252 35.6183 182.305 34.1185 180.253 34.1185C178.082 34.1185 176.78 35.8156 176.78 37.3549C176.78 38.6968 176.74 48.169 176.622 48.3269C176.503 48.4848 170.741 48.4058 170.623 48.169C170.544 48.0112 170.386 37.7101 170.504 29.3429ZM207.815 34.5921C207.815 40.236 211.288 42.4857 214.643 42.4857C217.84 42.4857 220.01 40.7886 220.879 40.1571C221.786 40.7886 223.523 43.9855 224.155 45.3274C222.457 47.2613 218.471 49.1557 213.932 49.1557C204.697 49.1557 200.395 42.5646 200.395 34.3159C200.395 26.3829 205.999 20.2654 214.959 20.2654C219.497 20.2654 222.773 21.6862 223.997 22.8702C223.997 23.6596 222.339 27.9221 221.352 28.7509C219.931 27.9221 217.524 26.8565 215.037 26.8565C210.972 26.8565 207.815 30.0928 207.815 34.5921ZM226.065 32.8556C226.105 32.1846 228.71 28.4746 233.998 28.4746C238.892 28.4746 242.681 31.3558 242.681 37.1181C242.681 41.3411 242.484 47.8928 242.365 48.1296C242.247 48.3664 237.274 48.1296 237.274 48.1296L236.919 46.4325C236.643 46.7087 234.985 48.6032 231.867 48.6032C227.565 48.6032 225.75 46.0772 225.75 42.6436C225.75 39.0915 228.868 36.8418 232.814 36.8418C234.63 36.8418 235.735 37.3549 236.485 37.9074C236.524 36.2103 236.603 33.8817 233.051 33.8817C230.604 33.8817 229.46 35.6183 229.104 35.6578C228.749 35.6578 226.026 33.2897 226.065 32.8556ZM231.038 42.5252C231.038 43.8276 232.143 44.7353 233.604 44.7353C235.34 44.7353 236.209 43.7092 236.209 42.5252C236.209 41.1438 235.064 40.2755 233.604 40.2755C232.064 40.2755 231.038 41.2622 231.038 42.5252ZM246.549 29.1061C246.904 28.5141 252.43 28.8693 252.785 29.2245C252.745 30.0534 252.706 31.119 252.667 31.3558C253.535 30.0534 255.035 28.672 258.231 28.672C260.442 28.672 262.218 29.7771 263.283 31.5137C264.625 29.1456 267.625 28.672 269.243 28.672C274.216 28.672 276.426 31.9478 276.426 36.9997C276.426 39.6835 276.268 46.5114 276.15 48.3664C276.11 48.7216 270.111 48.7216 269.993 48.6032C269.874 48.5242 270.072 39.4861 270.072 37.6312C270.072 35.6972 269.559 34.2369 267.467 34.2369C265.296 34.2369 264.665 36.3682 264.665 37.5917C264.665 40.4334 264.546 46.2746 264.428 48.248C264.388 48.6032 258.429 48.3664 258.35 48.2874C258.192 48.2085 258.389 38.9731 258.389 37.6312C258.389 35.6972 257.837 34.2369 255.784 34.2369C253.732 34.2369 252.864 35.9735 252.864 37.2365C252.864 38.381 252.785 48.3664 252.667 48.5242C252.548 48.6821 246.786 48.6032 246.667 48.3664C246.589 48.2085 246.431 37.4733 246.549 29.1061ZM292.546 28.672C297.204 28.672 301.19 32.1451 301.19 38.6968C301.19 45.0116 296.927 48.5242 292.073 48.5637C289.468 48.5637 287.297 47.3402 286.982 46.8271C286.982 48.1296 287.139 56.4967 286.784 56.7335C286.429 57.0098 281.022 57.2466 280.272 56.8519C280.154 56.8125 280.39 29.4219 280.746 28.5536C280.785 28.4352 286.666 28.7509 286.666 28.7509C286.666 28.9877 286.626 30.6454 286.626 30.8822C286.903 30.4086 288.994 28.672 292.546 28.672ZM294.52 38.7757C294.52 36.0919 292.902 34.6711 290.77 34.6711C288.087 34.6711 286.824 36.3682 286.824 38.7363C286.824 41.3411 288.639 42.9198 290.613 42.9198C293.099 42.9198 294.52 41.2227 294.52 38.7757ZM322.794 48.248C322.439 48.761 317.308 48.6032 316.914 48.248C316.953 47.4191 316.914 46.2746 316.953 45.9983C316.085 47.2613 314.072 48.9189 311.112 48.9189C306.336 48.9189 304.047 45.9983 304.047 40.4728C304.047 37.6312 304.442 30.8822 304.56 29.0272C304.639 28.6325 310.559 28.7115 310.678 28.8299C310.757 29.264 310.362 38.2626 310.362 39.8019C310.362 42.0121 311.309 43.354 313.362 43.354C315.532 43.354 316.677 41.6963 316.716 39.9598C316.716 38.8152 316.874 29.1061 317.032 28.9483C317.151 28.7904 322.873 28.8693 323.031 29.1061C323.071 29.264 322.952 39.8413 322.794 48.248ZM334.247 48.9979C330.3 48.9979 326.709 47.4191 326.156 46.8271C325.84 46.4325 327.656 42.1305 327.972 42.2883C328.603 42.6041 331.05 44.3801 333.576 44.3801C335.155 44.3801 335.944 43.8276 335.944 42.9593C335.944 42.091 335.313 41.6174 332.747 41.1438C328.327 40.3939 326.274 38.5389 326.274 35.2236C326.274 31.0006 329.156 28.5536 334.01 28.5536C337.641 28.5536 340.838 29.7771 341.351 30.2902C341.706 30.6454 339.891 34.7895 339.615 34.829C339.417 34.829 336.891 33.2897 334.602 33.2897C333.063 33.2897 332.392 34.0396 332.392 34.829C332.392 35.6972 333.063 36.0919 335.352 36.4077C340.049 37.0786 342.14 38.6968 342.14 42.3673C342.14 45.8404 339.772 48.9979 334.247 48.9979Z" fill="#141BEB"/>
<defs>
<clipPath id="clip0_871_1585">
<rect width="70.2655" height="67.8747" fill="white" transform="translate(0.492676)"/>
</clipPath>
</defs>
</svg>
