<svg width="344" height="68" viewBox="0 0 344 68" fill="none" xmlns="http://www.w3.org/2000/svg">
<g clip-path="url(#clip0_871_1537)">
<path d="M35.1348 0.000652492C28.2907 0.0840603 21.6247 2.14541 15.9754 5.92524C10.3262 9.70508 5.94603 15.0347 3.38591 21.2434C0.825796 27.4522 0.200158 34.2627 1.58767 40.8184C2.97519 47.3741 6.31378 53.3821 11.1836 58.0864C16.0535 62.7907 22.237 65.9814 28.9562 67.2568C35.6754 68.5322 42.6303 67.8355 48.9457 65.2543C55.2611 62.6732 60.6549 58.3229 64.4488 52.7507C68.2426 47.1785 70.2669 40.6334 70.2669 33.9386C70.2089 24.8815 66.4749 16.2178 59.8864 9.8533C53.2979 3.4888 44.3947 -0.0552961 35.1348 0.000652492Z" fill="#00EDBE"/>
<path d="M49.02 21.3872C48.926 19.6902 49.3492 18.004 50.236 16.5425H21.9157C21.6619 16.5416 21.4104 16.5896 21.1756 16.6838C20.9408 16.778 20.7272 16.9165 20.5471 17.0914C20.3669 17.2663 20.2238 17.4742 20.1259 17.7032C20.0279 17.9322 19.977 18.1779 19.9761 18.4261V24.3472C19.977 24.5954 20.0279 24.8411 20.1259 25.0701C20.2238 25.2991 20.3669 25.507 20.5471 25.6819C20.7272 25.8568 20.9408 25.9953 21.1756 26.0895C21.4104 26.1837 21.6619 26.2317 21.9157 26.2308H50.236C49.3492 24.7693 48.926 23.0831 49.02 21.3861" fill="#141BEB"/>
<path d="M15.561 34.0327C15.6534 35.7299 15.2285 37.4156 14.3403 38.8763H42.6606C42.9144 38.8772 43.1659 38.8292 43.4008 38.735C43.6356 38.6408 43.8492 38.5023 44.0293 38.3274C44.2094 38.1525 44.3525 37.9446 44.4505 37.7156C44.5485 37.4866 44.5994 37.2409 44.6003 36.9927V31.0716C44.5994 30.8234 44.5485 30.5777 44.4505 30.3487C44.3525 30.1197 44.2094 29.9118 44.0293 29.7369C43.8492 29.562 43.6356 29.4235 43.4008 29.3293C43.1659 29.2351 42.9144 29.1871 42.6606 29.188H14.3403C15.2272 30.6495 15.6504 32.3357 15.5564 34.0327" fill="#141BEB"/>
<path d="M49.02 46.6758C48.926 44.9787 49.3492 43.2926 50.236 41.8311H21.9157C21.6619 41.8302 21.4104 41.8782 21.1756 41.9724C20.9408 42.0665 20.7272 42.205 20.5471 42.38C20.3669 42.5549 20.2238 42.7628 20.1259 42.9918C20.0279 43.2208 19.977 43.4664 19.9761 43.7147V49.6357C19.977 49.884 20.0279 50.1296 20.1259 50.3587C20.2238 50.5877 20.3669 50.7956 20.5471 50.9705C20.7272 51.1454 20.9408 51.2839 21.1756 51.3781C21.4104 51.4723 21.6619 51.5203 21.9157 51.5194H50.236C49.3492 50.0579 48.926 48.3717 49.02 46.6746" fill="#141BEB"/>
</g>
<path d="M109.181 20.1864C117.469 20.1864 122.876 25.7514 122.876 34.9474C122.876 41.9331 118.732 49.0768 109.299 49.0768C100.893 49.0768 95.6434 43.1172 95.6434 34.3159C95.6434 27.1722 100.143 20.1864 109.181 20.1864ZM115.338 34.4343C115.338 29.1456 112.812 26.6197 109.299 26.6197C105.234 26.6197 102.945 29.8166 102.945 34.7105C102.945 39.1309 105.352 42.6041 109.141 42.6041C113.364 42.6041 115.338 39.3677 115.338 34.4343ZM138.307 28.672C142.964 28.672 146.951 32.1451 146.951 38.6968C146.951 45.0116 142.688 48.5242 137.833 48.5637C135.229 48.5637 133.058 47.3402 132.742 46.8271C132.742 48.1296 132.9 56.4967 132.545 56.7335C132.19 57.0098 126.783 57.2466 126.033 56.8519C125.914 56.8125 126.151 29.4219 126.506 28.5536C126.546 28.4352 132.426 28.7509 132.426 28.7509C132.426 28.9877 132.387 30.6454 132.387 30.8822C132.663 30.4086 134.755 28.672 138.307 28.672ZM140.28 38.7757C140.28 36.0919 138.662 34.6711 136.531 34.6711C133.847 34.6711 132.584 36.3682 132.584 38.7363C132.584 41.3411 134.4 42.9198 136.373 42.9198C138.86 42.9198 140.28 41.2227 140.28 38.7757ZM155.254 40.2755C155.254 42.3673 156.754 43.6697 159.477 43.6697C161.609 43.6697 163.069 42.9198 164.095 42.2883C164.49 42.683 166.108 45.9588 166.148 46.5509C165.082 47.5376 162.359 48.8005 159.162 48.8005C152.018 48.8005 149.137 44.0249 149.137 38.9731C149.137 33.6449 152.452 28.672 158.649 28.672C163.898 28.672 167.095 32.6188 167.095 37.0391C167.095 38.2626 166.976 39.2888 166.74 40.0782C164.766 40.3544 157.623 40.3544 155.254 40.2755ZM155.215 36.6445L161.411 36.5261C161.49 34.5921 160.504 33.0924 158.609 33.0924C156.557 33.0924 155.215 34.6316 155.215 36.6445ZM170.012 29.3429C170.367 28.8299 175.892 28.5931 176.248 28.9483C176.208 29.7771 176.169 31.0795 176.129 31.3163C176.997 30.0139 178.931 28.5536 182.128 28.5536C186.43 28.5536 189.114 31.9873 189.114 37.0786C189.114 39.7229 188.956 46.393 188.798 48.3269C188.759 48.7216 182.839 48.6426 182.72 48.5637C182.562 48.4848 182.76 39.1704 182.76 37.7496C182.76 35.6183 181.813 34.1185 179.76 34.1185C177.589 34.1185 176.287 35.8156 176.287 37.3549C176.287 38.6968 176.248 48.169 176.129 48.3269C176.011 48.4848 170.248 48.4058 170.13 48.169C170.051 48.0112 169.893 37.7101 170.012 29.3429ZM207.322 34.5921C207.322 40.236 210.795 42.4857 214.15 42.4857C217.347 42.4857 219.518 40.7886 220.386 40.1571C221.294 40.7886 223.03 43.9855 223.662 45.3274C221.965 47.2613 217.978 49.1557 213.44 49.1557C204.204 49.1557 199.902 42.5646 199.902 34.3159C199.902 26.3829 205.507 20.2654 214.466 20.2654C219.005 20.2654 222.28 21.6862 223.504 22.8702C223.504 23.6596 221.846 27.9221 220.86 28.7509C219.439 27.9221 217.031 26.8565 214.545 26.8565C210.48 26.8565 207.322 30.0928 207.322 34.5921ZM225.573 32.8556C225.612 32.1846 228.217 28.4746 233.506 28.4746C238.4 28.4746 242.189 31.3558 242.189 37.1181C242.189 41.3411 241.991 47.8928 241.873 48.1296C241.754 48.3664 236.781 48.1296 236.781 48.1296L236.426 46.4325C236.15 46.7087 234.492 48.6032 231.374 48.6032C227.072 48.6032 225.257 46.0772 225.257 42.6436C225.257 39.0915 228.375 36.8418 232.322 36.8418C234.137 36.8418 235.242 37.3549 235.992 37.9074C236.032 36.2103 236.111 33.8817 232.558 33.8817C230.111 33.8817 228.967 35.6183 228.612 35.6578C228.256 35.6578 225.533 33.2897 225.573 32.8556ZM230.546 42.5252C230.546 43.8276 231.651 44.7353 233.111 44.7353C234.848 44.7353 235.716 43.7092 235.716 42.5252C235.716 41.1438 234.571 40.2755 233.111 40.2755C231.572 40.2755 230.546 41.2622 230.546 42.5252ZM246.056 29.1061C246.412 28.5141 251.937 28.8693 252.292 29.2245C252.253 30.0534 252.213 31.119 252.174 31.3558C253.042 30.0534 254.542 28.672 257.739 28.672C259.949 28.672 261.725 29.7771 262.791 31.5137C264.133 29.1456 267.132 28.672 268.75 28.672C273.723 28.672 275.933 31.9478 275.933 36.9997C275.933 39.6835 275.776 46.5114 275.657 48.3664C275.618 48.7216 269.619 48.7216 269.5 48.6032C269.382 48.5242 269.579 39.4861 269.579 37.6312C269.579 35.6972 269.066 34.2369 266.974 34.2369C264.804 34.2369 264.172 36.3682 264.172 37.5917C264.172 40.4334 264.054 46.2746 263.935 48.248C263.896 48.6032 257.936 48.3664 257.857 48.2874C257.699 48.2085 257.897 38.9731 257.897 37.6312C257.897 35.6972 257.344 34.2369 255.292 34.2369C253.239 34.2369 252.371 35.9735 252.371 37.2365C252.371 38.381 252.292 48.3664 252.174 48.5242C252.055 48.6821 246.293 48.6032 246.175 48.3664C246.096 48.2085 245.938 37.4733 246.056 29.1061ZM292.054 28.672C296.711 28.672 300.697 32.1451 300.697 38.6968C300.697 45.0116 296.435 48.5242 291.58 48.5637C288.975 48.5637 286.805 47.3402 286.489 46.8271C286.489 48.1296 286.647 56.4967 286.292 56.7335C285.936 57.0098 280.529 57.2466 279.779 56.8519C279.661 56.8125 279.898 29.4219 280.253 28.5536C280.292 28.4352 286.173 28.7509 286.173 28.7509C286.173 28.9877 286.134 30.6454 286.134 30.8822C286.41 30.4086 288.502 28.672 292.054 28.672ZM294.027 38.7757C294.027 36.0919 292.409 34.6711 290.278 34.6711C287.594 34.6711 286.331 36.3682 286.331 38.7363C286.331 41.3411 288.147 42.9198 290.12 42.9198C292.606 42.9198 294.027 41.2227 294.027 38.7757ZM322.302 48.248C321.947 48.761 316.816 48.6032 316.421 48.248C316.461 47.4191 316.421 46.2746 316.461 45.9983C315.592 47.2613 313.579 48.9189 310.619 48.9189C305.844 48.9189 303.555 45.9983 303.555 40.4728C303.555 37.6312 303.949 30.8822 304.068 29.0272C304.147 28.6325 310.067 28.7115 310.185 28.8299C310.264 29.264 309.869 38.2626 309.869 39.8019C309.869 42.0121 310.817 43.354 312.869 43.354C315.04 43.354 316.184 41.6963 316.224 39.9598C316.224 38.8152 316.382 29.1061 316.54 28.9483C316.658 28.7904 322.381 28.8693 322.539 29.1061C322.578 29.264 322.46 39.8413 322.302 48.248ZM333.754 48.9979C329.807 48.9979 326.216 47.4191 325.663 46.8271C325.348 46.4325 327.163 42.1305 327.479 42.2883C328.11 42.6041 330.557 44.3801 333.083 44.3801C334.662 44.3801 335.451 43.8276 335.451 42.9593C335.451 42.091 334.82 41.6174 332.254 41.1438C327.834 40.3939 325.782 38.5389 325.782 35.2236C325.782 31.0006 328.663 28.5536 333.517 28.5536C337.148 28.5536 340.345 29.7771 340.858 30.2902C341.214 30.6454 339.398 34.7895 339.122 34.829C338.924 34.829 336.399 33.2897 334.109 33.2897C332.57 33.2897 331.899 34.0396 331.899 34.829C331.899 35.6972 332.57 36.0919 334.859 36.4077C339.556 37.0786 341.648 38.6968 341.648 42.3673C341.648 45.8404 339.28 48.9979 333.754 48.9979Z" fill="white"/>
<defs>
<clipPath id="clip0_871_1537">
<rect width="70.2655" height="67.8747" fill="white"/>
</clipPath>
</defs>
</svg>
