<svg width="27" height="8" viewBox="0 0 27 8" fill="none" xmlns="http://www.w3.org/2000/svg">
<path d="M1.82229 2.50587C1.88511 2.50936 1.98981 2.51285 2.06659 2.51285C2.28645 2.51285 2.45396 2.42211 2.45396 2.20574C2.45396 1.93702 2.24457 1.8742 2.00028 1.8742C1.95142 1.8742 1.87464 1.87769 1.82229 1.88467C1.82578 1.98588 1.82229 2.37674 1.82229 2.50587ZM1.82229 3.75525C1.80834 3.77968 1.17667 3.78666 1.17318 3.76572C1.15573 3.60169 1.14875 1.58105 1.18016 1.34025C1.35814 1.31931 1.75599 1.30186 2.0282 1.30186C2.69826 1.30186 3.06121 1.61944 3.06121 2.16735C3.06121 2.79553 2.69128 3.05378 2.0282 3.05378C1.96887 3.05378 1.88162 3.05029 1.83974 3.05029C1.83625 3.29109 1.84323 3.69243 1.82229 3.75525ZM4.82352 3.74827C4.79211 3.79364 4.33842 3.77968 4.30352 3.74827C4.30701 3.67498 4.30352 3.57377 4.30701 3.54935C4.23024 3.66102 4.05225 3.8076 3.79051 3.8076C3.36823 3.8076 3.16582 3.54935 3.16582 3.06076C3.16582 2.80949 3.20072 2.21272 3.21119 2.04869C3.21817 2.01379 3.74165 2.02077 3.75212 2.03124C3.7591 2.06963 3.7242 2.86533 3.7242 3.00143C3.7242 3.19687 3.80796 3.31552 3.98943 3.31552C4.18138 3.31552 4.28258 3.16895 4.28607 3.01539C4.28607 2.91419 4.30003 2.05567 4.31399 2.04171C4.32446 2.02775 4.8305 2.03473 4.84446 2.05567C4.84795 2.06963 4.83748 3.00492 4.82352 3.74827ZM6.14678 3.79015C5.86759 3.79015 5.65471 3.61216 5.62679 3.57377C5.62679 3.59471 5.63377 3.75525 5.62679 3.77968C5.57444 3.79713 5.16962 3.80411 5.15915 3.79015C5.14519 3.74827 5.00908 1.24253 5.09633 1.15179C5.18009 1.06803 5.66169 1.13434 5.68263 1.15179C5.70008 1.16924 5.71055 2.13594 5.70706 2.21272C5.73847 2.16386 5.92343 2.01379 6.18866 2.01379C6.5551 2.01728 6.89362 2.29648 6.89362 2.85486C6.89362 3.497 6.53765 3.79015 6.14678 3.79015ZM6.36316 2.89325C6.36316 2.66989 6.2096 2.51634 6.00719 2.51634C5.79431 2.51634 5.66518 2.65593 5.66518 2.88976C5.66518 3.10264 5.79082 3.26666 6.0037 3.26666C6.22356 3.26666 6.36316 3.13405 6.36316 2.89325ZM7.11261 1.14481C7.16147 1.09944 7.61865 1.10642 7.62911 1.13085C7.65354 1.17273 7.60469 3.51445 7.58724 3.78317C7.58724 3.78317 7.1161 3.78666 7.08818 3.76921C7.06026 3.74827 7.06026 1.19018 7.11261 1.14481ZM7.87941 2.03473C7.90034 1.99983 8.43081 2.02077 8.44477 2.03473C8.45524 2.04869 8.42732 3.72384 8.41685 3.74827C8.40289 3.7727 7.90383 3.76223 7.89685 3.75176C7.88988 3.74129 7.85847 2.07312 7.87941 2.03473ZM7.85847 1.47984C7.85847 1.29139 7.9143 1.15528 8.16558 1.15528C8.35403 1.15528 8.48665 1.28441 8.48665 1.50078C8.48665 1.65434 8.35403 1.77299 8.16558 1.77299C7.9841 1.77299 7.85847 1.67179 7.85847 1.47984ZM9.32989 3.81458C8.9809 3.81458 8.66332 3.67498 8.61446 3.62263C8.58654 3.58773 8.74708 3.20734 8.775 3.2213C8.83084 3.24922 9.04721 3.40626 9.27056 3.40626C9.41016 3.40626 9.47996 3.3574 9.47996 3.28062C9.47996 3.20385 9.42412 3.16197 9.19727 3.12009C8.80641 3.05378 8.62493 2.88976 8.62493 2.59661C8.62493 2.22319 8.87969 2.00681 9.30895 2.00681C9.63002 2.00681 9.9127 2.115 9.95807 2.16037C9.98948 2.19178 9.82894 2.55822 9.80452 2.56171C9.78707 2.56171 9.56371 2.4256 9.3613 2.4256C9.22519 2.4256 9.16587 2.49191 9.16587 2.56171C9.16587 2.63848 9.22519 2.67338 9.42761 2.7013C9.8429 2.76063 10.0279 2.90372 10.0279 3.22828C10.0279 3.53539 9.81848 3.81458 9.32989 3.81458ZM10.1922 1.14132C10.2131 1.12038 10.7296 1.07501 10.7436 1.15179C10.754 1.23904 10.7366 2.13245 10.7261 2.2197C10.8029 2.115 10.939 2.0103 11.1833 2.0103C11.6579 2.0103 11.8952 2.31043 11.8952 2.76063C11.8952 2.99445 11.8673 3.67847 11.8464 3.74478C11.8289 3.77619 11.3124 3.7727 11.3054 3.76572C11.2985 3.72733 11.3089 2.94559 11.3089 2.81996C11.3089 2.67338 11.2287 2.50238 11.0472 2.50238C10.8552 2.50238 10.7505 2.65244 10.7505 2.78855C10.7505 2.90721 10.7471 3.75525 10.7366 3.76572C10.7261 3.77968 10.2061 3.7727 10.1957 3.75176C10.1852 3.73082 10.1747 1.33327 10.1922 1.14132ZM12.5824 3.04331C12.5824 3.22828 12.715 3.34344 12.9558 3.34344C13.1442 3.34344 13.2734 3.27713 13.3641 3.2213C13.399 3.25619 13.5421 3.54586 13.5456 3.5982C13.4513 3.68545 13.2105 3.79713 12.9279 3.79713C12.2962 3.79713 12.0414 3.37485 12.0414 2.92815C12.0414 2.45701 12.3346 2.01728 12.8825 2.01728C13.3466 2.01728 13.6293 2.36627 13.6293 2.75714C13.6293 2.86533 13.6189 2.95606 13.5979 3.02586C13.4234 3.05029 12.7918 3.05029 12.5824 3.04331ZM12.5789 2.72224L13.1268 2.71177C13.1338 2.54077 13.0465 2.40815 12.879 2.40815C12.6975 2.40815 12.5789 2.54426 12.5789 2.72224ZM14.9482 2.04171C15.004 2.07312 14.9342 2.55473 14.8749 2.62453C14.819 2.61057 14.7039 2.58614 14.6306 2.58963C14.4701 2.59312 14.3863 2.70479 14.3654 2.85835C14.3584 2.93513 14.3863 3.74827 14.3723 3.75874C14.3654 3.7727 13.8 3.77968 13.7895 3.75874C13.7791 3.74478 13.7791 2.14641 13.793 2.0801C13.8244 2.02426 14.306 2.00681 14.3374 2.03822C14.3409 2.11151 14.3374 2.25809 14.3374 2.27903C14.4666 2.05218 14.7144 2.00681 14.9482 2.04171ZM17.73 3.73082C17.716 3.79364 17.196 3.80411 17.1541 3.77619C17.0878 3.69243 16.5853 2.87231 16.2468 2.34882C16.2468 2.85137 16.2677 3.47955 16.2572 3.74129C16.1386 3.7727 15.6535 3.77619 15.65 3.74129C15.6325 3.54237 15.6221 1.57756 15.65 1.34025C15.664 1.27743 16.2084 1.27743 16.2258 1.30186C16.2642 1.36119 16.8575 2.27205 17.1507 2.80949C17.1576 2.24762 17.1367 1.5287 17.1507 1.34723C17.2693 1.31582 17.7335 1.3228 17.7544 1.34374C17.7753 1.36467 17.7649 3.49351 17.73 3.73082ZM18.7569 3.74478C18.7394 3.77619 18.1671 3.79015 18.1427 3.76572C18.1322 3.65055 18.0973 1.58803 18.1148 1.31931C18.2613 1.29837 19.762 1.29139 19.7969 1.31582C19.8248 1.37514 19.8213 1.7346 19.8039 1.84628C19.7061 1.86024 19.0082 1.85326 18.7255 1.84279L18.7394 2.45701C19.0431 2.45352 19.5735 2.46399 19.5945 2.48144C19.6329 2.51285 19.6084 2.93861 19.6084 2.95257C19.6084 2.97002 19.0815 2.97002 18.7499 2.96304C18.7569 3.25619 18.7604 3.63659 18.7569 3.74478ZM19.8605 1.85326C19.8291 1.74856 19.8291 1.36119 19.8466 1.34025C19.892 1.31582 21.5252 1.27743 21.6893 1.30186C21.7381 1.31582 21.7346 1.83232 21.7102 1.83581C21.6369 1.84628 21.3856 1.85326 21.0925 1.86373C21.096 2.53728 21.1029 3.60169 21.089 3.74129C21.0681 3.76572 20.4817 3.78666 20.4783 3.75525C20.4643 3.56331 20.4608 2.48493 20.4678 1.85675C20.2409 1.86024 19.9513 1.86373 19.8605 1.85326Z" fill="#141BEB"/>
<path d="M11.0242 7.23822C10.8069 7.23822 10.6283 7.14119 10.5643 7.08491C10.5585 7.04609 10.6439 6.86367 10.6633 6.87726C10.7118 6.91607 10.8418 7.01698 11.0145 7.01698C11.1562 7.01698 11.259 6.97041 11.259 6.84427C11.259 6.76082 11.1911 6.70066 10.968 6.6502C10.7079 6.59392 10.5779 6.4736 10.5779 6.24655C10.5779 6.03695 10.7506 5.84871 11.0592 5.84871C11.2552 5.84871 11.4124 5.90887 11.488 5.97097C11.5094 5.98844 11.4124 6.17862 11.3968 6.17474C11.3483 6.14563 11.2222 6.07965 11.065 6.07965C10.9175 6.07965 10.8437 6.14951 10.8437 6.24266C10.8437 6.31447 10.8767 6.36687 11.0922 6.41926C11.3658 6.48719 11.5424 6.59198 11.5424 6.83262C11.5424 7.05192 11.3638 7.23822 11.0242 7.23822ZM13.3921 7.0131C13.4076 7.05774 13.4018 7.21299 13.3941 7.23628C13.4057 7.2421 12.6391 7.2518 12.5343 7.23628C12.5266 7.0655 12.5324 6.1204 12.5421 5.87394C12.6818 5.8623 13.3824 5.85647 13.4212 5.86812C13.4367 5.89141 13.4329 6.05054 13.4251 6.09323C13.3902 6.09906 12.9399 6.10294 12.7905 6.09712L12.7944 6.44061C12.9361 6.43867 13.2699 6.44255 13.2834 6.44837C13.3028 6.46196 13.2893 6.65796 13.2893 6.66379C13.2893 6.67155 12.9593 6.67155 12.7925 6.66767V7.01698C12.9652 7.01116 13.3494 7.00922 13.3921 7.0131ZM15.3175 7.2421C15.2904 7.17612 15.2321 7.00922 15.2011 6.91801C15.1254 6.91995 14.8071 6.92383 14.7062 6.92189C14.6674 7.03445 14.6131 7.21299 14.5975 7.23822C14.5898 7.24598 14.3453 7.2324 14.3278 7.20911C14.3686 7.06162 14.7586 5.88364 14.778 5.872C14.7955 5.86036 15.0672 5.84871 15.1196 5.85841C15.1254 5.86036 15.5543 7.03251 15.5892 7.21299C15.5601 7.2421 15.3234 7.24986 15.3175 7.2421ZM14.9643 6.09906C14.9604 6.09906 14.9566 6.101 14.9527 6.101C14.9236 6.19803 14.8227 6.52018 14.7528 6.71424C14.8479 6.7123 15.0652 6.70842 15.1623 6.70842C15.0905 6.50853 14.9876 6.19221 14.9643 6.09906ZM16.933 7.23822C16.7156 7.23822 16.5371 7.14119 16.4731 7.08491C16.4672 7.04609 16.5526 6.86367 16.572 6.87726C16.6205 6.91607 16.7506 7.01698 16.9233 7.01698C17.065 7.01698 17.1678 6.97041 17.1678 6.84427C17.1678 6.76082 17.0999 6.70066 16.8767 6.6502C16.6167 6.59392 16.4866 6.4736 16.4866 6.24655C16.4866 6.03695 16.6594 5.84871 16.9679 5.84871C17.1639 5.84871 17.3211 5.90887 17.3968 5.97097C17.4181 5.98844 17.3211 6.17862 17.3056 6.17474C17.2571 6.14563 17.1309 6.07965 16.9737 6.07965C16.8263 6.07965 16.7525 6.14951 16.7525 6.24266C16.7525 6.31447 16.7855 6.36687 17.0009 6.41926C17.2745 6.48719 17.4511 6.59198 17.4511 6.83262C17.4511 7.05192 17.2726 7.23822 16.933 7.23822ZM19.0156 5.84483C19.4134 5.84483 19.6657 6.11458 19.6657 6.56481C19.6657 6.90637 19.4794 7.26733 19.0214 7.26733C18.6158 7.26733 18.3732 6.95876 18.3732 6.54541C18.3732 6.19221 18.5828 5.84483 19.0156 5.84483ZM19.3843 6.54541C19.3843 6.25237 19.2407 6.08741 19.0234 6.08741C18.7769 6.08741 18.6469 6.28342 18.6469 6.55899C18.6469 6.81128 18.7866 7.02087 19.0137 7.02087C19.2737 7.02087 19.3843 6.82292 19.3843 6.54541ZM21.7809 7.22463C21.7751 7.25568 21.5578 7.25957 21.5403 7.24404C21.5073 7.19941 21.1328 6.61333 20.9348 6.31253C20.9367 6.61721 20.9426 7.04998 20.9387 7.22657C20.8902 7.24404 20.6845 7.24792 20.6825 7.22852C20.6748 7.08685 20.6709 6.0389 20.6825 5.8817C20.6922 5.85453 20.9115 5.85259 20.9232 5.86424C20.9387 5.88947 21.3637 6.52794 21.5384 6.83068C21.5442 6.49301 21.5325 6.01367 21.5384 5.89529C21.5888 5.87782 21.7829 5.8817 21.7926 5.89335C21.8023 5.90499 21.8023 7.03251 21.7809 7.22463Z" fill="#00DEB2"/>
<path d="M24.6995 5.49623L24.7141 5.52534L26.2351 5.48896C26.3151 5.56173 26.2787 6.63879 26.2132 6.63152C26.0677 6.65335 23.2004 6.6679 23.1567 6.63879C23.1203 6.61696 22.9893 5.86738 23.0184 5.71456C23.9718 4.6375 24.9979 3.83698 24.9979 3.18928C24.9979 2.89819 24.8451 2.6362 24.4375 2.6362C23.979 2.6362 23.7534 2.94913 23.6661 3.05101C23.5278 2.96368 23.0111 2.3451 23.0257 2.23594C23.0403 2.12678 23.5497 1.45725 24.6704 1.45725C25.631 1.45725 26.3078 1.99578 26.3078 2.96368C26.3078 3.82242 25.631 4.54289 24.6995 5.49623Z" fill="#00DEB2"/>
</svg>
