<svg width="17" height="17" viewBox="0 0 17 17" fill="none" xmlns="http://www.w3.org/2000/svg">
<g clip-path="url(#clip0_5_2393)">
<path fill-rule="evenodd" clip-rule="evenodd" d="M13.0966 5.17927C13.0401 5.18699 12.9826 5.17781 12.9314 5.15287C12.8801 5.12794 12.8374 5.08837 12.8086 5.03919C12.7799 4.99 12.7664 4.93339 12.7698 4.87653C12.7733 4.81967 12.7935 4.76511 12.828 4.71975C12.8625 4.67439 12.9097 4.64026 12.9636 4.62169C13.0175 4.60312 13.0757 4.60094 13.1308 4.61542C13.1859 4.6299 13.2355 4.66039 13.2733 4.70304C13.3111 4.74569 13.3354 4.79858 13.3431 4.85502C13.3483 4.89249 13.346 4.9306 13.3364 4.96718C13.3268 5.00377 13.3101 5.0381 13.2872 5.06822C13.2643 5.09834 13.2357 5.12365 13.203 5.1427C13.1703 5.16176 13.1341 5.17418 13.0966 5.17927ZM13.0237 4.64313C12.974 4.64981 12.9274 4.67106 12.8899 4.70419C12.8523 4.73733 12.8254 4.78085 12.8126 4.82927C12.7998 4.87768 12.8016 4.9288 12.8179 4.97616C12.8342 5.02352 12.8642 5.06499 12.904 5.09532C12.9439 5.12565 12.9919 5.14348 13.0419 5.14655C13.092 5.14962 13.1418 5.13779 13.1851 5.11256C13.2284 5.08734 13.2632 5.04984 13.2852 5.00483C13.3071 4.95982 13.3152 4.9093 13.3084 4.85969C13.2994 4.79326 13.2643 4.73315 13.2109 4.69254C13.1575 4.65194 13.0902 4.63416 13.0237 4.64313ZM13.2186 5.02198C13.2059 5.02368 13.198 5.02351 13.1821 5.02572C13.1481 5.03031 13.1367 5.00619 13.1327 4.97689L13.1293 4.95141C13.1271 4.9351 13.1246 4.91744 13.1083 4.90988C13.0972 4.90512 13.0906 4.90487 13.0506 4.90988C13.0225 4.9137 13.0119 4.91837 13.0142 4.93476L13.017 4.95557C13.0183 4.97252 13.0211 4.98932 13.0255 5.00576C13.0269 5.01025 13.0299 5.01403 13.034 5.01632C13.0381 5.01862 13.0429 5.01924 13.0475 5.01808C13.054 5.01723 13.0602 5.01425 13.0668 5.01341C13.0686 5.01317 13.0704 5.0133 13.0721 5.01378C13.0738 5.01427 13.0754 5.0151 13.0768 5.01623C13.0782 5.01736 13.0794 5.01876 13.0802 5.02035C13.081 5.02194 13.0815 5.02368 13.0817 5.02547C13.0818 5.02761 13.0816 5.02977 13.0809 5.03181C13.0802 5.03385 13.0791 5.03572 13.0776 5.03731C13.0762 5.03891 13.0744 5.04019 13.0724 5.04107C13.0705 5.04195 13.0683 5.04242 13.0662 5.04245C13.0492 5.04474 13.0322 5.04245 13.011 5.04542C12.9899 5.0484 12.977 5.05459 12.957 5.05731C12.955 5.05788 12.9528 5.058 12.9506 5.05768C12.9485 5.05735 12.9464 5.05659 12.9446 5.05543C12.9427 5.05428 12.9412 5.05275 12.9399 5.05096C12.9387 5.04916 12.9379 5.04713 12.9375 5.045C12.9372 5.04324 12.9372 5.04143 12.9376 5.03967C12.9379 5.03792 12.9387 5.03626 12.9397 5.0348C12.9408 5.03334 12.9421 5.03211 12.9436 5.03117C12.9452 5.03024 12.9469 5.02963 12.9486 5.02937C12.9551 5.02844 12.9619 5.02937 12.9684 5.02869C12.9731 5.02861 12.9776 5.02671 12.981 5.02341C12.9843 5.0201 12.9862 5.01564 12.9864 5.01094C12.9862 4.99385 12.9846 4.9768 12.9815 4.95999L12.9688 4.86062C12.9674 4.84365 12.9646 4.82683 12.9603 4.81035C12.9589 4.80586 12.9558 4.80208 12.9517 4.79978C12.9476 4.79749 12.9428 4.79686 12.9383 4.79803C12.9317 4.79897 12.9255 4.80185 12.919 4.8027C12.9172 4.80295 12.9154 4.80283 12.9136 4.80235C12.9119 4.80187 12.9103 4.80104 12.9089 4.79991C12.9075 4.79878 12.9063 4.79738 12.9055 4.79578C12.9046 4.79419 12.9041 4.79244 12.904 4.79064C12.9038 4.78849 12.9041 4.78632 12.9048 4.78428C12.9055 4.78224 12.9066 4.78036 12.9081 4.77876C12.9095 4.77717 12.9113 4.77589 12.9133 4.77501C12.9153 4.77414 12.9174 4.77367 12.9196 4.77366C12.9436 4.77035 12.9645 4.77205 12.9854 4.76924C13.02 4.76457 13.0421 4.75693 13.0601 4.75455C13.0814 4.75017 13.1035 4.7516 13.1241 4.75871C13.1343 4.76375 13.1431 4.77128 13.1497 4.78062C13.1563 4.78995 13.1604 4.80079 13.1617 4.81213C13.1674 4.85459 13.1455 4.87616 13.1072 4.88797V4.88873C13.1497 4.88788 13.1604 4.91056 13.1656 4.94929L13.1683 4.96882C13.1708 4.98759 13.1727 4.99854 13.1955 4.9954C13.2016 4.99455 13.208 4.99243 13.2141 4.99166C13.2161 4.99114 13.2182 4.99106 13.2203 4.99142C13.2224 4.99178 13.2243 4.99258 13.2261 4.99376C13.2278 4.99494 13.2293 4.99648 13.2303 4.99827C13.2314 5.00007 13.2321 5.00207 13.2324 5.00415C13.2327 5.00623 13.2325 5.00834 13.232 5.01038C13.2315 5.01241 13.2305 5.01431 13.2293 5.01597C13.228 5.01763 13.2264 5.01902 13.2245 5.02006C13.2227 5.02109 13.2207 5.02174 13.2186 5.02198ZM13.1089 4.8647C13.1152 4.85933 13.12 4.85231 13.1226 4.84442C13.1253 4.83653 13.1257 4.82806 13.1239 4.81994C13.1186 4.78122 13.0891 4.77451 13.0528 4.77943C13.0076 4.78563 12.9952 4.79514 12.9973 4.81026L13.0064 4.87667C13.0077 4.88644 13.009 4.88712 13.0205 4.88517L13.0538 4.88058C13.0731 4.87952 13.092 4.87421 13.1091 4.86504L13.1089 4.8647ZM12.7781 6.17019L12.3292 6.7606C12.3038 6.79385 12.2751 6.82455 12.2437 6.85223L12.2939 7.22141C12.3169 7.38966 12.272 7.56013 12.1692 7.69533C12.1183 7.76227 12.0546 7.81854 11.982 7.86091C11.9093 7.90329 11.8289 7.93094 11.7455 7.9423C11.5771 7.96524 11.4065 7.92041 11.2712 7.81765C11.1359 7.7149 11.047 7.56265 11.024 7.3944L10.9684 6.98582C10.9519 6.97546 10.9356 6.96459 10.9198 6.95253L10.3295 6.50361C10.196 6.40016 10.1086 6.24822 10.0866 6.0808C10.0645 5.91339 10.1095 5.74404 10.2117 5.60958C10.3139 5.47511 10.4652 5.38639 10.6325 5.36272C10.7998 5.33904 10.9698 5.38231 11.1054 5.48313L11.476 5.76509L11.758 5.3943C11.809 5.32729 11.8726 5.27097 11.9454 5.22856C12.0181 5.18615 12.0986 5.15849 12.182 5.14715C12.2655 5.13581 12.3504 5.14101 12.4318 5.16246C12.5133 5.18392 12.5897 5.2212 12.6567 5.27218C12.7237 5.32315 12.78 5.38683 12.8224 5.45956C12.8648 5.53229 12.8924 5.61266 12.9036 5.69606C12.9149 5.77946 12.9096 5.86426 12.8881 5.94561C12.8665 6.02697 12.8292 6.10328 12.7781 6.17019ZM10.1477 7.81929C10.146 7.82379 10.1442 7.82778 10.1425 7.83262C10.1065 7.92487 10.0495 8.0075 9.976 8.07401C9.90255 8.14051 9.81464 8.18908 9.71921 8.21588C9.62379 8.24269 9.52343 8.247 9.42605 8.22847C9.32867 8.20995 9.23692 8.1691 9.15803 8.10914L8.67623 7.73691C8.69266 7.90393 8.64278 8.07072 8.53734 8.20136C8.4319 8.33201 8.27933 8.41606 8.11247 8.43542C7.94562 8.45478 7.77783 8.4079 7.64522 8.30488C7.51262 8.20186 7.42581 8.05093 7.40349 7.8846L7.21189 6.47601C7.1945 6.34981 7.21519 6.22129 7.27132 6.10691C7.32745 5.99253 7.41646 5.89748 7.52697 5.83393C7.63748 5.77038 7.76445 5.74122 7.89164 5.75019C8.01883 5.75915 8.14045 5.80582 8.24093 5.88424C8.24501 5.88713 8.24943 5.88993 8.25309 5.89273L8.71831 6.25732C8.69637 6.08896 8.74228 5.91878 8.84593 5.78423C8.94958 5.64968 9.10248 5.56178 9.27099 5.53986C9.43951 5.51795 9.60984 5.56381 9.74451 5.66737C9.87918 5.77093 9.96716 5.92369 9.9891 6.09206L10.1819 7.50939C10.1959 7.6117 10.1849 7.71588 10.1498 7.813C10.1491 7.81538 10.1484 7.81742 10.1477 7.81929ZM6.7244 8.62838C6.64098 8.63971 6.55614 8.6345 6.47473 8.61305C6.39333 8.5916 6.31695 8.55434 6.24996 8.50339C6.18297 8.45244 6.12669 8.38881 6.08433 8.31612C6.04196 8.24343 6.01435 8.16311 6.00307 8.07976L5.81079 6.66514C5.78783 6.49688 5.83271 6.32641 5.93555 6.19122C6.0384 6.05602 6.19078 5.96718 6.35919 5.94424C6.52759 5.9213 6.69822 5.96614 6.83354 6.06889C6.96885 6.17164 7.05777 6.32389 7.08073 6.49214L7.27309 7.90676C7.29607 8.07514 7.25118 8.24575 7.14829 8.38107C7.0454 8.51639 6.89292 8.60535 6.7244 8.62838ZM5.18764 7.39805L5.10561 7.40918L5.21135 8.18761C5.22364 8.27134 5.21919 8.35667 5.19827 8.43867C5.17734 8.52067 5.14036 8.59771 5.08945 8.66534C5.03854 8.73297 4.97471 8.78984 4.90167 8.83267C4.82862 8.87551 4.7478 8.90345 4.66388 8.91488C4.57996 8.92631 4.4946 8.92101 4.41274 8.89928C4.33088 8.87755 4.25415 8.83982 4.18697 8.78828C4.1198 8.73674 4.06352 8.67241 4.02138 8.599C3.97925 8.52559 3.9521 8.44456 3.9415 8.36061L3.83576 7.58217L3.75407 7.5933C3.58547 7.61619 3.41468 7.57124 3.27926 7.46832C3.14384 7.3654 3.05489 7.21295 3.03197 7.0445C3.00905 6.87606 3.05405 6.70542 3.15706 6.57012C3.26007 6.43482 3.41266 6.34595 3.58126 6.32305L5.01491 6.12772C5.18351 6.10484 5.3543 6.14981 5.48971 6.25273C5.62512 6.35566 5.71406 6.50812 5.73697 6.67656C5.75987 6.84501 5.71486 7.01564 5.61185 7.15093C5.50883 7.28622 5.35623 7.37517 5.18764 7.39805ZM5.24051 8.8953L6.67416 8.69997C6.84198 8.6787 7.0114 8.72452 7.14557 8.82744C7.27974 8.93036 7.3678 9.08206 7.39057 9.24953C7.41334 9.41699 7.36899 9.58667 7.26717 9.72162C7.16535 9.85658 7.0143 9.9459 6.84689 9.97013L6.76486 9.98134L6.87069 10.7595C6.88258 10.8431 6.87782 10.9281 6.85669 11.0098C6.83557 11.0915 6.79849 11.1682 6.74759 11.2355C6.69669 11.3029 6.63298 11.3595 6.56011 11.4021C6.48724 11.4447 6.40665 11.4726 6.32298 11.484C6.23931 11.4954 6.1542 11.4902 6.07256 11.4687C5.99091 11.4471 5.91433 11.4096 5.84722 11.3584C5.78011 11.3072 5.7238 11.2432 5.68152 11.1702C5.63923 11.0972 5.61181 11.0165 5.60084 10.9329L5.49501 10.1547L5.41332 10.1658C5.24472 10.1887 5.07393 10.1437 4.93852 10.0408C4.80311 9.93786 4.71417 9.78541 4.69127 9.61697C4.66836 9.44852 4.71337 9.27788 4.81639 9.14259C4.91941 9.0073 5.072 8.91844 5.24059 8.89556L5.24051 8.8953ZM7.7599 8.92749C7.79513 8.81312 7.86173 8.7109 7.95214 8.63243C8.04256 8.55395 8.15318 8.50236 8.27145 8.4835C8.27621 8.48273 8.28097 8.48222 8.28564 8.48154C8.29032 8.48086 8.29516 8.48018 8.29992 8.47967C8.41896 8.46609 8.53942 8.48615 8.64762 8.53757C8.75581 8.58899 8.84739 8.66971 8.91194 8.77055L9.844 10.0613C9.89589 10.1278 9.93415 10.2038 9.95659 10.2851C9.97902 10.3663 9.98518 10.4512 9.97471 10.5348C9.96425 10.6185 9.93737 10.6992 9.89561 10.7724C9.85386 10.8457 9.79804 10.9099 9.73137 10.9616C9.6647 11.0132 9.58849 11.0512 9.5071 11.0734C9.4257 11.0955 9.34074 11.1014 9.25706 11.0907C9.17339 11.08 9.09265 11.0529 9.01949 11.0109C8.94632 10.969 8.88216 10.913 8.83068 10.8462L8.55595 10.4658L8.39283 10.9059C8.32842 11.0631 8.20417 11.1882 8.04741 11.2539C7.89064 11.3195 7.71421 11.3202 7.55692 11.2558C7.39963 11.1915 7.27436 11.0673 7.20869 10.9107C7.14301 10.7541 7.1423 10.5778 7.20671 10.4207L7.7599 8.92749ZM10.4197 8.19449C10.4537 8.18991 10.4771 8.18761 10.5197 8.18099L11.0698 8.10608C11.1821 8.09085 11.2962 8.09786 11.4057 8.12671C11.5152 8.15556 11.618 8.20569 11.7081 8.27424C11.7982 8.34278 11.874 8.42839 11.931 8.52619C11.988 8.62398 12.0251 8.73204 12.0403 8.84418C12.0978 9.26686 11.7067 9.67748 11.2855 9.8047L11.335 10.1693C11.358 10.3375 11.3131 10.508 11.2102 10.6432C11.1074 10.7784 10.955 10.8673 10.7865 10.8902C10.6181 10.9131 10.4475 10.8683 10.3122 10.7655C10.1769 10.6627 10.088 10.5105 10.065 10.3422L9.87018 8.9083C9.859 8.82533 9.86438 8.74097 9.886 8.66008C9.90762 8.5792 9.94505 8.50339 9.99614 8.43703C10.0472 8.37068 10.111 8.31508 10.1837 8.27345C10.2564 8.23182 10.3366 8.20499 10.4197 8.19449Z" fill="#71BEEB"/>
</g>
<path d="M1.33047 5.76897C1.23187 5.76887 1.13479 5.74468 1.0477 5.69853C0.960615 5.65237 0.886167 5.58565 0.830852 5.50418C0.775538 5.42271 0.741037 5.32897 0.73036 5.23114C0.719683 5.1333 0.733154 5.03435 0.769598 4.9429C1.04111 4.26288 1.54415 3.48269 2.15031 2.8024C2.86655 1.98705 3.73757 1.32142 4.71305 0.843989C4.85762 0.775172 5.02365 0.766491 5.17463 0.819856C5.32561 0.87322 5.44917 0.98426 5.51812 1.12855C5.58707 1.27283 5.59577 1.43855 5.5423 1.58923C5.48883 1.73992 5.37757 1.86324 5.23301 1.93205C3.56933 2.72401 2.3346 4.27934 1.89143 5.38917C1.8467 5.50121 1.76935 5.59729 1.66935 5.66499C1.56935 5.7327 1.45131 5.76892 1.33047 5.76897Z" fill="#EF4A6A"/>
<path d="M0.991455 10.405C0.857347 10.4049 0.727094 10.3602 0.621218 10.2781C0.515342 10.1959 0.439862 10.0809 0.406672 9.95125C0.0822042 8.67841 0.168499 7.10585 0.308254 6.58295C0.349562 6.42849 0.450655 6.29674 0.589296 6.21667C0.727936 6.1366 0.892766 6.11478 1.04752 6.15601C1.20228 6.19724 1.3343 6.29814 1.41452 6.43651C1.49474 6.57488 1.5166 6.73939 1.47529 6.89385C1.38588 7.22853 1.31079 8.60985 1.57716 9.65346C1.59977 9.74248 1.60171 9.83547 1.58286 9.92534C1.564 10.0152 1.52483 10.0996 1.46834 10.1721C1.41185 10.2446 1.33953 10.3032 1.25689 10.3436C1.17425 10.384 1.08346 10.405 0.991455 10.405Z" fill="#FAD704"/>
<path d="M1.83043 12.4422C1.72188 12.4422 1.61532 12.413 1.52197 12.3577C1.42863 12.3024 1.35196 12.223 1.30004 12.1278L1.01042 11.5977C0.93376 11.4573 0.916116 11.2922 0.961374 11.1389C1.00663 10.9855 1.11109 10.8563 1.25176 10.7798C1.39243 10.7033 1.55779 10.6857 1.71147 10.7309C1.86515 10.776 1.99455 10.8803 2.07122 11.0207L2.36083 11.5508C2.41093 11.6426 2.43626 11.7458 2.43435 11.8503C2.43244 11.9548 2.40335 12.057 2.34993 12.1469C2.29652 12.2367 2.22061 12.3112 2.12966 12.363C2.0387 12.4148 1.93582 12.4421 1.83111 12.4422L1.83043 12.4422Z" fill="#80C462"/>
<path d="M8.18357 16.0369C6.39081 16.0433 4.64884 15.4428 3.24213 14.3336C3.11616 14.2348 3.03466 14.0902 3.01555 13.9315C2.99644 13.7727 3.04128 13.6129 3.14022 13.4872C3.23916 13.3615 3.38408 13.2802 3.54311 13.2611C3.70214 13.242 3.86225 13.2868 3.98822 13.3855C5.18255 14.3272 6.66151 14.837 8.18357 14.8314C9.14122 14.8305 10.0879 14.6276 10.9615 14.236C11.8351 13.8445 12.616 13.2731 13.2529 12.5594C13.8899 11.8457 14.3686 11.0057 14.6576 10.0944C14.9467 9.18323 15.0396 8.22133 14.9302 7.27178C14.8209 6.32223 14.5117 5.40645 14.0231 4.58444C13.5344 3.76244 12.8773 3.05275 12.0947 2.50187C11.3121 1.95099 10.4217 1.57136 9.48187 1.38784C8.54203 1.20433 7.57395 1.22107 6.64104 1.43697C6.48501 1.47309 6.32099 1.44587 6.18507 1.3613C6.04914 1.27673 5.95245 1.14172 5.91625 0.985995C5.88006 0.830265 5.90733 0.666563 5.99207 0.530901C6.0768 0.39524 6.21207 0.298731 6.3681 0.262607C6.96344 0.125202 7.57252 0.0559374 8.18357 0.0561528C9.76698 0.0561497 11.3148 0.524775 12.6314 1.40277C13.948 2.28076 14.9741 3.52869 15.58 4.98874C16.186 6.44879 16.3445 8.05539 16.0356 9.60537C15.7267 11.1554 14.9642 12.5791 13.8446 13.6966C13.1029 14.4409 12.2207 15.031 11.2489 15.4327C10.2772 15.8344 9.23534 16.0398 8.18357 16.0369Z" fill="#70C4EE"/>
<defs>
<clipPath id="clip0_5_2393">
<rect width="10.319" height="6.88116" fill="white" transform="translate(3.02832 4.60596)"/>
</clipPath>
</defs>
</svg>
