<svg width="96" height="96" viewBox="0 0 96 96" fill="none" xmlns="http://www.w3.org/2000/svg">
<path fill-rule="evenodd" clip-rule="evenodd" d="M44.0346 72.7624C43.8595 73.4159 44.3519 74.0576 45.0285 74.0576H50.9539C51.6304 74.0576 52.1229 73.4159 51.9478 72.7624L48.985 61.7053C48.7126 60.6885 47.2698 60.6885 46.9973 61.7053L44.0346 72.7624Z" fill="white"/>
<path fill-rule="evenodd" clip-rule="evenodd" d="M38.1345 79.8396C37.6807 81.533 36.1461 82.7106 34.3929 82.7106H26.3726C23.8256 82.7106 21.9719 80.2947 22.6311 77.8345L39.0844 16.4299C39.5807 14.5777 41.2591 13.2897 43.1767 13.2897H52.7219C54.6394 13.2897 56.3179 14.5777 56.8142 16.4299L73.2675 77.8345C73.9267 80.2947 72.0729 82.7106 69.526 82.7106H61.5056C59.7524 82.7106 58.2178 81.533 57.7641 79.8396L49.7616 49.9738C49.2648 48.1197 46.6338 48.1197 46.137 49.9738L38.1345 79.8396Z" fill="white"/>
<path fill-rule="evenodd" clip-rule="evenodd" d="M78.4774 68.2685C77.9646 70.1824 75.2487 70.1824 74.7359 68.2685L68.7626 45.9759C68.6471 45.5449 68.6471 45.091 68.7626 44.66L76.3751 16.25C76.843 14.5036 78.4256 13.2893 80.2335 13.2893H88.0032C90.6298 13.2893 92.5415 15.7807 91.8617 18.3178L78.4774 68.2685ZM27.2274 45.9387C27.3429 45.5077 27.3429 45.0539 27.2274 44.6228L19.6249 16.25C19.157 14.5036 17.5744 13.2893 15.7665 13.2893H7.99677C5.37023 13.2893 3.45851 15.7807 4.13831 18.3178L17.5126 68.2313C18.0254 70.1452 20.7413 70.1452 21.2541 68.2313L27.2274 45.9387Z" fill="white"/>
</svg>
