<svg width="1266" height="708" viewBox="0 0 1266 708" fill="none" xmlns="http://www.w3.org/2000/svg">
<path d="M528.628 409.79H548.138L513.633 295.311H490.737L456.232 409.79H475.742L483.292 382.995H520.93L528.628 409.79ZM501.863 311.758H502.508C505.087 325.785 509.985 345.238 516.407 367.023H487.793C494.242 345.256 499.283 325.785 501.863 311.758Z" fill="white"/>
<path d="M716.171 367.384C716.171 344.327 705.045 327.236 680.054 327.236C656.674 327.236 641.84 343.521 641.84 368.674C641.84 394.795 655.062 411.725 680.289 411.725C696.984 411.725 710.875 404.612 715.687 391.248C716.694 388.452 717.072 386.785 717.387 383.831C717.416 383.555 717.441 382.95 717.441 382.95H699.414C699.414 382.95 699.341 383.699 699.315 383.831C697.877 391.086 690.857 396.568 680.289 396.568C668.767 396.568 660.866 386.894 660.866 373.834H715.941C716.102 371.738 716.171 369.481 716.171 367.384ZM696.984 361.58H660.705C660.705 350.616 667.155 340.458 679.57 340.458C691.663 340.458 697.145 349.648 696.984 361.58Z" fill="white"/>
<path d="M769.679 411.698C796.122 411.698 810.472 394.93 812.084 370.744L812.319 367.036H792.413C791.446 385.417 784.029 395.252 770.485 395.252C755.329 395.252 747.912 381.869 747.912 356.878V346.262C747.912 321.109 755.006 309.017 770.485 309.017C783.868 309.017 791.446 319.013 792.413 337.072H812.381L812.245 334.008C810.149 305.792 795.154 292.57 770.646 292.57C741.946 292.57 727.596 313.209 727.596 346.585V357.684C727.596 391.06 741.462 411.698 769.679 411.698Z" fill="white"/>
<path d="M860.944 411.725C883.84 411.725 900.125 395.923 900.125 369.481C900.125 343.038 883.84 327.236 860.944 327.236C838.048 327.236 821.763 343.038 821.763 369.481C821.763 395.601 838.048 411.725 860.944 411.725ZM860.944 396.891C848.69 396.891 841.434 387.055 841.434 369.481C841.434 351.906 848.69 342.07 860.944 342.07C873.198 342.07 880.454 352.067 880.454 369.481C880.454 387.055 873.198 396.891 860.944 396.891Z" fill="white"/>
<path d="M934.76 295.331H915.895V314.803H934.76V295.331ZM915.895 409.79H934.76V395.278V329.171H903.91V343.683H915.895V395.278V409.79Z" fill="white"/>
<path fill-rule="evenodd" clip-rule="evenodd" d="M574.996 329.171H557.098V441.231H575.963V412.357V402.379C584.161 405.913 589.804 411.725 599.02 411.725C620.465 411.725 632.557 394.634 632.557 369.319C632.557 344.65 620.948 327.236 599.826 327.236C590.239 327.236 583.172 333.643 574.996 337.872V329.171ZM575.479 367.546V371.577C575.479 386.894 582.735 396.891 594.183 396.891C605.953 396.891 612.886 386.088 612.886 369.319C612.886 352.712 606.437 342.07 594.344 342.07C583.058 342.07 575.479 351.261 575.479 367.546Z" fill="white"/>
<path d="M966.024 329.171H947.966V409.79H966.83V366.256C966.83 356.42 970.861 342.876 985.373 342.876C992.628 342.876 999.562 346.746 999.562 362.064V409.79H1018.59V359.968C1018.59 346.585 1015.85 338.845 1010.69 333.847C1005.53 328.849 998.433 327.236 992.145 327.236C981.635 327.236 974.2 333.643 966.024 337.872V329.171Z" fill="white"/>
<g clip-path="url(#clip0_1276_2584)">
<rect x="247.685" y="261.25" width="185.558" height="185.558" rx="92.779" fill="url(#paint0_radial_1276_2584)"/>
<path d="M403.555 325.069C403.167 327.34 402.712 328.441 402.18 329.716L402.179 329.719C401.604 331.1 400.952 332.668 400.362 335.779C400.127 337.024 400.01 337.938 399.908 338.743L399.901 338.793L399.895 338.84C399.731 340.129 399.621 340.998 399.097 342.544C398.672 343.806 397.961 345.913 396.249 348.182C394.866 350.018 392.551 353.091 389.462 353.459C389.194 353.477 388.633 353.505 388.404 353.388C379.641 348.913 372.112 345.607 369.506 344.865C366.475 344.006 366.863 337.397 367.206 331.566C367.36 328.96 367.505 326.496 367.383 324.386C366.957 317.025 365.654 308.968 359.243 305.04C355.416 302.696 350.479 302.008 345.762 301.998C346.636 301.582 347.611 301.017 348.673 300.399L348.706 300.38C351.483 298.772 354.931 296.775 358.357 296.424C359.477 296.313 360.578 296.184 361.664 296.063C368.57 295.281 374.537 294.609 380.83 296.764C383.683 297.743 389.535 301.008 391.046 304.039C392.11 306.179 393.905 307.847 397.486 311.176C399.35 312.91 400.578 313.919 401.477 314.657L401.518 314.691C402.78 315.729 403.029 315.946 403.405 316.713C404.565 319.078 404.142 321.59 403.555 325.069Z" fill="white"/>
<path d="M371.677 355.329C372.092 355.472 372.247 355.976 372.006 356.342C371.07 357.762 369.998 359.71 368.713 362.092C368.11 363.215 367.539 364.275 367.06 365.102C365.362 368.018 365.224 370.472 365.116 372.442C364.999 374.502 364.895 375.448 363.664 376.269C362.648 376.95 361.607 377.177 354.392 378.276C353.133 378.471 352.574 378.715 352.083 378.929C351.949 378.987 351.816 379.045 351.664 379.102C351.247 379.258 350.839 378.903 350.864 378.46C350.921 377.42 350.958 376.121 350.962 374.487V374.174C351 372.76 350.941 371.613 350.89 370.688C350.795 368.846 350.783 368.07 351.274 367.268C351.877 366.299 352.347 366.003 353.12 365.513C354.199 364.835 355.679 363.902 357.869 360.892C359.033 359.298 359.291 358.434 359.452 357.687C359.522 357.377 359.547 357.261 360.443 356.582C361.39 355.863 364.277 353.676 367.972 354.297C368.994 354.47 370.296 354.852 371.677 355.329Z" fill="white"/>
<path d="M342.969 388.594C342.812 388.799 342.628 388.894 342.363 388.907C341.609 388.939 341.079 388.752 340.728 388.33C339.984 387.424 340.084 385.604 340.258 384.54L343.309 383.727C343.548 385.342 343.66 387.695 342.969 388.594Z" fill="white"/>
<path d="M343.216 377.583C343.165 378.028 343.109 378.529 343.111 379.053C343.115 379.248 343.117 379.445 343.123 379.636C343.129 380.135 343.149 380.927 343.08 381.287C342.127 381.634 341.313 381.634 340.243 381.615C340.227 381.306 340.247 380.845 340.259 380.534C340.265 380.294 340.278 380.055 340.281 379.827C340.284 379.574 340.281 379.325 340.281 379.076C340.277 378.489 340.269 377.527 340.413 377.244C340.7 377.202 340.994 377.139 341.309 377.067C341.94 376.931 342.763 376.757 343.287 376.836C343.279 377.04 343.247 377.343 343.216 377.583Z" fill="white"/>
<path d="M337.571 387.655C337.424 389.219 336.941 391.153 335.474 391.447C334.814 391.583 334.495 391.384 334.294 391.195C333.303 390.277 333.145 387.503 333.283 385.519C333.943 385.531 334.808 385.383 335.832 385.185C336.457 385.061 337.079 384.923 337.574 384.809C337.631 385.543 337.672 386.591 337.571 387.655Z" fill="white"/>
<path d="M336.878 382.04L333.568 383.201C333.736 381.916 333.96 380.108 334.039 378.907C334.096 378.061 334.326 377.802 334.392 377.746C334.414 377.727 334.458 377.687 334.581 377.687C334.6 377.687 334.619 377.69 334.64 377.69L334.71 377.7L336.801 377.586C336.89 378.569 336.89 380.728 336.878 382.04Z" fill="white"/>
<path d="M331.53 381.011C331.343 381.509 331.122 382.92 330.984 383.913L326.838 383.787C327.072 382.503 327.396 381.196 327.752 380.155C328.112 379.12 328.5 378.344 328.857 378.126C329.273 377.876 330.189 377.82 330.75 378.299C331.662 379.077 331.914 379.967 331.53 381.011Z" fill="white"/>
<path d="M329.982 393.701C329.661 394.14 329.304 394.363 328.862 394.41C328.411 394.461 328.06 394.36 327.78 394.098C326.478 392.896 326.584 388.958 326.632 387.065C328.351 386.673 330.207 386.34 331.087 386.289C331.219 387.874 331.257 391.966 329.982 393.701Z" fill="white"/>
<path d="M324.571 383.675C324.369 384.215 324.173 384.725 324.025 385.177C323.543 385.328 322.069 385.196 320.564 384.864L321.599 378.339C323.299 377.888 325.271 377.743 325.748 378.248C326.376 378.915 325.114 382.253 324.571 383.675Z" fill="white"/>
<path d="M322.695 394.694C321.891 395.685 320.685 396.148 319.003 396.13C317.839 396.111 317.423 395.669 317.215 395.338C316.281 393.859 317.195 390.372 318.111 388.145L323.727 388.482C323.784 388.873 323.831 389.349 323.853 389.867C323.915 391.452 323.716 393.426 322.695 394.694Z" fill="white"/>
<path d="M369.105 347.344C364.049 345.912 364.484 338.519 364.905 331.374C365.054 328.846 365.195 326.455 365.08 324.501C364.692 317.813 363.567 310.529 358.188 307.232C352.402 303.694 342.937 304.5 337.097 305.243C337.092 305.244 337.087 305.247 337.082 305.248C337.079 305.248 337.077 305.248 337.075 305.249C334.936 305.897 332.935 306.317 331.384 306.235C327.938 306.057 325.257 304.606 322.896 303.333C321.054 302.335 319.447 301.473 317.934 301.473C317.854 301.473 317.77 301.473 317.687 301.476C313.16 301.77 311.079 302.876 309.189 304.563C308.714 304.983 308.134 306.202 306.236 311.671C305.278 314.435 305.101 315.947 304.923 317.417C304.763 318.76 304.6 320.141 303.886 322.201C303.389 323.623 303.022 324.849 302.667 326.031C301.731 329.172 300.991 331.646 298.768 334.588C298.507 334.936 298.184 335.448 297.81 336.031C297.306 336.825 296.682 337.812 295.859 338.955C295.278 339.76 293.944 342.773 294.017 343.691C294.126 345.153 294.601 346.06 295.145 347.119C295.686 348.163 296.302 349.345 296.414 350.977L296.433 351.242C296.631 353.831 296.262 355.13 291.337 359.529C288.188 362.347 285.951 365.061 284.442 367.053C284.309 367.229 284.482 367.49 284.702 367.472C284.753 367.465 284.804 367.462 284.851 367.462C284.946 367.454 285.04 367.451 285.134 367.451C285.228 367.451 285.323 367.454 285.416 367.458C285.511 367.462 285.602 367.469 285.695 367.483C286.886 367.619 288.047 368.123 288.885 368.991C289.031 369.142 289.258 369.183 289.452 369.105C290.254 368.771 291.135 368.826 291.977 368.905C293.017 369.001 294.067 369.312 294.757 369.983C294.965 370.186 295.262 370.289 295.546 370.224C296.361 370.039 297.216 370.056 298.009 370.344C298.635 370.577 299.161 370.945 299.579 371.408C299.871 371.732 300.389 371.794 300.755 371.558C300.983 371.411 301.234 371.287 301.513 371.193C302.582 370.83 303.765 371.037 304.803 371.41C305.314 371.594 305.85 371.758 306.311 372.066C307.158 372.63 307.675 373.454 308.005 374.375C308.192 374.894 308.891 375.074 309.315 374.721C310.077 374.087 310.68 373.98 311.288 374.25C311.598 374.39 311.814 374.582 311.959 374.823C312.212 375.242 312.727 375.587 313.198 375.455C314.853 374.994 316.925 375.234 318.426 376.038C318.956 376.316 319.477 376.741 319.857 377.383C319.858 377.383 319.858 377.383 319.858 377.384C319.859 377.387 319.862 377.386 319.862 377.383L319.906 377.098C319.926 376.969 320.017 376.862 320.142 376.823L320.49 376.716C321.31 376.455 325.488 375.251 327.113 376.962C327.183 377.032 327.305 377.039 327.373 376.966C327.594 376.723 327.774 376.59 327.889 376.524C328.947 375.882 330.762 375.842 331.969 376.876C332.212 377.08 332.606 377.006 332.789 376.746C332.902 376.587 333.03 376.446 333.174 376.325C333.598 375.959 334.135 375.784 334.73 375.821L337.025 375.697C337.602 375.665 339.396 375.543 339.961 375.424C340.004 375.415 340.048 375.407 340.093 375.4C340.332 375.363 340.616 375.302 340.913 375.24C342.026 374.997 343.289 374.724 344.326 375.203C345.322 375.664 345.196 376.799 345.076 377.8C345.029 378.206 344.978 378.63 344.982 379.033C344.989 379.221 344.993 379.41 344.996 379.603C345.011 380.466 345.029 381.263 344.858 381.875C344.858 381.876 344.858 381.878 344.858 381.879C344.858 381.88 344.858 381.881 344.858 381.882L344.963 382.356C344.968 382.374 344.973 382.397 344.979 382.425C345.073 382.859 345.539 383.101 345.918 382.87C346.718 382.382 347.559 381.748 347.813 381.383C347.832 381.355 347.847 381.326 347.858 381.294C347.893 381.202 347.958 381.003 348.029 380.587C348.171 379.734 348.33 378.001 348.344 374.482C348.344 374.296 348.344 374.163 348.348 374.101C348.377 372.795 348.326 371.747 348.275 370.822C348.181 368.914 348.104 367.413 349.051 365.885C349.973 364.398 350.868 363.836 351.728 363.291C352.728 362.664 353.857 361.952 355.758 359.345C356.69 358.061 356.805 357.543 356.896 357.129C357.103 356.16 357.423 355.577 358.862 354.489C360.034 353.604 363.599 350.902 368.409 351.711C369.986 351.979 372.543 352.82 375.066 353.814C375.067 353.815 375.068 353.815 375.07 353.815C375.071 353.815 375.072 353.815 375.073 353.815C375.167 353.843 375.264 353.876 375.353 353.923C375.385 353.94 375.418 353.956 375.452 353.97C377.706 354.87 379.899 355.875 381.304 356.678C381.631 356.865 382.05 356.757 382.28 356.458C382.74 355.861 383.242 355.515 383.783 355.19C383.986 355.067 384.142 354.973 384.291 354.846C384.342 354.803 384.392 354.761 384.441 354.721C384.861 354.381 384.86 353.654 384.379 353.406C377.6 349.901 371.215 347.944 369.105 347.344ZM320.927 348.9C319.363 355.744 308.761 363.267 303.942 363.267H303.847C303.771 363.263 303.687 363.256 303.597 363.241C303.506 363.227 303.408 363.205 303.304 363.176C303.253 363.161 303.198 363.143 303.144 363.129C302.269 362.853 301.058 362.181 300.141 361.279C299.51 360.66 299.013 359.929 298.857 359.142C298.828 359.004 298.799 358.867 298.769 358.729C298.509 357.565 298.185 356.111 299.212 353.731C299.354 353.412 299.48 353.114 299.596 352.842C299.633 352.752 299.673 352.661 299.709 352.574C299.818 352.317 299.915 352.081 300.003 351.867C300.148 351.505 300.267 351.197 300.365 350.935C300.405 350.833 300.442 350.735 300.474 350.645C300.768 349.822 300.804 349.514 300.844 349.195C300.881 348.945 300.917 348.639 301.019 348.204C301.32 346.92 301.476 345.832 301.614 344.863C301.861 343.121 302.075 341.617 303.014 340.235C303.174 340 303.351 339.785 303.551 339.597C303.62 339.532 303.686 339.47 303.757 339.408C303.83 339.346 303.903 339.292 303.974 339.237C304.202 339.077 304.446 338.936 304.71 338.816C304.801 338.776 304.892 338.736 304.982 338.704C305.168 338.635 305.363 338.576 305.567 338.525C306.43 338.316 307.449 338.283 308.62 338.431C309.901 338.533 311.087 338.775 312.138 339.069C313.016 339.311 313.8 339.595 314.463 339.859C314.532 339.885 314.598 339.91 314.663 339.939C314.79 339.99 314.913 340.041 315.033 340.096C315.215 340.172 315.381 340.245 315.537 340.313C315.744 340.407 315.933 340.491 316.1 340.566L316.256 340.639C316.996 340.976 317.632 341.346 318.175 341.734C318.443 341.931 318.694 342.13 318.918 342.332C318.995 342.398 319.068 342.467 319.135 342.539C319.208 342.609 319.277 342.678 319.342 342.747C321.379 344.892 321.278 347.373 320.927 348.9ZM325.84 322.959L325.634 324.2C325.159 326.996 324.067 330.83 320.041 331.817C316.168 332.764 315.25 332.966 312.493 333.09C312.432 333.097 312.366 333.097 312.301 333.097C310.288 333.097 306.414 331.828 305.728 328.672C305.289 326.641 306.185 325.169 307.661 322.728C307.907 322.325 308.173 321.893 308.455 321.411C310.406 318.124 311.175 315.745 311.793 313.837C312.394 311.973 312.895 310.432 314.183 309.155C314.48 308.858 314.817 308.578 315.209 308.31C315.459 308.139 315.72 307.987 315.996 307.845C316.362 307.663 316.746 307.505 317.149 307.377C318.045 307.091 319.013 306.946 319.982 306.946C321.86 306.946 323.736 307.486 325.074 308.56C325.676 309.042 326.532 310.006 327.029 312.85C327.285 314.315 326.849 317.007 325.84 322.959ZM354.563 330.917C353.177 333.296 352.419 334.606 351.222 335.588C348.847 337.539 346.076 338.033 343.794 338.033C342.155 338.033 340.763 337.78 339.943 337.63C337.585 337.199 333.197 336.401 331.735 332.937C331.449 332.252 331.446 331.817 331.446 331.265C331.446 330.72 331.446 329.804 331.192 327.623L331.178 327.478C331.061 326.491 330.931 325.374 331.214 323.941L331.247 323.77C332.074 319.564 332.298 318.921 332.484 318.558C332.912 317.731 333.927 317.405 334.754 317.83C335.555 318.247 335.889 319.218 335.512 320.034C335.428 320.273 335.193 321.169 334.554 324.423L334.521 324.594C334.339 325.512 334.419 326.208 334.525 327.09L334.539 327.239C334.814 329.607 334.814 330.68 334.814 331.261C334.814 331.364 334.814 331.476 334.818 331.543C334.819 331.569 334.832 331.603 334.84 331.628C335.114 332.278 335.732 332.771 336.485 333.15C336.953 333.385 337.442 332.938 337.338 332.425C336.589 328.718 336.63 324.394 338.046 321.722C338.51 320.835 339.368 319.383 340.183 318.028C340.186 318.024 340.188 318.021 340.19 318.017C340.192 318.013 340.195 318.01 340.197 318.006C340.28 317.869 340.362 317.734 340.444 317.598C340.513 317.481 340.582 317.37 340.646 317.261C341.005 316.665 341.342 316.118 341.612 315.683C341.648 315.621 341.684 315.559 341.721 315.501C341.746 315.457 341.772 315.417 341.797 315.381C341.855 315.286 341.906 315.199 341.954 315.124C341.975 315.088 341.997 315.055 342.015 315.022C342.026 315.008 342.034 314.993 342.041 314.982C342.066 314.938 342.092 314.898 342.114 314.866C342.157 314.797 342.19 314.746 342.208 314.713C342.21 314.71 342.211 314.708 342.212 314.705C342.216 314.698 342.224 314.687 342.228 314.68C342.231 314.675 342.232 314.674 342.235 314.669C342.516 314.26 342.794 313.871 343.064 313.505C343.431 313.008 343.006 312.357 342.434 312.591C341.058 313.152 340.118 313.869 339.927 314.02C339.198 314.601 338.138 314.481 337.562 313.752C336.985 313.024 337.105 311.961 337.834 311.38C338.701 310.699 343.296 307.347 348.799 308.921C352.764 310.049 354.842 313.078 355.625 314.217C356.256 315.142 358.19 317.95 358.128 321.87C358.082 324.86 356.835 327.011 354.563 330.917Z" fill="white"/>
<path d="M318.824 310.414C318.542 311.096 318.205 311.941 317.843 312.859C316.997 314.985 316.038 317.393 315.577 318.266C314.782 319.775 314.163 320.727 313.669 321.494C313.103 322.375 312.652 323.072 312.312 324.044C311.715 325.744 311.608 327.644 311.996 329.71C310.942 329.594 309.217 328.868 309.022 327.953C308.876 327.272 309.299 326.527 310.546 324.476C310.796 324.067 311.064 323.622 311.357 323.127C313.5 319.518 314.367 316.833 315.005 314.87C315.693 312.734 316.018 311.838 317.113 311.09C317.603 310.749 318.199 310.532 318.824 310.414Z" fill="white"/>
<path d="M316.731 386.098C315.563 388.484 314.109 390.686 313.203 391.777C312.453 389.749 311.149 385.102 311.493 381.363C311.503 381.255 311.515 381.148 311.531 381.044C311.669 379.889 311.976 378.83 312.522 377.981C312.882 377.423 313.879 377.082 315.011 377.082C315.847 377.082 316.756 377.265 317.539 377.685H317.545C317.964 377.909 318.535 378.363 318.595 379.682C318.681 381.464 317.832 383.859 316.731 386.098Z" fill="white"/>
<path d="M380.726 359.361C380.816 359.434 380.873 359.544 380.821 359.648C380.472 360.349 380.054 360.841 379.56 361.42C378.964 362.13 378.282 362.935 377.648 364.19C376.745 365.969 376.456 367.592 376.304 371.747C376.125 376.628 376.314 379.37 376.456 381.369C376.591 383.3 376.674 384.464 376.33 386.347C375.636 390.146 374.011 392.661 371.953 395.844C369.378 399.825 366.715 403.94 362.305 405.252C361.895 405.378 361.881 405.378 360.731 405.382C359.73 405.382 358.065 405.386 354.913 405.502C349.152 405.711 346.262 405.815 343.789 406.29C341.195 406.792 339.842 407.344 338.53 407.874C337.346 408.353 336.227 408.808 334.082 409.249C332.803 409.507 330.892 409.789 324.38 409.799C317.612 409.811 313.526 409.814 308.131 409.199C300.729 408.354 297.013 407.931 294.545 406.613C288.724 403.508 286.266 397.924 282.2 388.673C282.193 388.657 282.186 388.641 282.179 388.624C282.129 388.509 282.269 388.398 282.377 388.462C282.57 388.582 282.771 388.681 282.983 388.752C283.161 388.815 283.346 388.863 283.533 388.894C283.905 388.957 284.293 388.961 284.687 388.894C284.756 388.882 284.819 388.866 284.88 388.841C284.892 388.836 284.903 388.83 284.915 388.825C284.984 388.791 285.069 388.819 285.098 388.89C285.357 389.603 285.768 390.238 286.458 390.604C287.149 390.964 287.935 390.992 288.704 390.986C289.496 390.974 290.294 390.929 291.083 390.834C291.501 390.79 291.929 390.995 292.089 391.384C292.812 393.136 293.707 394.404 295.052 394.591C295.125 394.601 295.22 394.613 295.34 394.613C295.643 394.613 296.111 394.525 296.771 394.071C297.282 393.721 298.073 393.927 298.44 394.426C298.776 394.881 299.176 395.208 299.52 395.484C300.905 396.906 304.271 397.588 307.098 397.588C308.64 397.588 310.023 397.385 310.837 396.989C312.001 396.424 312.001 395.557 311.944 395.206C311.845 394.577 311.755 393.953 311.679 393.335C311.67 393.261 311.782 393.232 311.812 393.301C311.981 393.67 312.188 394.13 312.739 394.219C312.799 394.225 312.866 394.238 312.942 394.238C313.73 394.238 314.956 394.495 315.167 395.254C315.275 395.641 315.427 396.003 315.634 396.33C316.107 397.079 317.07 397.971 318.979 398.003H319.127C321.319 398.003 323.011 397.286 324.152 395.869C324.226 395.778 324.297 395.684 324.365 395.589C324.775 395.011 325.993 394.986 326.514 395.466C327.101 396.009 327.84 396.289 328.663 396.289C328.795 396.289 328.929 396.283 329.067 396.267C330.048 396.163 330.897 395.643 331.531 394.756C331.946 394.177 332.249 393.465 332.47 392.695C332.535 392.468 332.847 392.401 333.021 392.56C333.44 392.948 334.112 393.358 335.081 393.358C335.317 393.358 335.573 393.333 335.845 393.276C337.749 392.893 338.697 391.317 339.146 389.538C339.161 389.478 339.247 389.462 339.287 389.509C339.769 390.096 340.659 390.774 342.208 390.774C342.287 390.774 342.369 390.774 342.45 390.77C343.27 390.732 343.961 390.372 344.46 389.728C345.067 388.937 345.306 387.764 345.361 386.584C345.377 386.24 345.599 385.938 345.917 385.805C347.551 385.122 349.53 383.651 350.11 382.649C350.13 382.614 350.15 382.577 350.17 382.539C350.303 382.281 350.531 382.077 350.816 382.023C352.082 381.783 352.634 381.544 353.136 381.326C353.545 381.146 353.874 381.004 354.794 380.861C362.114 379.744 363.543 379.498 365.127 378.442C367.496 376.862 367.616 374.687 367.733 372.583C367.833 370.804 367.947 368.785 369.329 366.416C369.831 365.551 370.41 364.472 371.026 363.33C372.104 361.331 373.61 358.532 374.688 357.065C374.891 356.788 375.258 356.702 375.574 356.836C378.104 357.911 380.259 358.987 380.726 359.361Z" fill="white"/>
<path d="M309.639 381.142C309.349 383.673 309.172 387.054 309.582 391.458C309.698 392.701 309.86 393.991 310.061 395.298C309.714 395.487 308.678 395.752 306.836 395.723C304.189 395.67 301.612 395.004 300.838 394.167L300.718 394.059C300.074 393.542 299.652 393.201 299.592 392.277C299.572 391.965 299.706 391.656 299.992 391.219C300.15 390.973 300.358 390.689 300.616 390.339C301.061 389.742 301.613 388.998 302.178 388.038C303.835 385.239 304.463 384.375 305.261 383.283C305.324 383.195 305.391 383.106 305.46 383.015C305.93 382.371 306.482 381.601 307.312 380.336C307.93 379.397 308.444 378.661 308.868 378.083C309.575 377.122 310.038 376.6 310.335 376.316C310.291 376.752 310.193 377.364 310.098 377.929C309.958 378.798 309.781 379.861 309.639 381.142Z" fill="white"/>
<path d="M308.426 341.795C308.41 341.817 308.391 341.839 308.375 341.862C308.031 342.339 307.637 342.878 307.167 343.928C305.905 346.733 305.881 348.321 305.861 349.598C305.849 350.267 305.842 350.8 305.659 351.422C305.533 351.832 305.328 352.302 305.091 352.844C304.347 354.548 303.375 356.782 303.811 359.788C303.208 359.498 302.286 358.835 302.158 358.482C302.126 358.318 302.091 358.157 302.054 357.996C301.845 357.058 301.707 356.447 302.303 355.074C303.871 351.458 304.064 350.601 304.187 349.616C304.212 349.401 304.238 349.234 304.301 348.962C304.632 347.536 304.805 346.315 304.947 345.334C305.158 343.845 305.3 342.86 305.802 342.119C305.985 341.845 306.503 341.703 307.244 341.703C307.537 341.703 307.868 341.725 308.229 341.776L308.313 341.782C308.35 341.786 308.389 341.789 308.426 341.795Z" fill="white"/>
<path d="M306.358 377.465C306.273 376.598 306.121 375.729 305.806 374.912C305.784 374.871 305.69 374.662 305.67 374.622C305.613 374.518 305.548 374.42 305.487 374.317C305.483 374.313 305.481 374.313 305.481 374.31C305.477 374.304 305.475 374.304 305.475 374.301C305.44 374.263 305.408 374.226 305.374 374.19C305.323 374.139 305.268 374.09 305.213 374.045C305.203 374.033 305.194 374.023 305.185 374.019C305.16 373.998 305.122 373.968 305.081 373.944C305.014 373.909 304.951 373.871 304.886 373.838C304.866 373.825 304.819 373.806 304.775 373.79C304.775 373.79 304.772 373.79 304.772 373.787C304.762 373.783 304.752 373.781 304.744 373.777C304.734 373.771 304.728 373.767 304.722 373.765C304.712 373.761 304.706 373.759 304.7 373.759C304.694 373.759 304.694 373.755 304.694 373.755C304.674 373.745 304.662 373.743 304.653 373.739C304.148 373.554 303.636 373.351 303.1 373.272C303.097 373.272 303.088 373.269 303.081 373.269H303.069C303.009 373.269 302.886 373.257 302.88 373.257C302.805 373.253 302.732 373.253 302.659 373.257C302.624 373.257 302.59 373.257 302.558 373.26H302.53C302.518 373.26 302.503 373.264 302.487 373.264C302.481 373.27 302.471 373.27 302.467 373.27C302.464 373.27 302.461 373.27 302.461 373.27C302.341 373.305 302.215 373.337 302.095 373.374C302.044 373.4 301.988 373.425 301.937 373.457C301.894 373.482 301.849 373.514 301.805 373.536C301.802 373.539 301.796 373.545 301.789 373.545L301.78 373.555C301.723 373.612 301.663 373.665 301.606 373.722C301.587 373.742 301.534 373.807 301.496 373.855C301.486 373.861 301.48 373.867 301.48 373.873C301.477 373.876 301.477 373.876 301.474 373.879C301.471 373.882 301.471 373.885 301.464 373.888C301.461 373.892 301.461 373.895 301.458 373.895C301.443 373.922 301.427 373.945 301.421 373.958C301.218 374.273 301.013 374.586 300.802 374.897C300.316 375.642 299.818 376.383 299.313 377.119C298.852 377.785 298.392 378.451 297.934 379.116C297.678 379.489 297.426 379.857 297.174 380.23C297.13 380.293 297.089 380.356 297.048 380.419C297.347 380.476 297.647 380.535 297.95 380.592C298.628 380.716 299.303 380.835 299.991 380.929C301.407 381.122 302.847 381.211 304.282 381.16C304.351 381.156 304.42 381.16 304.484 381.172C304.829 380.68 305.235 380.093 305.753 379.307C306.04 378.868 306.314 378.462 306.572 378.086C306.456 377.906 306.383 377.691 306.358 377.465Z" fill="white"/>
<path d="M301.314 383.317C301.192 384.409 299.97 387.235 298.064 389.926C296.468 392.176 295.499 392.722 295.306 392.741C294.536 392.634 293.776 390.728 293.173 388.838C292.931 388.072 292.712 387.308 292.529 386.668C292.116 385.23 292.041 383.301 292.113 382.09C293.723 382.982 296.549 383.222 300.519 383.238H300.531C300.793 383.266 301.052 383.295 301.314 383.317Z" fill="white"/>
<path d="M298.491 374.326C298.491 374.33 298.491 374.33 298.491 374.332C298.472 374.358 298.456 374.386 298.438 374.411C297.756 375.414 297.069 376.412 296.381 377.411C296.025 377.926 295.672 378.44 295.321 378.958C295.129 379.239 294.87 379.548 294.646 379.882C294.081 379.749 293.517 379.62 292.958 379.462C292.501 379.33 292.05 379.188 291.607 379.011C291.518 378.979 291.433 378.944 291.351 378.904C291.278 378.756 291.174 378.623 291.048 378.522C291.051 378.519 291.051 378.51 291.054 378.506C291.215 378.178 291.379 377.847 291.54 377.519C291.846 376.917 292.153 376.318 292.493 375.737C293.1 374.689 293.831 373.623 294.857 372.944C294.908 372.906 294.964 372.871 295.018 372.837C295.416 372.587 295.814 372.411 296.302 372.351C296.359 372.345 296.703 372.347 296.864 372.361C296.892 372.361 296.915 372.364 296.931 372.364H296.934C296.946 372.368 296.969 372.374 297.003 372.386C297.123 372.424 297.244 372.449 297.364 372.49C297.405 372.51 297.442 372.528 297.484 372.55C297.588 372.613 297.695 372.67 297.793 372.749C297.635 372.629 298.011 373.017 298.011 372.989C298.314 373.408 298.406 373.759 298.491 374.326Z" fill="white"/>
<path d="M293.091 371.482C291.829 372.52 290.911 373.902 290.145 375.34C289.715 376.138 289.327 376.952 288.923 377.763C288.882 377.846 288.841 377.925 288.794 378.006C288.412 377.923 288.03 377.813 287.657 377.694C287.26 377.568 286.865 377.423 286.487 377.247C286.314 377.164 286.14 377.079 285.967 376.988C286.345 376.272 286.796 375.584 287.226 374.916C287.832 373.972 288.488 373.045 289.201 372.174C289.469 371.843 289.753 371.48 290.129 371.262C290.513 371.035 290.978 371.089 291.419 371.114C291.886 371.143 292.388 371.155 292.829 371.332C292.92 371.371 293.019 371.432 293.091 371.482Z" fill="white"/>
<path d="M291.087 388.418C291.024 388.471 290.971 388.528 290.924 388.595C290.88 388.607 290.835 388.617 290.807 388.624C290.504 388.655 290.195 388.677 289.889 388.697C289.302 388.734 288.706 388.76 288.113 388.738C287.782 388.726 287.482 388.675 287.346 388.464C287.128 388.133 287.062 387.555 286.984 387.116C286.596 384.961 286.545 382.716 286.82 380.535C287.946 380.939 289.105 381.252 290.293 381.447C290.037 383.413 290.473 386.299 290.728 387.183C290.847 387.594 290.967 388.01 291.087 388.418Z" fill="white"/>
<path d="M287.464 370.764C286.467 371.988 285.559 373.291 284.744 374.641C284.415 375.19 284.043 375.758 283.769 376.345C283.374 376.235 283.018 376.077 282.64 375.843C282.35 375.663 282.068 375.464 281.794 375.256C281.725 375.199 281.536 375.051 281.418 374.956C281.391 374.935 281.365 374.913 281.336 374.897C281.427 374.639 281.594 374.351 281.686 374.158C281.895 373.701 282.128 373.252 282.372 372.815C282.835 371.995 283.353 371.193 283.94 370.455C284.158 370.183 284.365 369.833 284.704 369.732C285.013 369.644 285.42 369.685 285.669 369.728C286.407 369.871 286.985 370.206 287.464 370.764Z" fill="white"/>
<path d="M279.782 376.077C279.796 376.025 279.864 376.018 279.895 376.062C280.157 376.435 280.522 376.759 280.914 377.064C281.089 377.197 281.262 377.329 281.439 377.454C281.461 377.47 281.471 377.497 281.465 377.524C281.052 379.235 280.77 381.052 280.775 382.842C280.775 382.921 280.656 382.937 280.638 382.86C280.133 380.776 279.447 377.302 279.782 376.077Z" fill="white"/>
<path d="M284.663 379.798C284.461 381.287 284.364 382.78 284.429 384.281C284.461 385.104 284.549 385.922 284.66 386.735C284.66 386.741 284.66 386.748 284.663 386.751V386.755C284.486 386.714 284.301 386.708 284.112 386.735C284.149 386.723 284.052 386.729 284.011 386.729H283.999C283.971 386.726 283.93 386.723 283.916 386.72C283.708 386.669 283.69 386.647 283.525 386.543C283.31 386.404 283.083 386.151 282.932 385.893C282.531 385.199 282.443 384.356 282.411 383.57C282.352 382.028 282.484 380.488 282.772 378.977C283.018 379.077 283.232 379.169 283.589 379.323C283.942 379.477 284.308 379.629 284.665 379.794V379.798H284.663Z" fill="white"/>
<g opacity="0.8" filter="url(#filter0_i_1276_2584)">
<path d="M324.037 457.717C317.242 457.717 310.797 457.288 305.389 456.867L303.898 456.751L302.409 456.544C301.758 456.452 300.873 456.357 300.019 456.264C294.816 455.698 285.14 454.644 274.459 449.628L272.8 448.846L271.253 447.98C250.725 436.473 243.042 419.156 238.905 409.846C238.642 409.255 238.322 408.535 238.022 407.872C235.933 403.598 234.613 399.745 233.493 396.218L233.244 395.43L233.037 394.665C230.057 384.075 229.304 374.93 230.669 365.887C232.037 356.807 235.401 348.546 241.244 339.899L244.274 334.951C244.889 333.952 245.323 332.852 245.557 331.702C247.867 320.253 253.109 312.143 255.685 308.27C256.394 303.581 257.563 298.974 259.175 294.515L259.415 293.839L259.672 293.18C259.714 293.064 259.768 292.9 259.867 292.601C261.024 289.116 263.737 280.96 270.683 272.396L273.292 269.236L275.95 266.835C282.778 260.63 290.913 256.038 299.753 253.398C304.689 251.926 309.777 251.026 314.918 250.716L315.415 250.679L316.164 250.644C317.053 250.602 317.939 250.582 318.803 250.582C322.011 250.576 325.214 250.846 328.375 251.388C330.351 251.721 332.38 251.489 334.229 250.719C339.71 248.432 345.472 246.885 351.361 246.119C351.853 246.049 352.282 245.995 352.62 245.951C353.549 245.835 355.025 245.661 356.809 245.491C359.919 245.194 364.688 244.84 369.858 244.84C379.954 244.84 388.645 246.148 396.425 248.838L397.087 249.068L397.734 249.311C414.903 255.799 423.643 264.863 429.929 272.859L430.227 273.24L431.092 274.009C436.77 278.452 441.599 283.883 445.346 290.043L446.518 291.971L447.507 293.993C455.905 311.135 453.236 326.963 452.23 332.91L452.176 333.228C451.453 337.615 450.302 341.921 448.74 346.084C448.165 350.098 447.22 354.05 445.916 357.889C443.687 364.714 440.398 371.145 436.17 376.948C433.736 380.391 430.987 383.601 427.959 386.536C426.888 387.571 426.194 388.934 425.987 390.408C425.856 391.316 425.707 392.214 425.537 393.103C423.075 406.308 417.3 415.498 414.943 419.158L407.816 429.394C399.233 440.087 389.049 447.14 376.726 450.93L373.74 451.866L370.515 452.427C366.826 453.078 363.087 453.402 359.341 453.394C358.824 453.394 358.304 453.394 357.727 453.379H357.561L356.925 453.419L356.243 453.444H356.224C354.796 453.492 353.38 453.725 352.012 454.138C344.052 456.573 335.048 457.717 324.037 457.717Z" stroke="url(#paint1_linear_1276_2584)" stroke-width="1.0554" stroke-miterlimit="10"/>
<path d="M324.037 450.679C317.526 450.679 311.281 450.264 306.032 449.85L304.788 449.754L303.544 449.582C302.768 449.474 301.821 449.375 300.906 449.271C295.853 448.722 287.405 447.803 277.974 443.38L276.589 442.729L275.301 442.005C257.186 431.845 250.484 416.759 246.478 407.743C246.192 407.1 245.841 406.31 245.514 405.593C243.648 401.765 242.424 398.229 241.391 394.976L241.184 394.32L241.004 393.682C238.354 384.263 237.669 376.226 238.851 368.384C240.033 360.541 243.011 353.294 248.205 345.655L252.087 339.316C252.774 338.193 253.245 336.951 253.476 335.656C255.409 324.887 260.496 317.252 262.808 313.777L263.1 313.337L263.208 313.163C263.256 313.057 263.301 312.956 263.345 312.846C263.486 312.388 263.625 311.944 263.76 311.521C264.368 307.103 265.441 302.763 266.963 298.571L267.171 298.007L267.393 297.441C267.463 297.261 267.529 297.066 267.724 296.481C268.825 293.163 271.117 286.275 277.112 278.884L279.287 276.251L281.495 274.254C287.416 268.874 294.469 264.893 302.134 262.604C306.486 261.312 310.971 260.524 315.502 260.255L315.917 260.222L316.539 260.193C317.296 260.157 318.051 260.141 318.787 260.141C322.038 260.135 325.28 259.199 328.465 259.853C330.922 260.361 333.477 260.089 335.772 259.075C340.06 257.184 345.833 256.429 352.442 255.606C352.913 255.537 353.323 255.486 353.642 255.446C354.511 255.336 355.901 255.172 357.582 255.013C360.506 254.733 365.006 254.391 369.844 254.391C379.003 254.391 386.806 255.55 393.701 257.934L394.252 258.125L394.791 258.333C410.01 264.083 417.531 271.78 423.391 279.243C423.716 279.658 424.05 280.083 424.174 280.23L424.313 280.354L425.425 281.344L425.574 281.497C430.637 285.375 434.933 290.162 438.244 295.612L439.219 297.219L440.048 298.903C447.272 313.648 445.008 327.063 444.042 332.792L443.99 333.097C443.304 337.259 442.183 341.338 440.643 345.265C440.158 349.087 439.288 352.85 438.047 356.498C436.076 362.536 433.167 368.228 429.427 373.362C426.895 376.962 423.967 380.265 420.699 383.212C419.183 384.574 418.226 386.45 418.014 388.477C417.856 389.97 417.643 391.421 417.373 392.846C415.202 404.502 410.128 412.564 407.805 416.174L402.032 424.566C394.36 434.424 385.269 440.871 374.256 444.266L371.768 445.045L369.072 445.512C365.855 446.08 362.593 446.362 359.326 446.356C358.851 446.356 358.366 446.356 357.844 446.343H357.696H357.387C357.387 446.343 357.284 446.343 357.072 446.358L356.502 446.393L355.928 446.414L354.781 446.457C353.265 446.511 351.764 446.772 350.318 447.233C342.986 449.574 334.513 450.679 324.037 450.679Z" stroke="url(#paint2_linear_1276_2584)" stroke-width="1.0554" stroke-miterlimit="10"/>
<path d="M324.038 442.389C317.817 442.389 311.766 441.985 306.673 441.589L305.68 441.512L304.689 441.375C303.791 441.251 302.781 441.141 301.804 441.033C296.975 440.508 289.682 439.714 281.504 435.878L280.394 435.358L279.357 434.779C263.648 425.972 257.879 412.981 254.059 404.384C253.734 403.648 253.365 402.818 253.023 402.049C251.364 398.675 250.256 395.457 249.313 392.477L249.147 391.955L249.002 391.442C246.681 383.198 246.068 376.266 247.067 369.632C248.081 362.905 250.723 356.635 255.376 349.895L255.93 349.095L256.529 348.326C256.906 347.845 257.269 347.37 257.626 346.905L259.961 342.623C260.727 341.224 261.244 339.702 261.489 338.126C262.974 328.519 267.602 321.578 269.738 318.377L269.748 318.36C269.871 318.177 270.028 317.945 270.109 317.817L270.565 317.089C270.744 316.699 270.98 316.181 271.187 315.637C271.395 314.988 271.642 314.186 271.911 313.356C272.417 309.264 273.387 305.242 274.802 301.369L274.963 300.917L275.14 300.46C275.289 300.081 275.399 299.751 275.615 299.102C276.637 296.031 278.532 290.331 283.573 284.112L285.317 282.003L287.078 280.413C292.089 275.859 298.059 272.488 304.548 270.551C308.314 269.433 312.197 268.755 316.119 268.531L316.45 268.506L316.954 268.483C317.576 268.454 318.198 268.44 318.82 268.44C322.193 268.435 325.552 268.862 328.815 269.711C331.641 270.426 334.629 270.11 337.242 268.821C341.425 266.791 347.02 264.637 353.574 263.832C354.024 263.768 354.404 263.718 354.713 263.679C355.528 263.577 356.826 263.424 358.402 263.264C361.145 263.001 365.363 262.688 369.875 262.688C378.097 262.688 385.012 263.697 391.026 265.775L391.468 265.929L391.899 266.09C405.877 271.374 412.135 278.294 416.903 284.363C417.954 285.7 418.113 285.908 418.835 286.549L419.725 287.341L420.071 287.695C422.371 289.477 427.074 293.145 431.19 299.93L431.971 301.215L432.631 302.561C438.682 314.909 436.799 326.061 435.895 331.422L435.845 331.718C435.198 335.648 434.103 339.492 432.581 343.173L432.54 343.511C432.138 347.032 431.36 350.5 430.219 353.856C428.508 359.111 425.978 364.063 422.723 368.529C420 372.432 416.727 375.92 413.006 378.887C412.121 379.589 411.396 380.472 410.88 381.477C410.364 382.483 410.07 383.587 410.016 384.716C409.915 386.931 409.66 389.138 409.253 391.318C407.374 401.425 402.962 408.432 400.71 411.93L396.235 418.543C389.489 427.548 381.493 433.377 371.83 436.34L369.842 436.962L367.691 437.336C364.942 437.822 362.154 438.063 359.362 438.057C358.928 438.057 358.487 438.057 358.01 438.045H357.9H357.423C357.342 438.045 357.095 438.045 356.593 438.076L356.137 438.105L355.696 438.122L353.39 438.207C351.775 438.262 350.176 438.551 348.643 439.063C341.927 441.325 334.003 442.389 324.038 442.389Z" stroke="url(#paint3_linear_1276_2584)" stroke-width="0.989438" stroke-miterlimit="10"/>
<path d="M324.036 434.093C318.091 434.093 312.246 433.701 307.315 433.318L306.57 433.26L305.826 433.158C304.808 433.017 303.736 432.899 302.697 432.787C298.158 432.291 291.951 431.617 285.023 428.368L284.194 427.976L283.42 427.543C270.116 420.078 265.222 409.065 261.647 401.017C261.276 400.188 260.89 399.315 260.509 398.479C258.989 395.423 258.021 392.488 257.216 389.977L257.092 389.585L256.984 389.202C253.094 375.377 254.556 365.679 262.199 354.614L262.614 354.012L263.064 353.436C263.572 352.787 264.047 352.163 264.515 351.57C265.22 350.645 265.934 349.703 266.711 348.735C267.194 348.132 267.583 347.459 267.866 346.74L268.743 344.501C269.115 343.548 269.348 342.548 269.436 341.529C270.197 332.66 274.51 326.195 276.646 322.991L276.658 322.974C276.814 322.738 277.05 322.386 277.129 322.259L277.629 321.461L277.782 321.253C278.048 320.716 278.568 319.582 279.026 318.394C279.273 317.581 279.663 316.333 280.044 315.198C280.044 315.155 280.044 315.107 280.061 315.057C280.47 311.341 281.326 307.688 282.612 304.177L282.734 303.837L282.867 303.495C283.099 302.904 283.263 302.41 283.489 301.728C284.401 298.987 285.927 294.398 290.017 289.355L291.325 287.771L292.638 286.585C302.296 277.821 313.104 277.065 316.716 276.822L316.965 276.803L317.347 276.785C317.838 276.762 318.33 276.752 318.811 276.752C323.099 276.767 327.342 277.634 331.292 279.304C331.992 279.595 332.747 279.727 333.504 279.691C334.261 279.655 335 279.452 335.669 279.097H335.69C339.362 276.967 346.089 273.106 354.666 272.073C355.08 272.011 355.462 271.964 355.742 271.928C356.497 271.833 357.701 271.692 359.182 271.549C361.745 271.304 365.681 271.012 369.865 271.012C377.15 271.012 383.18 271.874 388.302 273.645L388.634 273.759L388.957 273.882C400.936 278.408 406.102 284.088 410.365 289.517C411.512 290.968 412.024 291.642 413.308 292.774L413.975 293.369L414.51 293.919L414.925 294.247C416.955 295.818 420.731 298.744 424.082 304.256L424.669 305.22L425.164 306.23C430.037 316.183 428.513 325.21 427.694 330.062L427.647 330.35C427.069 333.878 426.065 337.322 424.656 340.606L424.538 340.888C424.526 340.949 424.509 341.038 424.484 341.168C424.42 341.502 424.383 341.768 424.339 342.106L424.289 342.487C423.957 345.462 423.303 348.392 422.338 351.225C420.887 355.695 418.737 359.907 415.97 363.704C413.233 367.59 410.164 370.755 406.72 373.26C405.208 374.364 403.973 375.805 403.113 377.468C402.253 379.131 401.791 380.972 401.764 382.844C401.735 385.179 401.506 387.507 401.081 389.803C399.493 398.365 395.839 404.163 393.565 407.696L390.313 412.571C384.49 420.706 377.621 425.901 369.353 428.432L368.916 428.569C368.214 428.79 367.498 428.963 366.774 429.088L366.249 429.179C363.968 429.583 361.656 429.784 359.34 429.778C358.948 429.778 358.55 429.778 358.118 429.768H358.048C357.851 429.768 357.633 429.768 357.401 429.768C357.239 429.768 356.812 429.768 356.04 429.816L355.698 429.836L355.364 429.849C354.255 429.89 352.876 429.938 351.646 429.992C349.961 430.062 348.296 430.388 346.709 430.96C340.758 433.086 333.475 434.093 324.036 434.093Z" stroke="url(#paint4_linear_1276_2584)" stroke-width="0.923475" stroke-miterlimit="10"/>
<path d="M324.036 425.799C318.373 425.799 312.731 425.42 307.958 425.049L307.46 425.011L306.964 424.941C305.822 424.783 304.683 424.659 303.586 424.541C299.414 424.087 294.222 423.521 288.544 420.858L287.989 420.597L287.474 420.309C276.576 414.198 272.503 405.024 269.227 397.652C268.824 396.744 268.397 395.807 267.982 394.894C266.699 392.333 265.83 389.71 265.117 387.465L265.034 387.205L264.961 386.95C261.751 375.545 262.811 368.306 269.017 359.321L269.293 358.921L269.594 358.538C270.135 357.845 270.63 357.198 271.103 356.574C272.723 354.45 274.28 352.406 276.609 349.92C277.119 349.374 277.425 348.668 277.473 347.923L277.65 345.239L277.581 344.36L277.612 343.448C277.855 336.089 281.552 330.552 283.53 327.578C283.759 327.234 283.997 326.88 284.138 326.654L284.472 326.123L284.781 325.708C285.15 325.105 286.12 323.048 286.854 321.074C287.107 320.244 287.597 318.662 288.028 317.407C288.155 317.007 288.167 316.91 288.271 316.051C288.608 312.946 289.323 309.893 290.4 306.961L290.481 306.732L290.57 306.502C290.877 305.718 291.091 305.078 291.338 304.335C292.119 301.984 293.297 298.44 296.437 294.569L297.312 293.511L298.178 292.727C304.945 286.583 312.316 285.42 317.291 285.086L317.459 285.071H317.716C318.077 285.055 318.436 285.047 318.788 285.047C323.037 285.047 328.119 287.085 330.788 288.317C331.426 288.609 332.116 288.773 332.818 288.799C333.52 288.824 334.22 288.71 334.877 288.464C336.538 287.862 338.156 287.15 339.721 286.332C343.116 284.362 348.748 281.109 355.742 280.294C356.128 280.236 356.474 280.192 356.76 280.155C357.463 280.068 358.573 279.948 359.947 279.804C362.332 279.576 365.984 279.305 369.843 279.305C376.188 279.305 381.333 280.018 385.569 281.482L385.789 281.559L385.996 281.64C396.001 285.42 399.983 289.764 403.813 294.639C405.057 296.211 405.936 297.335 407.763 298.969L408.207 299.365L408.621 299.78C408.994 300.149 409.395 300.488 409.822 300.794C411.539 302.123 414.417 304.35 416.97 308.553L417.36 309.196L417.691 309.87C421.391 317.42 420.202 324.462 419.491 328.669L419.444 328.955C418.971 331.86 418.143 334.695 416.978 337.397V337.418C416.656 338.117 416.433 338.857 416.317 339.618C416.217 340.149 416.155 340.576 416.095 341.049L416.045 341.434C415.779 343.861 415.248 346.252 414.463 348.563C413.279 352.252 411.508 355.725 409.219 358.849C405.839 363.67 401.932 367.062 397.225 369.217C396.081 369.739 395.104 370.566 394.402 371.609C393.699 372.651 393.298 373.867 393.243 375.122C393.221 375.637 393.212 376.06 393.227 376.296C393.459 379.923 393.722 384.033 392.914 388.267C391.618 395.27 388.652 399.977 386.423 403.433C386.423 403.433 376.196 417.667 366.89 420.508L365.888 420.821L364.812 421.009C363.001 421.331 361.165 421.49 359.325 421.484C358.977 421.484 358.62 421.484 358.237 421.474H358.203C357.957 421.474 357.689 421.474 357.386 421.474C357.021 421.474 356.426 421.474 355.501 421.538L355.275 421.553H355.052C351.491 421.681 348.126 421.802 347.19 421.984C346.69 422.062 346.202 422.205 345.739 422.411C340.472 424.719 333.565 425.799 324.036 425.799Z" stroke="url(#paint5_linear_1276_2584)" stroke-width="0.857513" stroke-miterlimit="10"/>
<path d="M324.037 417.508C318.658 417.508 313.215 417.141 308.599 416.782L308.352 416.763L308.105 416.728C306.842 416.554 305.644 416.423 304.483 416.297C300.555 415.869 296.493 415.428 292.066 413.352L291.788 413.219L291.531 413.076C283.029 408.307 279.871 401.184 276.808 394.287C276.373 393.309 275.923 392.297 275.458 391.291C274.421 389.242 273.687 387.044 273.028 384.962L272.986 384.834L272.949 384.703C270.397 375.625 271.046 370.99 275.852 364.037L275.991 363.83L276.14 363.637C276.704 362.918 277.217 362.246 277.71 361.597C280.02 358.567 282.017 355.948 286.492 351.818L286.504 351.805C286.833 351.492 287.063 351.09 287.168 350.648C287.273 350.207 287.247 349.744 287.095 349.317L286.289 347.017C286.127 346.292 286.013 345.557 285.949 344.817V344.792L285.899 344.17L285.915 343.714C286.079 338.719 288.707 334.781 290.444 332.174C290.716 331.759 290.975 331.38 291.176 331.056L291.342 330.791L291.529 330.54C292.452 329.296 293.951 325.852 294.739 323.718C294.946 323.061 295.477 321.296 295.919 320.017C296.233 319.054 296.437 318.06 296.526 317.051C296.787 314.555 297.36 312.1 298.231 309.746L298.272 309.63L298.318 309.516C298.701 308.531 298.971 307.722 299.232 306.938C299.927 304.85 300.713 302.482 302.9 299.784L303.34 299.253L303.769 298.866C308.576 294.499 313.845 293.619 317.909 293.35H317.994H318.127C318.355 293.35 318.583 293.335 318.809 293.335C322.764 293.335 325.804 294.957 327.815 296.031L328.284 296.28L328.354 296.317C328.906 296.616 329.391 296.877 329.841 297.099C331.091 297.726 332.527 297.873 333.878 297.514C336.632 296.773 340.929 295.144 343.819 293.555L343.879 293.52C346.919 291.757 351.498 289.103 356.864 288.514C357.202 288.46 357.526 288.421 357.831 288.381C358.453 288.303 359.489 288.174 360.756 288.06C362.963 287.853 366.332 287.598 369.864 287.598C375.272 287.598 379.529 288.162 382.88 289.319L382.99 289.358L383.102 289.4C391.129 292.433 394.057 295.608 397.318 299.768C398.646 301.458 399.9 303.054 402.279 305.172L402.5 305.379L402.708 305.586C403.351 306.235 404.044 306.832 404.781 307.372C406.208 308.477 408.163 309.991 409.92 312.881L410.115 313.203L410.281 313.541C412.804 318.694 411.964 323.674 411.351 327.309L411.303 327.596C410.936 329.889 410.278 332.126 409.347 334.254C408.804 335.479 408.418 336.768 408.199 338.09C408.054 338.857 407.969 339.457 407.898 340.012L407.848 340.406C407.649 342.286 407.242 344.137 406.635 345.926C405.715 348.83 404.324 351.562 402.517 354.013C399.469 358.389 396.089 361.087 391.599 362.515C389.448 363.196 387.597 364.598 386.359 366.484L386.003 367.032L385.609 367.482C384.468 368.78 384.79 373.81 384.987 376.813C385.194 380.108 385.416 383.515 384.8 386.723C383.788 392.207 381.439 395.909 379.336 399.164C379.336 399.164 371.527 410.43 364.481 412.57L363.968 412.732L363.429 412.825C362.087 413.066 360.726 413.184 359.363 413.178C359.056 413.178 358.741 413.178 358.407 413.178C358.111 413.178 357.785 413.178 357.424 413.178C356.945 413.178 356.18 413.178 355.015 413.259H354.903H354.791C350.065 413.431 347.214 413.532 345.638 413.839C344.577 414.027 343.542 414.336 342.552 414.762C338.332 416.633 332.439 417.508 324.037 417.508Z" stroke="url(#paint6_linear_1276_2584)" stroke-width="0.857513" stroke-miterlimit="10"/>
</g>
</g>
<defs>
<filter id="filter0_i_1276_2584" x="229.485" y="244.312" width="224.745" height="214.329" filterUnits="userSpaceOnUse" color-interpolation-filters="sRGB">
<feFlood flood-opacity="0" result="BackgroundImageFix"/>
<feBlend mode="normal" in="SourceGraphic" in2="BackgroundImageFix" result="shape"/>
<feColorMatrix in="SourceAlpha" type="matrix" values="0 0 0 0 0 0 0 0 0 0 0 0 0 0 0 0 0 0 127 0" result="hardAlpha"/>
<feOffset dx="0.26385" dy="0.395775"/>
<feGaussianBlur stdDeviation="0.329812"/>
<feComposite in2="hardAlpha" operator="arithmetic" k2="-1" k3="1"/>
<feColorMatrix type="matrix" values="0 0 0 0 0 0 0 0 0 0 0 0 0 0 0 0 0 0 0.12 0"/>
<feBlend mode="normal" in2="shape" result="effect1_innerShadow_1276_2584"/>
</filter>
<radialGradient id="paint0_radial_1276_2584" cx="0" cy="0" r="1" gradientUnits="userSpaceOnUse" gradientTransform="translate(340.464 363.752) rotate(90) scale(104.235)">
<stop offset="0.166667" stop-color="#073183"/>
<stop offset="1" stop-color="#0054F9"/>
</radialGradient>
<linearGradient id="paint1_linear_1276_2584" x1="230.013" y1="244.84" x2="442.641" y2="468.005" gradientUnits="userSpaceOnUse">
<stop offset="0.205697" stop-color="#89D0FF"/>
<stop offset="0.398413" stop-color="#EBBF9A"/>
<stop offset="0.601546" stop-color="#EB8280"/>
<stop offset="0.841139" stop-color="#A281FF"/>
</linearGradient>
<linearGradient id="paint2_linear_1276_2584" x1="238.293" y1="254.391" x2="434.312" y2="460.966" gradientUnits="userSpaceOnUse">
<stop offset="0.205697" stop-color="#89D0FF"/>
<stop offset="0.398413" stop-color="#EBBF9A"/>
<stop offset="0.601546" stop-color="#EB80DA"/>
<stop offset="0.841139" stop-color="#A281FF"/>
</linearGradient>
<linearGradient id="paint3_linear_1276_2584" x1="246.605" y1="262.687" x2="426.013" y2="452.668" gradientUnits="userSpaceOnUse">
<stop offset="0.205697" stop-color="#89D0FF"/>
<stop offset="0.398413" stop-color="#EBBF9A"/>
<stop offset="0.601546" stop-color="#EB8280"/>
<stop offset="0.841139" stop-color="#A281FF"/>
</linearGradient>
<linearGradient id="paint4_linear_1276_2584" x1="254.901" y1="271.012" x2="417.66" y2="444.348" gradientUnits="userSpaceOnUse">
<stop offset="0.205697" stop-color="#89D0FF"/>
<stop offset="0.398413" stop-color="#EBBF9A"/>
<stop offset="0.601546" stop-color="#EB80E7"/>
<stop offset="0.841139" stop-color="#A281FF"/>
</linearGradient>
<linearGradient id="paint5_linear_1276_2584" x1="263.195" y1="279.305" x2="409.336" y2="435.983" gradientUnits="userSpaceOnUse">
<stop offset="0.205697" stop-color="#89D0FF"/>
<stop offset="0.398413" stop-color="#EBBF9A"/>
<stop offset="0.601546" stop-color="#EB80D3"/>
<stop offset="0.841139" stop-color="#A281FF"/>
</linearGradient>
<linearGradient id="paint6_linear_1276_2584" x1="271.479" y1="287.598" x2="400.989" y2="427.681" gradientUnits="userSpaceOnUse">
<stop offset="0.205697" stop-color="#89D0FF"/>
<stop offset="0.398413" stop-color="#EBBF9A"/>
<stop offset="0.601546" stop-color="#A280EB"/>
<stop offset="0.841139" stop-color="#A281FF"/>
</linearGradient>
<clipPath id="clip0_1276_2584">
<rect x="247.685" y="261.25" width="185.558" height="185.558" rx="92.779" fill="white"/>
</clipPath>
</defs>
</svg>
