<?xml version="1.0" encoding="iso-8859-1"?>
<!-- Uploaded to: SVG Repo, www.svgrepo.com, Generator: SVG Repo Mixer Tools -->
<svg fill="#000000" height="800px" width="800px" version="1.1" id="Layer_1" xmlns="http://www.w3.org/2000/svg" xmlns:xlink="http://www.w3.org/1999/xlink" 
	 viewBox="0 0 299.998 299.998" xml:space="preserve">
<g id="XMLID_110_">
	<path id="XMLID_138_" d="M115,60H94.989c-2.75,0-5,2.25-5,5v20.012c0,2.75,2.25,5,5,5H115c2.75,0,5-2.25,5-5V65
		C120,62.25,117.75,60,115,60z"/>
	<path id="XMLID_169_" d="M115,101.986H94.989c-2.75,0-5,2.25-5,5v92.003c0,2.75,2.25,5,5,5H115c2.75,0,5-2.25,5-5v-92.003
		C120,104.236,117.75,101.986,115,101.986z"/>
	<path id="XMLID_197_" d="M294.998,101.986h-67.994c-2.75,0-5,2.25-5,5v92.024c0,2.75,2.25,5,5,5h38.004c2.75,0,5,2.25,5,5v2.001
		c0,2.75-2.25,5-5,5h-38.004c-2.75,0-5,2.25-5,5v13.986c0,2.75,2.25,5,5,5h67.994c2.75,0,5-2.25,5-5V106.986
		C299.998,104.236,297.748,101.986,294.998,101.986z M270.008,175c0,2.75-2.25,5-5,5h-7.992c-2.749,0-5-2.25-5-5v-44.002
		c0-2.75,2.251-5,5-5h7.992c2.75,0,5,2.25,5,5V175z"/>
	<path id="XMLID_223_" d="M72.994,60h-19.99c-2.75,0-5,2.25-5,5v31.986c0,2.75-2.25,5-5,5H5c-2.75,0-5,2.25-5,5v92.003
		c0,2.75,2.25,5,5,5h67.994c2.75,0,5-2.25,5-5V65C77.994,62.25,75.744,60,72.994,60z M48.004,175c0,2.75-2.25,5-5,5H35.01
		c-2.75,0-5-2.25-5-5v-44.002c0-2.75,2.25-5,5-5h7.994c2.75,0,5,2.25,5,5V175z"/>
	<path id="XMLID_226_" d="M205.009,101.986h-68.015c-2.75,0-5,2.25-5,5v92.024c0,2.75,2.25,5,5,5H175c2.75,0,5,2.25,5,5v2.001
		c0,2.75-2.25,5-5,5h-38.006c-2.75,0-5,2.25-5,5v13.986c0,2.75,2.25,5,5,5h68.015c2.75,0,5-2.25,5-5V106.986
		C210.009,104.236,207.759,101.986,205.009,101.986z M180,175c0,2.75-2.25,5-5,5h-7.996c-2.75,0-5-2.25-5-5v-44.002
		c0-2.75,2.25-5,5-5H175c2.75,0,5,2.25,5,5V175z"/>
</g>
</svg>